{"glyphs":{"0":{"ha":833,"x_min":85,"x_max":751,"o":"m 418 -14 q 203 48 276 -14 q 108 219 131 110 q 85 508 85 328 q 109 788 85 678 q 207 959 134 897 q 418 1021 279 1021 q 630 959 557 1021 q 727 788 702 897 q 751 508 751 679 q 728 219 751 328 q 633 48 705 110 q 418 -14 560 -14 m 418 86 q 557 138 510 86 q 619 279 604 190 q 635 508 635 368 q 620 736 635 650 q 559 871 606 822 q 418 921 512 921 q 277 871 324 921 q 216 736 230 822 q 201 508 201 650 q 217 279 201 368 q 279 138 232 190 q 418 86 326 86 m 504 508 l 418 419 l 332 508 l 418 607 l 504 508 z "},"1":{"ha":833,"x_min":111,"x_max":724,"o":"m 133 0 l 133 103 l 379 103 l 379 826 q 245 716 323 770 q 111 646 168 661 l 111 764 q 261 867 181 793 q 394 1007 342 940 l 496 1007 l 496 103 l 724 103 l 724 0 l 133 0 z "},"2":{"ha":833,"x_min":107,"x_max":719,"o":"m 107 117 l 138 145 q 347 343 255 251 q 511 544 438 436 q 583 742 583 653 q 562 835 583 795 q 503 897 541 875 q 418 918 466 918 q 324 894 365 918 q 260 826 283 870 q 238 725 238 783 l 115 725 q 158 886 117 819 q 268 987 199 953 q 422 1021 338 1021 q 566 991 501 1021 q 672 900 632 961 q 711 751 711 840 q 648 552 711 658 q 501 354 584 445 q 298 145 418 263 l 247 96 l 719 96 l 719 -7 l 107 -7 l 107 117 z "},"3":{"ha":833,"x_min":92,"x_max":743,"o":"m 446 617 q 673 498 602 589 q 743 281 743 406 q 694 120 743 188 q 567 19 645 53 q 406 -15 490 -15 q 251 18 323 -15 q 136 118 180 51 q 92 281 92 185 l 214 281 q 242 177 214 222 q 316 109 270 133 q 413 86 361 86 q 515 110 467 86 q 592 178 563 134 q 621 281 621 222 q 580 416 621 359 q 465 501 538 472 q 299 531 392 531 l 299 635 l 578 903 l 115 903 l 115 1007 l 724 1007 l 724 889 l 446 617 z "},"4":{"ha":833,"x_min":56,"x_max":760,"o":"m 617 0 l 496 0 l 496 217 l 56 217 l 56 328 l 457 1007 l 617 1007 l 617 319 l 760 319 l 760 217 l 617 217 l 617 0 m 497 864 l 183 319 l 497 319 l 497 864 z "},"5":{"ha":833,"x_min":113,"x_max":726,"o":"m 410 -12 q 260 15 327 -12 q 152 100 192 42 q 113 246 113 158 l 235 246 q 284 127 235 167 q 408 88 333 88 q 516 121 472 88 q 581 212 560 155 q 603 338 603 269 q 583 455 603 401 q 522 539 563 508 q 422 571 481 571 q 311 531 359 571 q 247 424 263 492 l 125 424 l 197 1007 l 699 1007 l 699 900 l 308 900 l 265 594 q 343 659 301 640 q 444 679 385 679 q 596 634 532 679 q 693 510 660 588 q 726 335 726 431 q 686 154 726 233 q 575 31 647 75 q 410 -12 503 -12 z "},"6":{"ha":833,"x_min":96,"x_max":739,"o":"m 431 -17 q 169 119 243 -17 q 96 489 96 254 q 170 875 96 729 q 435 1021 244 1021 q 565 997 510 1021 q 661 932 619 972 l 581 858 q 432 918 531 918 q 295 850 342 918 q 233 690 248 782 q 215 489 217 598 q 310 616 253 572 q 443 661 367 661 q 597 613 529 661 q 702 484 665 565 q 739 310 739 403 q 700 140 739 215 q 592 25 662 66 q 431 -17 522 -17 m 428 86 q 568 146 519 86 q 617 307 617 206 q 597 426 617 372 q 535 513 576 481 q 433 544 494 544 q 327 512 372 544 q 257 425 281 480 q 233 304 233 370 q 257 191 233 241 q 324 114 280 142 q 428 86 368 86 z "},"7":{"ha":833,"x_min":124,"x_max":732,"o":"m 325 0 l 190 0 l 597 893 l 124 893 l 124 1007 l 732 1007 l 732 894 l 325 0 z "},"8":{"ha":833,"x_min":88,"x_max":747,"o":"m 575 533 q 699 437 651 500 q 747 288 747 374 q 701 118 747 185 q 581 21 655 51 q 418 -10 506 -10 q 255 20 330 -10 q 134 114 180 50 q 88 275 88 178 q 134 436 88 369 q 257 533 181 503 q 132 758 132 600 q 173 903 132 844 q 280 992 215 963 q 418 1021 346 1021 q 560 993 495 1021 q 666 908 626 965 q 706 768 706 851 q 671 625 706 686 q 575 533 636 565 m 418 926 q 289 881 335 926 q 243 754 243 835 q 288 642 243 683 q 418 601 333 601 q 547 643 500 601 q 594 757 594 685 q 549 881 594 836 q 418 926 503 926 m 418 90 q 520 113 473 90 q 596 180 567 135 q 625 288 625 225 q 597 395 625 351 q 522 459 569 438 q 418 481 475 481 q 313 458 360 481 q 238 391 266 435 q 210 285 210 347 q 238 179 210 223 q 313 113 266 135 q 418 90 360 90 z "},"9":{"ha":833,"x_min":92,"x_max":740,"o":"m 400 -12 q 264 11 325 -12 q 162 78 202 34 q 111 183 122 122 l 211 221 q 280 119 234 151 q 400 88 326 88 q 548 158 499 88 q 610 319 597 229 q 626 531 623 408 q 528 423 590 460 q 386 386 465 386 q 235 428 302 386 q 130 543 167 469 q 92 707 92 616 q 134 871 92 799 q 251 982 177 942 q 415 1021 324 1021 q 615 961 543 1021 q 713 799 686 901 q 740 549 740 696 q 714 270 740 392 q 612 67 687 147 q 400 -12 537 -12 m 404 482 q 514 510 469 482 q 583 589 560 539 q 607 706 607 640 q 583 818 607 769 q 515 894 559 867 q 413 922 471 922 q 308 894 353 922 q 239 817 263 867 q 214 703 214 767 q 236 590 214 640 q 302 511 259 540 q 404 482 344 482 z "},"\r":{"ha":833,"x_min":0,"x_max":0,"o":""}," ":{"ha":833,"x_min":0,"x_max":0,"o":""},"A":{"ha":833,"x_min":63,"x_max":774,"o":"m 192 0 l 63 0 l 347 1007 l 486 1007 l 774 0 l 642 0 l 567 282 l 264 282 l 192 0 m 414 879 l 293 382 l 542 382 l 419 879 l 414 879 z "},"Ａ":{"ha":833,"x_min":63,"x_max":774,"o":"m 192 0 l 63 0 l 347 1007 l 486 1007 l 774 0 l 642 0 l 567 282 l 264 282 l 192 0 m 414 879 l 293 382 l 542 382 l 419 879 l 414 879 z "},"Ꜳ":{"ha":833,"x_min":11,"x_max":829,"o":"m 574 1007 l 657 1007 l 829 0 l 742 0 l 700 286 l 531 286 l 486 0 l 353 0 l 310 286 l 136 286 l 96 0 l 11 0 l 182 1007 l 265 1007 l 420 102 l 574 1007 m 222 849 l 153 386 l 296 386 l 225 849 l 222 849 m 614 849 l 547 386 l 686 386 l 617 849 l 614 849 z "},"Ꜻ":{"ha":833,"x_min":4,"x_max":864,"o":"m 108 0 l 4 0 l 72 286 l 42 286 l 42 404 l 101 404 l 246 1007 l 369 1007 l 510 404 l 607 404 l 739 1007 l 864 1007 l 719 404 l 797 404 l 797 286 l 690 286 l 622 0 l 486 0 l 424 286 l 169 286 l 108 0 m 301 879 l 197 404 l 397 404 l 301 879 m 538 286 l 560 192 l 581 286 l 538 286 z "},"Á":{"ha":833,"x_min":63,"x_max":774,"o":"m 192 0 l 63 0 l 347 1007 l 486 1007 l 774 0 l 642 0 l 567 282 l 264 282 l 192 0 m 414 879 l 293 382 l 542 382 l 419 879 l 414 879 m 557 1364 l 376 1079 l 278 1079 l 400 1364 l 557 1364 z "},"Ă":{"ha":833,"x_min":63,"x_max":774,"o":"m 192 0 l 63 0 l 347 1007 l 486 1007 l 774 0 l 642 0 l 567 282 l 264 282 l 192 0 m 414 879 l 293 382 l 542 382 l 419 879 l 414 879 m 417 1097 q 312 1116 364 1097 q 226 1176 260 1135 q 193 1278 192 1217 l 285 1278 q 324 1205 283 1226 q 418 1183 365 1183 q 516 1204 475 1183 q 554 1278 556 1225 l 644 1278 q 613 1172 646 1212 q 527 1114 579 1131 q 417 1097 475 1097 z "},"Ắ":{"ha":833,"x_min":63,"x_max":774,"o":"m 192 0 l 63 0 l 347 1007 l 486 1007 l 774 0 l 642 0 l 567 282 l 264 282 l 192 0 m 414 879 l 293 382 l 542 382 l 419 879 l 414 879 m 417 1072 q 305 1091 354 1072 q 226 1149 255 1110 q 197 1246 197 1188 l 289 1246 q 309 1193 289 1215 q 360 1161 330 1172 q 419 1150 390 1150 q 482 1160 451 1150 q 533 1193 513 1171 q 553 1246 553 1215 l 640 1246 q 610 1149 640 1188 q 530 1091 581 1110 q 417 1072 479 1072 m 557 1664 l 376 1379 l 278 1379 l 400 1664 l 557 1664 z "},"Ặ":{"ha":833,"x_min":63,"x_max":774,"o":"m 192 0 l 63 0 l 347 1007 l 486 1007 l 774 0 l 642 0 l 567 282 l 264 282 l 192 0 m 414 879 l 293 382 l 542 382 l 419 879 l 414 879 m 415 -196 q 359 -175 379 -196 q 338 -119 338 -155 q 359 -64 338 -85 q 415 -44 379 -44 q 470 -64 449 -44 q 490 -119 490 -85 q 470 -175 490 -155 q 415 -196 449 -196 m 417 1072 q 305 1091 354 1072 q 226 1149 255 1110 q 197 1246 197 1188 l 289 1246 q 309 1193 289 1215 q 360 1161 330 1172 q 419 1150 390 1150 q 482 1160 451 1150 q 533 1193 513 1171 q 553 1246 553 1215 l 640 1246 q 610 1149 640 1188 q 530 1091 581 1110 q 417 1072 479 1072 z "},"Ằ":{"ha":833,"x_min":63,"x_max":774,"o":"m 192 0 l 63 0 l 347 1007 l 486 1007 l 774 0 l 642 0 l 567 282 l 264 282 l 192 0 m 414 879 l 293 382 l 542 382 l 419 879 l 414 879 m 417 1072 q 305 1091 354 1072 q 226 1149 255 1110 q 197 1246 197 1188 l 289 1246 q 309 1193 289 1215 q 360 1161 330 1172 q 419 1150 390 1150 q 482 1160 451 1150 q 533 1193 513 1171 q 553 1246 553 1215 l 640 1246 q 610 1149 640 1188 q 530 1091 581 1110 q 417 1072 479 1072 m 557 1379 l 454 1379 l 264 1664 l 428 1664 l 557 1379 z "},"Ẳ":{"ha":833,"x_min":63,"x_max":774,"o":"m 192 0 l 63 0 l 347 1007 l 486 1007 l 774 0 l 642 0 l 567 282 l 264 282 l 192 0 m 414 879 l 293 382 l 542 382 l 419 879 l 414 879 m 417 1072 q 305 1091 354 1072 q 226 1149 255 1110 q 197 1246 197 1188 l 289 1246 q 309 1193 289 1215 q 360 1161 330 1172 q 419 1150 390 1150 q 482 1160 451 1150 q 533 1193 513 1171 q 553 1246 553 1215 l 640 1246 q 610 1149 640 1188 q 530 1091 581 1110 q 417 1072 479 1072 m 390 1429 q 434 1448 416 1431 q 453 1486 453 1465 q 439 1520 453 1506 q 406 1533 425 1533 q 369 1530 381 1533 q 332 1514 357 1526 l 332 1578 q 367 1593 350 1588 q 408 1597 384 1597 q 456 1586 429 1597 q 501 1553 482 1576 q 521 1496 521 1531 q 492 1413 521 1447 q 411 1367 464 1379 l 390 1429 z "},"Ẵ":{"ha":833,"x_min":63,"x_max":774,"o":"m 192 0 l 63 0 l 347 1007 l 486 1007 l 774 0 l 642 0 l 567 282 l 264 282 l 192 0 m 414 879 l 293 382 l 542 382 l 419 879 l 414 879 m 417 1072 q 305 1091 354 1072 q 226 1149 255 1110 q 197 1246 197 1188 l 289 1246 q 309 1193 289 1215 q 360 1161 330 1172 q 419 1150 390 1150 q 482 1160 451 1150 q 533 1193 513 1171 q 553 1246 553 1215 l 640 1246 q 610 1149 640 1188 q 530 1091 581 1110 q 417 1072 479 1072 m 511 1418 q 457 1428 483 1418 q 394 1461 431 1438 q 348 1490 363 1482 q 317 1499 332 1499 q 276 1484 294 1499 q 228 1435 257 1469 l 160 1506 q 238 1572 194 1548 q 325 1596 282 1596 q 385 1584 358 1596 q 442 1553 413 1573 l 475 1534 q 499 1520 490 1524 q 521 1517 508 1517 q 548 1524 536 1517 q 581 1549 560 1531 q 611 1574 596 1562 l 668 1503 q 594 1441 636 1463 q 511 1418 551 1418 z "},"Ǎ":{"ha":833,"x_min":63,"x_max":774,"o":"m 192 0 l 63 0 l 347 1007 l 486 1007 l 774 0 l 642 0 l 567 282 l 264 282 l 192 0 m 414 879 l 293 382 l 542 382 l 419 879 l 414 879 m 482 1090 l 357 1090 l 219 1293 l 303 1293 l 419 1156 l 533 1293 l 617 1293 l 482 1090 z "},"Â":{"ha":833,"x_min":63,"x_max":774,"o":"m 192 0 l 63 0 l 347 1007 l 486 1007 l 774 0 l 642 0 l 567 282 l 264 282 l 192 0 m 414 879 l 293 382 l 542 382 l 419 879 l 414 879 m 246 1110 l 114 1110 l 339 1364 l 499 1364 l 722 1110 l 592 1110 l 418 1292 l 246 1110 z "},"Ấ":{"ha":833,"x_min":63,"x_max":774,"o":"m 192 0 l 63 0 l 347 1007 l 486 1007 l 774 0 l 642 0 l 567 282 l 264 282 l 192 0 m 414 879 l 293 382 l 542 382 l 419 879 l 414 879 m 246 1029 l 114 1029 l 339 1283 l 499 1283 l 722 1029 l 592 1029 l 418 1211 l 246 1029 m 554 1625 l 374 1340 l 275 1340 l 397 1625 l 554 1625 z "},"Ậ":{"ha":833,"x_min":63,"x_max":774,"o":"m 192 0 l 63 0 l 347 1007 l 486 1007 l 774 0 l 642 0 l 567 282 l 264 282 l 192 0 m 414 879 l 293 382 l 542 382 l 419 879 l 414 879 m 415 -196 q 359 -175 379 -196 q 338 -119 338 -155 q 359 -64 338 -85 q 415 -44 379 -44 q 470 -64 449 -44 q 490 -119 490 -85 q 470 -175 490 -155 q 415 -196 449 -196 m 246 1110 l 114 1110 l 339 1364 l 499 1364 l 722 1110 l 592 1110 l 418 1292 l 246 1110 z "},"Ầ":{"ha":833,"x_min":63,"x_max":774,"o":"m 192 0 l 63 0 l 347 1007 l 486 1007 l 774 0 l 642 0 l 567 282 l 264 282 l 192 0 m 414 879 l 293 382 l 542 382 l 419 879 l 414 879 m 246 1061 l 114 1061 l 339 1315 l 499 1315 l 722 1061 l 592 1061 l 418 1243 l 246 1061 m 557 1346 l 454 1346 l 264 1631 l 428 1631 l 557 1346 z "},"Ẩ":{"ha":833,"x_min":63,"x_max":774,"o":"m 192 0 l 63 0 l 347 1007 l 486 1007 l 774 0 l 642 0 l 567 282 l 264 282 l 192 0 m 414 879 l 293 382 l 542 382 l 419 879 l 414 879 m 246 1110 l 114 1110 l 339 1364 l 499 1364 l 722 1110 l 592 1110 l 418 1292 l 246 1110 m 390 1499 q 434 1518 416 1501 q 453 1556 453 1535 q 439 1589 453 1576 q 406 1603 425 1603 q 369 1599 381 1603 q 332 1583 357 1596 l 332 1647 q 367 1662 350 1658 q 408 1667 384 1667 q 456 1656 429 1667 q 501 1623 482 1645 q 521 1565 521 1600 q 492 1483 521 1517 q 411 1436 464 1449 l 390 1499 z "},"Ẫ":{"ha":833,"x_min":63,"x_max":774,"o":"m 192 0 l 63 0 l 347 1007 l 486 1007 l 774 0 l 642 0 l 567 282 l 264 282 l 192 0 m 414 879 l 293 382 l 542 382 l 419 879 l 414 879 m 204 1110 l 72 1110 l 297 1364 l 457 1364 l 681 1110 l 550 1110 l 376 1292 l 204 1110 m 468 1435 q 414 1445 440 1435 q 351 1478 388 1455 q 305 1507 320 1499 q 274 1515 289 1515 q 233 1501 251 1515 q 185 1451 214 1486 l 117 1522 q 195 1589 151 1565 q 282 1613 239 1613 q 342 1601 315 1613 q 399 1569 369 1590 l 432 1551 q 456 1537 447 1541 q 478 1533 465 1533 q 505 1540 493 1533 q 538 1565 517 1547 q 568 1590 553 1578 l 625 1519 q 551 1457 593 1480 q 468 1435 508 1435 z "},"Ȁ":{"ha":833,"x_min":63,"x_max":774,"o":"m 192 0 l 63 0 l 347 1007 l 486 1007 l 774 0 l 642 0 l 567 282 l 264 282 l 192 0 m 414 879 l 293 382 l 542 382 l 419 879 l 414 879 m 482 1094 l 388 1094 l 154 1364 l 317 1364 l 482 1094 m 706 1094 l 611 1094 l 378 1364 l 539 1364 l 706 1094 z "},"Ä":{"ha":833,"x_min":63,"x_max":774,"o":"m 192 0 l 63 0 l 347 1007 l 486 1007 l 774 0 l 642 0 l 567 282 l 264 282 l 192 0 m 414 879 l 293 382 l 542 382 l 419 879 l 414 879 m 246 1118 q 180 1142 203 1118 q 157 1206 157 1165 q 180 1270 157 1247 q 246 1294 203 1294 q 310 1270 287 1294 q 333 1206 333 1247 q 310 1142 333 1165 q 246 1118 287 1118 m 601 1118 q 534 1142 559 1118 q 510 1207 510 1166 q 534 1271 510 1248 q 601 1294 559 1294 q 667 1271 643 1294 q 690 1207 690 1248 q 667 1142 690 1166 q 601 1118 643 1118 z "},"Ǟ":{"ha":833,"x_min":63,"x_max":774,"o":"m 192 0 l 63 0 l 347 1007 l 486 1007 l 774 0 l 642 0 l 567 282 l 264 282 l 192 0 m 414 879 l 293 382 l 542 382 l 419 879 l 414 879 m 246 1118 q 180 1142 203 1118 q 157 1206 157 1165 q 180 1270 157 1247 q 246 1294 203 1294 q 310 1270 287 1294 q 333 1206 333 1247 q 310 1142 333 1165 q 246 1118 287 1118 m 601 1118 q 534 1142 559 1118 q 510 1207 510 1166 q 534 1271 510 1248 q 601 1294 559 1294 q 667 1271 643 1294 q 690 1207 690 1248 q 667 1142 690 1166 q 601 1118 643 1118 m 676 1474 l 161 1474 l 161 1586 l 676 1586 l 676 1474 z "},"Ȧ":{"ha":833,"x_min":63,"x_max":774,"o":"m 192 0 l 63 0 l 347 1007 l 486 1007 l 774 0 l 642 0 l 567 282 l 264 282 l 192 0 m 414 879 l 293 382 l 542 382 l 419 879 l 414 879 m 418 1100 q 353 1124 376 1100 q 329 1190 329 1149 q 353 1256 329 1232 q 418 1279 376 1279 q 483 1256 460 1279 q 507 1190 507 1232 q 483 1124 507 1149 q 418 1100 460 1100 z "},"Ạ":{"ha":833,"x_min":63,"x_max":774,"o":"m 192 0 l 63 0 l 347 1007 l 486 1007 l 774 0 l 642 0 l 567 282 l 264 282 l 192 0 m 414 879 l 293 382 l 542 382 l 419 879 l 414 879 m 415 -196 q 359 -175 379 -196 q 338 -119 338 -155 q 359 -64 338 -85 q 415 -44 379 -44 q 470 -64 449 -44 q 490 -119 490 -85 q 470 -175 490 -155 q 415 -196 449 -196 z "},"Ǡ":{"ha":833,"x_min":63,"x_max":774,"o":"m 192 0 l 63 0 l 347 1007 l 486 1007 l 774 0 l 642 0 l 567 282 l 264 282 l 192 0 m 414 879 l 293 382 l 542 382 l 419 879 l 414 879 m 418 1100 q 353 1124 376 1100 q 329 1190 329 1149 q 353 1256 329 1232 q 418 1279 376 1279 q 483 1256 460 1279 q 507 1190 507 1232 q 483 1124 507 1149 q 418 1100 460 1100 m 676 1368 l 161 1368 l 161 1481 l 676 1481 l 676 1368 z "},"À":{"ha":833,"x_min":63,"x_max":774,"o":"m 192 0 l 63 0 l 347 1007 l 486 1007 l 774 0 l 642 0 l 567 282 l 264 282 l 192 0 m 414 879 l 293 382 l 542 382 l 419 879 l 414 879 m 557 1079 l 454 1079 l 264 1364 l 428 1364 l 557 1079 z "},"Ả":{"ha":833,"x_min":63,"x_max":774,"o":"m 192 0 l 63 0 l 347 1007 l 486 1007 l 774 0 l 642 0 l 567 282 l 264 282 l 192 0 m 414 879 l 293 382 l 542 382 l 419 879 l 414 879 m 390 1129 q 434 1148 416 1131 q 453 1186 453 1165 q 439 1220 453 1206 q 406 1233 425 1233 q 369 1230 381 1233 q 332 1214 357 1226 l 332 1278 q 367 1293 350 1288 q 408 1297 384 1297 q 456 1286 429 1297 q 501 1253 482 1276 q 521 1196 521 1231 q 492 1113 521 1147 q 411 1067 464 1079 l 390 1129 z "},"Ꜥ":{"ha":833,"x_min":111,"x_max":703,"o":"m 564 47 q 325 88 427 47 q 167 204 222 128 q 111 382 111 280 q 164 607 111 519 q 343 739 216 694 q 694 783 471 783 l 703 642 q 404 600 501 626 q 272 525 307 574 q 236 382 236 476 q 276 265 236 315 q 389 186 315 214 q 564 158 463 158 l 564 47 z "},"Ȃ":{"ha":833,"x_min":63,"x_max":774,"o":"m 192 0 l 63 0 l 347 1007 l 486 1007 l 774 0 l 642 0 l 567 282 l 264 282 l 192 0 m 414 879 l 293 382 l 542 382 l 419 879 l 414 879 m 418 1307 q 531 1288 481 1307 q 612 1230 582 1269 q 642 1133 642 1191 l 554 1133 q 534 1186 554 1165 q 483 1219 514 1208 q 421 1229 453 1229 q 361 1218 392 1229 q 311 1186 331 1208 q 290 1133 290 1164 l 199 1133 q 227 1230 199 1191 q 306 1288 256 1269 q 418 1307 356 1307 z "},"Ꜣ":{"ha":833,"x_min":256,"x_max":650,"o":"m 256 85 q 394 110 331 85 q 494 178 457 135 q 531 275 531 222 q 488 381 531 333 q 381 457 445 429 q 256 485 316 485 l 256 594 q 366 621 313 594 q 452 690 419 648 q 485 776 485 733 q 454 850 485 818 q 371 898 423 881 q 256 915 319 915 l 256 1007 q 457 975 378 1007 q 569 891 535 944 q 604 774 604 839 q 577 661 604 713 q 501 579 549 610 q 390 549 452 549 l 390 542 q 514 506 453 542 q 612 409 574 470 q 650 275 650 347 q 610 136 650 201 q 481 31 569 72 q 256 -10 392 -10 l 256 85 z "},"Ɑ":{"ha":833,"x_min":107,"x_max":811,"o":"m 441 -10 q 251 47 326 -10 q 142 200 176 104 q 107 413 107 296 q 144 613 107 520 q 253 761 181 705 q 430 818 326 818 q 683 666 594 818 l 688 794 l 811 794 q 807 613 807 696 l 807 3 l 678 3 l 678 124 q 575 22 631 55 q 441 -10 519 -10 m 469 94 q 591 139 544 94 q 658 252 638 183 q 678 401 678 322 q 655 554 678 482 q 581 671 632 626 q 453 717 531 717 q 330 671 377 717 q 262 555 283 626 q 242 405 242 484 q 265 252 242 323 q 339 138 288 182 q 469 94 390 94 z "},"Ɒ":{"ha":833,"x_min":100,"x_max":733,"o":"m 433 -12 q 313 19 363 -12 q 219 117 263 50 l 219 0 l 104 0 l 104 588 q 100 763 104 667 l 211 763 l 215 639 q 443 785 296 785 q 602 731 536 785 q 700 587 667 676 q 733 394 733 498 q 702 190 733 282 q 603 43 671 98 q 433 -12 536 -12 m 408 88 q 525 131 479 88 q 592 241 571 173 q 613 388 613 308 q 594 532 613 464 q 533 644 576 600 q 422 688 490 688 q 307 644 353 688 q 240 531 261 600 q 219 383 219 462 q 238 240 219 307 q 298 131 256 174 q 408 88 340 88 z "},"Ā":{"ha":833,"x_min":63,"x_max":774,"o":"m 192 0 l 63 0 l 347 1007 l 486 1007 l 774 0 l 642 0 l 567 282 l 264 282 l 192 0 m 414 879 l 293 382 l 542 382 l 419 879 l 414 879 m 676 1138 l 161 1138 l 161 1250 l 676 1250 l 676 1138 z "},"Ꜵ":{"ha":833,"x_min":-7,"x_max":839,"o":"m 593 1021 q 725 959 669 1021 q 810 785 781 898 q 839 524 839 673 q 813 249 839 370 q 731 57 786 127 q 593 -14 676 -14 q 489 23 535 -14 l 493 0 l 390 0 l 340 286 l 142 286 l 94 0 l -7 0 l 163 1007 l 313 1007 l 363 727 q 448 943 388 865 q 593 1021 507 1021 m 590 104 q 676 157 640 104 q 731 304 712 210 q 750 517 750 398 q 729 718 750 627 q 671 863 708 810 q 592 915 635 915 q 513 863 549 915 q 457 719 477 810 q 436 517 436 628 q 454 304 436 397 q 507 157 472 210 q 590 104 542 104 m 233 843 l 161 388 l 324 388 l 244 843 l 233 843 z "},"Ą":{"ha":833,"x_min":63,"x_max":797,"o":"m 713 -167 q 756 -160 732 -167 q 797 -146 781 -153 l 797 -233 q 742 -249 773 -244 q 668 -254 711 -254 q 607 -239 640 -254 q 551 -199 574 -224 q 529 -143 529 -173 q 542 -85 529 -106 q 565 -53 554 -63 q 578 -42 576 -44 q 644 0 590 -29 l 642 0 l 567 282 l 264 282 l 192 0 l 63 0 l 347 1007 l 486 1007 l 774 0 l 766 0 q 753 -23 764 -13 q 725 -42 742 -33 q 718 -46 722 -44 q 713 -50 715 -48 q 695 -61 709 -53 q 673 -84 682 -70 q 664 -117 664 -99 q 677 -153 664 -140 q 713 -167 690 -167 m 414 879 l 293 382 l 542 382 l 419 879 l 414 879 z "},"Å":{"ha":833,"x_min":63,"x_max":774,"o":"m 192 0 l 63 0 l 347 1007 l 486 1007 l 774 0 l 642 0 l 567 282 l 264 282 l 192 0 m 414 879 l 293 382 l 542 382 l 419 879 l 414 879 m 417 1090 q 338 1109 373 1090 q 283 1161 303 1128 q 263 1235 263 1194 q 283 1309 263 1276 q 338 1363 303 1343 q 417 1382 373 1382 q 496 1363 460 1382 q 553 1309 532 1343 q 574 1235 574 1276 q 553 1161 574 1194 q 497 1109 533 1128 q 417 1090 460 1090 m 417 1154 q 474 1178 451 1154 q 497 1238 497 1202 q 474 1296 497 1273 q 417 1319 451 1319 q 362 1296 383 1319 q 340 1238 340 1273 q 362 1178 340 1202 q 417 1154 383 1154 z "},"Ǻ":{"ha":833,"x_min":63,"x_max":774,"o":"m 192 0 l 63 0 l 347 1007 l 486 1007 l 774 0 l 642 0 l 567 282 l 264 282 l 192 0 m 414 879 l 293 382 l 542 382 l 419 879 l 414 879 m 417 1090 q 338 1109 373 1090 q 283 1161 303 1128 q 263 1235 263 1194 q 283 1309 263 1276 q 338 1363 303 1343 q 417 1382 373 1382 q 496 1363 460 1382 q 553 1309 532 1343 q 574 1235 574 1276 q 553 1161 574 1194 q 497 1109 533 1128 q 417 1090 460 1090 m 417 1154 q 474 1178 451 1154 q 497 1238 497 1202 q 474 1296 497 1273 q 417 1319 451 1319 q 362 1296 383 1319 q 340 1238 340 1273 q 362 1178 340 1202 q 417 1154 383 1154 m 557 1781 l 376 1496 l 278 1496 l 400 1781 l 557 1781 z "},"Ḁ":{"ha":833,"x_min":63,"x_max":774,"o":"m 192 0 l 63 0 l 347 1007 l 486 1007 l 774 0 l 642 0 l 567 282 l 264 282 l 192 0 m 414 879 l 293 382 l 542 382 l 419 879 l 414 879 m 413 -356 q 334 -337 369 -356 q 278 -285 299 -318 q 258 -211 258 -252 q 278 -136 258 -170 q 334 -83 299 -103 q 413 -64 369 -64 q 492 -83 456 -64 q 549 -136 528 -103 q 569 -211 569 -170 q 549 -285 569 -252 q 492 -337 528 -318 q 413 -356 456 -356 m 413 -292 q 470 -268 447 -292 q 493 -208 493 -244 q 470 -150 493 -173 q 413 -126 447 -126 q 358 -150 379 -126 q 336 -208 336 -173 q 358 -268 336 -244 q 413 -292 379 -292 z "},"Ⱥ":{"ha":833,"x_min":63,"x_max":792,"o":"m 664 1142 l 792 1142 l 599 612 l 774 0 l 642 0 l 567 282 l 479 282 l 304 -199 l 176 -199 l 351 282 l 264 282 l 192 0 l 63 0 l 347 1007 l 486 1007 l 543 808 l 664 1142 m 414 879 l 293 382 l 388 382 l 480 635 l 419 879 l 414 879 m 515 382 l 542 382 l 531 425 l 515 382 z "},"Ã":{"ha":833,"x_min":63,"x_max":774,"o":"m 192 0 l 63 0 l 347 1007 l 486 1007 l 774 0 l 642 0 l 567 282 l 264 282 l 192 0 m 414 879 l 293 382 l 542 382 l 419 879 l 414 879 m 511 1111 q 458 1122 485 1111 q 393 1154 430 1133 q 346 1179 360 1174 q 317 1185 332 1185 q 275 1172 294 1185 q 228 1125 256 1159 l 168 1211 q 325 1294 235 1294 q 374 1286 353 1294 q 427 1260 394 1278 l 443 1251 q 491 1226 479 1231 q 521 1221 503 1221 q 550 1228 538 1221 q 588 1255 563 1235 l 613 1274 l 665 1197 q 593 1134 634 1156 q 511 1111 553 1111 z "},"Ɐ":{"ha":833,"x_min":60,"x_max":771,"o":"m 642 1007 l 771 1007 l 486 0 l 347 0 l 60 1007 l 192 1007 l 267 725 l 569 725 l 642 1007 m 419 128 l 540 625 l 292 625 l 414 128 l 419 128 z "},"Ꜷ":{"ha":833,"x_min":35,"x_max":781,"o":"m 588 -10 q 520 2 553 -10 q 469 32 488 15 l 475 0 l 403 0 l 356 290 l 167 290 l 121 0 l 35 0 l 216 1007 l 294 1007 l 393 517 l 393 1007 l 477 1007 l 477 426 q 486 219 477 290 q 519 118 495 149 q 592 88 543 88 q 657 122 635 88 q 689 228 680 156 q 697 426 697 300 l 697 1007 l 781 1007 l 781 401 q 764 177 781 267 q 706 39 748 88 q 588 -10 663 -10 m 261 800 l 183 390 l 339 390 l 261 800 z "},"Ꜹ":{"ha":833,"x_min":44,"x_max":767,"o":"m 135 0 l 44 0 l 244 1007 l 351 1007 l 521 132 l 685 1007 l 767 1007 l 564 0 l 451 0 l 399 286 l 186 286 l 135 0 m 292 879 l 206 386 l 381 386 l 296 879 l 292 879 z "},"Æ":{"ha":833,"x_min":51,"x_max":768,"o":"m 168 0 l 51 0 l 300 1007 l 750 1007 l 750 901 l 557 901 l 557 588 l 731 588 l 731 471 l 557 471 l 557 104 l 768 104 l 768 3 l 446 3 l 446 282 l 247 282 l 168 0 m 389 901 l 271 407 l 446 407 l 446 901 l 389 901 z "},"Ǽ":{"ha":833,"x_min":154,"x_max":682,"o":"m 563 1098 l 382 813 l 283 813 l 406 1098 l 563 1098 m 240 0 l 154 0 l 338 741 l 669 741 l 669 663 l 526 663 l 526 433 l 654 433 l 654 347 l 526 347 l 526 76 l 682 76 l 682 2 l 445 2 l 445 208 l 299 208 l 240 0 m 403 663 l 316 299 l 445 299 l 445 663 l 403 663 z "},"Ǣ":{"ha":833,"x_min":25,"x_max":772,"o":"m 646 1057 l 213 1057 l 213 1167 l 646 1167 l 646 1057 m 140 0 l 25 0 l 385 1007 l 760 1007 l 760 903 l 554 903 l 554 569 l 746 569 l 746 468 l 554 468 l 554 101 l 772 101 l 772 0 l 440 0 l 440 286 l 247 286 l 140 0 m 439 844 l 282 386 l 439 386 l 439 844 z "},"B":{"ha":833,"x_min":115,"x_max":750,"o":"m 115 0 l 115 1007 l 378 1007 q 578 947 500 1007 q 657 753 657 887 q 644 644 657 687 q 605 575 631 602 q 536 526 578 549 q 694 448 639 506 q 750 279 750 390 q 650 62 750 124 q 399 0 551 0 l 115 0 m 333 569 q 481 607 426 569 q 536 742 536 644 q 485 866 536 830 q 350 901 435 901 l 232 901 l 232 569 l 333 569 m 364 103 q 498 114 442 103 q 590 165 553 125 q 628 285 628 205 q 566 430 628 388 q 400 471 504 471 l 232 471 l 232 103 l 364 103 z "},"Ｂ":{"ha":833,"x_min":115,"x_max":750,"o":"m 115 0 l 115 1007 l 378 1007 q 578 947 500 1007 q 657 753 657 887 q 644 644 657 687 q 605 575 631 602 q 536 526 578 549 q 694 448 639 506 q 750 279 750 390 q 650 62 750 124 q 399 0 551 0 l 115 0 m 333 569 q 481 607 426 569 q 536 742 536 644 q 485 866 536 830 q 350 901 435 901 l 232 901 l 232 569 l 333 569 m 364 103 q 498 114 442 103 q 590 165 553 125 q 628 285 628 205 q 566 430 628 388 q 400 471 504 471 l 232 471 l 232 103 l 364 103 z "},"Ḃ":{"ha":833,"x_min":115,"x_max":750,"o":"m 115 0 l 115 1007 l 378 1007 q 578 947 500 1007 q 657 753 657 887 q 644 644 657 687 q 605 575 631 602 q 536 526 578 549 q 694 448 639 506 q 750 279 750 390 q 650 62 750 124 q 399 0 551 0 l 115 0 m 333 569 q 481 607 426 569 q 536 742 536 644 q 485 866 536 830 q 350 901 435 901 l 232 901 l 232 569 l 333 569 m 364 103 q 498 114 442 103 q 590 165 553 125 q 628 285 628 205 q 566 430 628 388 q 400 471 504 471 l 232 471 l 232 103 l 364 103 m 408 1100 q 343 1124 367 1100 q 319 1190 319 1149 q 343 1256 319 1232 q 408 1279 367 1279 q 474 1256 450 1279 q 497 1190 497 1232 q 474 1124 497 1149 q 408 1100 450 1100 z "},"Ḅ":{"ha":833,"x_min":115,"x_max":750,"o":"m 115 0 l 115 1007 l 378 1007 q 578 947 500 1007 q 657 753 657 887 q 644 644 657 687 q 605 575 631 602 q 536 526 578 549 q 694 448 639 506 q 750 279 750 390 q 650 62 750 124 q 399 0 551 0 l 115 0 m 333 569 q 481 607 426 569 q 536 742 536 644 q 485 866 536 830 q 350 901 435 901 l 232 901 l 232 569 l 333 569 m 364 103 q 498 114 442 103 q 590 165 553 125 q 628 285 628 205 q 566 430 628 388 q 400 471 504 471 l 232 471 l 232 103 l 364 103 m 409 -196 q 353 -175 374 -196 q 333 -119 333 -155 q 353 -64 333 -85 q 409 -44 374 -44 q 464 -64 444 -44 q 485 -119 485 -85 q 464 -175 485 -155 q 409 -196 444 -196 z "},"Ɓ":{"ha":833,"x_min":-108,"x_max":785,"o":"m 571 526 q 729 448 674 506 q 785 279 785 390 q 685 62 785 124 q 433 0 585 0 l 150 0 l 150 908 l 74 908 q 24 874 40 908 q 8 768 8 840 l -108 768 q -91 901 -108 849 q -33 980 -74 953 q 78 1007 8 1007 l 413 1007 q 613 947 535 1007 q 692 753 692 887 q 678 644 692 687 q 639 575 665 602 q 571 526 613 549 m 267 901 l 267 569 l 368 569 q 516 607 461 569 q 571 742 571 644 q 520 866 571 830 q 385 901 469 901 l 267 901 m 399 103 q 532 114 477 103 q 625 165 588 125 q 663 285 663 205 q 601 430 663 388 q 435 471 539 471 l 267 471 l 267 103 l 399 103 z "},"Ḇ":{"ha":833,"x_min":115,"x_max":750,"o":"m 115 0 l 115 1007 l 378 1007 q 578 947 500 1007 q 657 753 657 887 q 644 644 657 687 q 605 575 631 602 q 536 526 578 549 q 694 448 639 506 q 750 279 750 390 q 650 62 750 124 q 399 0 551 0 l 115 0 m 333 569 q 481 607 426 569 q 536 742 536 644 q 485 866 536 830 q 350 901 435 901 l 232 901 l 232 569 l 333 569 m 364 103 q 498 114 442 103 q 590 165 553 125 q 628 285 628 205 q 566 430 628 388 q 400 471 504 471 l 232 471 l 232 103 l 364 103 m 665 -190 l 150 -190 l 150 -78 l 665 -78 l 665 -190 z "},"Ƀ":{"ha":833,"x_min":54,"x_max":750,"o":"m 536 526 q 694 448 639 506 q 750 279 750 390 q 650 62 750 124 q 399 0 551 0 l 115 0 l 115 241 l 54 241 l 54 358 l 115 358 l 115 1007 l 378 1007 q 578 947 500 1007 q 657 753 657 887 q 644 644 657 687 q 605 575 631 602 q 536 526 578 549 m 232 901 l 232 569 l 333 569 q 481 607 426 569 q 536 742 536 644 q 485 866 536 830 q 350 901 435 901 l 232 901 m 364 103 q 498 114 442 103 q 590 165 553 125 q 628 285 628 205 q 566 430 628 388 q 400 471 504 471 l 232 471 l 232 358 l 319 358 l 319 241 l 232 241 l 232 103 l 364 103 z "},"Ƃ":{"ha":833,"x_min":115,"x_max":742,"o":"m 115 0 l 115 969 l 663 969 l 663 868 l 232 868 l 232 581 l 471 581 q 672 506 601 581 q 742 290 742 431 q 672 75 742 150 q 471 0 601 0 l 115 0 m 468 101 q 579 139 540 101 q 618 254 618 177 l 618 326 q 579 441 618 403 q 468 479 540 479 l 232 479 l 232 101 l 468 101 z "},"C":{"ha":833,"x_min":93,"x_max":747,"o":"m 458 -25 q 184 105 275 -25 q 93 489 93 235 q 137 778 93 660 q 264 958 181 897 q 468 1019 348 1019 q 633 988 558 1019 q 747 886 708 957 l 671 829 q 572 901 620 883 q 464 919 524 919 q 280 809 335 919 q 224 496 224 699 q 245 272 224 363 q 318 131 267 181 q 460 81 370 81 q 583 105 531 81 q 672 186 635 129 l 747 118 q 628 10 703 45 q 458 -25 553 -25 z "},"Ｃ":{"ha":833,"x_min":93,"x_max":747,"o":"m 458 -25 q 184 105 275 -25 q 93 489 93 235 q 137 778 93 660 q 264 958 181 897 q 468 1019 348 1019 q 633 988 558 1019 q 747 886 708 957 l 671 829 q 572 901 620 883 q 464 919 524 919 q 280 809 335 919 q 224 496 224 699 q 245 272 224 363 q 318 131 267 181 q 460 81 370 81 q 583 105 531 81 q 672 186 635 129 l 747 118 q 628 10 703 45 q 458 -25 553 -25 z "},"Ć":{"ha":833,"x_min":93,"x_max":747,"o":"m 458 -25 q 184 105 275 -25 q 93 489 93 235 q 137 778 93 660 q 264 958 181 897 q 468 1019 348 1019 q 633 988 558 1019 q 747 886 708 957 l 671 829 q 572 901 620 883 q 464 919 524 919 q 280 809 335 919 q 224 496 224 699 q 245 272 224 363 q 318 131 267 181 q 460 81 370 81 q 583 105 531 81 q 672 186 635 129 l 747 118 q 628 10 703 45 q 458 -25 553 -25 m 556 1364 l 375 1079 l 276 1079 l 399 1364 l 556 1364 z "},"Ꞓ":{"ha":833,"x_min":50,"x_max":747,"o":"m 460 81 q 583 105 531 81 q 672 186 635 129 l 747 118 q 628 10 703 45 q 458 -25 553 -25 q 188 100 279 -25 q 93 468 97 224 l 50 468 l 50 607 l 99 607 q 215 914 120 808 q 468 1019 310 1019 q 633 988 558 1019 q 747 886 708 957 l 671 829 q 572 901 620 883 q 464 919 524 919 q 298 839 355 919 q 228 607 242 758 l 295 607 l 295 468 l 224 468 q 280 180 227 278 q 460 81 333 81 z "},"Č":{"ha":833,"x_min":93,"x_max":747,"o":"m 458 -25 q 184 105 275 -25 q 93 489 93 235 q 137 778 93 660 q 264 958 181 897 q 468 1019 348 1019 q 633 988 558 1019 q 747 886 708 957 l 671 829 q 572 901 620 883 q 464 919 524 919 q 280 809 335 919 q 224 496 224 699 q 245 272 224 363 q 318 131 267 181 q 460 81 370 81 q 583 105 531 81 q 672 186 635 129 l 747 118 q 628 10 703 45 q 458 -25 553 -25 m 517 1129 l 386 1129 l 251 1333 l 335 1333 l 451 1210 l 568 1333 l 651 1333 l 517 1129 z "},"Ç":{"ha":833,"x_min":89,"x_max":743,"o":"m 456 81 q 579 105 527 81 q 668 186 631 129 l 743 118 q 634 15 702 50 q 481 -24 566 -20 l 463 -72 l 479 -72 q 558 -93 529 -72 q 588 -165 588 -113 q 566 -228 588 -203 q 510 -265 544 -253 q 443 -276 477 -276 q 367 -267 408 -276 q 290 -243 326 -258 l 311 -189 q 435 -222 380 -222 q 483 -211 464 -222 q 501 -176 501 -200 q 486 -142 501 -151 q 442 -132 470 -132 l 388 -132 l 388 -96 l 417 -24 q 171 119 253 -10 q 89 489 89 249 q 133 778 89 660 q 260 958 176 897 q 464 1019 344 1019 q 629 988 554 1019 q 743 886 703 957 l 667 829 q 568 901 616 883 q 460 919 520 919 q 275 809 331 919 q 219 496 219 699 q 241 272 219 363 q 314 131 263 181 q 456 81 366 81 z "},"Ḉ":{"ha":833,"x_min":93,"x_max":747,"o":"m 399 1364 l 556 1364 l 375 1079 l 276 1079 l 399 1364 m 460 81 q 583 105 531 81 q 672 186 635 129 l 747 118 q 628 10 703 45 q 458 -25 553 -25 l 443 -25 l 424 -79 l 440 -79 q 560 -171 560 -79 q 516 -249 560 -226 q 415 -272 473 -272 q 272 -240 347 -272 l 272 -189 q 341 -215 305 -205 q 407 -225 376 -225 q 476 -176 476 -225 q 461 -139 476 -148 q 413 -129 447 -129 l 354 -129 l 354 -79 l 378 -18 q 164 137 235 9 q 93 489 93 265 q 137 778 93 660 q 264 958 181 897 q 468 1019 348 1019 q 633 988 558 1019 q 747 886 708 957 l 671 829 q 572 901 620 883 q 464 919 524 919 q 280 809 335 919 q 224 496 224 699 q 245 272 224 363 q 318 131 267 181 q 460 81 370 81 z "},"Ĉ":{"ha":833,"x_min":93,"x_max":747,"o":"m 458 -25 q 184 105 275 -25 q 93 489 93 235 q 137 778 93 660 q 264 958 181 897 q 468 1019 348 1019 q 633 988 558 1019 q 747 886 708 957 l 671 829 q 572 901 620 883 q 464 919 524 919 q 280 809 335 919 q 224 496 224 699 q 245 272 224 363 q 318 131 267 181 q 460 81 370 81 q 583 105 531 81 q 672 186 635 129 l 747 118 q 628 10 703 45 q 458 -25 553 -25 m 244 1110 l 113 1110 l 338 1364 l 497 1364 l 721 1110 l 590 1110 l 417 1292 l 244 1110 z "},"Ċ":{"ha":833,"x_min":93,"x_max":747,"o":"m 458 -25 q 184 105 275 -25 q 93 489 93 235 q 137 778 93 660 q 264 958 181 897 q 468 1019 348 1019 q 633 988 558 1019 q 747 886 708 957 l 671 829 q 572 901 620 883 q 464 919 524 919 q 280 809 335 919 q 224 496 224 699 q 245 272 224 363 q 318 131 267 181 q 460 81 370 81 q 583 105 531 81 q 672 186 635 129 l 747 118 q 628 10 703 45 q 458 -25 553 -25 m 415 1149 q 350 1173 374 1149 q 326 1239 326 1197 q 350 1304 326 1281 q 415 1328 374 1328 q 481 1304 457 1328 q 504 1239 504 1281 q 481 1173 504 1197 q 415 1149 457 1149 z "},"Ꭓ":{"ha":833,"x_min":81,"x_max":814,"o":"m 498 387 l 775 -81 l 814 -81 l 814 -197 l 696 -197 l 426 267 l 169 -160 l 96 -106 l 369 365 l 133 772 l 81 772 l 81 890 l 199 890 l 439 485 l 672 886 l 765 832 l 498 387 z "},"Ƈ":{"ha":833,"x_min":93,"x_max":747,"o":"m 458 -25 q 184 105 275 -25 q 93 489 93 235 q 137 778 93 660 q 264 958 181 897 q 468 1019 348 1019 q 633 988 558 1019 q 747 886 708 957 l 671 829 q 572 901 620 883 q 464 919 524 919 q 280 809 335 919 q 224 496 224 699 q 245 272 224 363 q 318 131 267 181 q 460 81 370 81 q 583 105 531 81 q 672 186 635 129 l 747 118 q 628 10 703 45 q 458 -25 553 -25 z "},"Ꝯ":{"ha":833,"x_min":113,"x_max":750,"o":"m 376 0 q 265 26 321 0 q 173 97 209 52 q 136 196 136 142 l 250 196 q 269 149 250 169 q 318 118 288 128 q 379 107 348 107 q 525 166 467 107 q 610 316 583 224 q 638 511 638 408 l 636 543 q 601 755 634 672 q 517 875 568 838 q 407 913 465 913 q 315 884 354 913 q 253 808 275 856 q 232 700 232 759 q 255 598 232 643 q 318 528 277 553 q 414 503 360 503 q 518 536 474 503 q 567 485 567 506 q 551 464 567 473 q 470 424 511 438 q 383 410 428 410 q 241 449 302 410 q 146 555 179 488 q 113 704 113 622 q 151 857 113 788 q 256 967 189 926 q 407 1007 323 1007 q 533 981 474 1007 q 638 905 592 954 q 708 788 683 856 q 750 519 750 681 q 700 236 750 353 q 564 59 649 119 q 376 0 479 0 z "},"Ꜿ":{"ha":833,"x_min":86,"x_max":740,"o":"m 375 -25 q 205 10 281 -25 q 86 118 130 45 l 161 186 q 250 105 198 129 q 374 81 302 81 q 515 131 463 81 q 588 272 567 181 q 610 496 610 363 q 554 809 610 699 q 369 919 498 919 q 261 901 309 919 q 163 829 213 883 l 86 886 q 200 988 126 957 q 365 1019 275 1019 q 569 958 485 1019 q 697 778 653 897 q 740 489 740 660 q 649 105 740 235 q 375 -25 558 -25 m 361 397 q 296 422 319 397 q 272 488 272 446 q 296 553 272 529 q 361 576 319 576 q 426 553 403 576 q 450 488 450 529 q 426 422 450 446 q 361 397 403 397 z "},"Ȼ":{"ha":833,"x_min":81,"x_max":753,"o":"m 465 81 q 589 105 537 81 q 678 186 641 129 l 753 118 q 634 10 709 45 q 464 -25 558 -25 q 287 17 361 -25 l 208 -199 l 81 -199 l 190 103 q 99 489 99 234 q 142 778 99 660 q 270 958 186 897 q 474 1019 353 1019 q 523 1017 498 1019 l 568 1142 l 696 1142 l 640 988 q 753 886 715 954 l 676 829 q 604 889 643 865 l 327 128 q 465 81 380 81 m 229 496 q 251 270 229 358 l 487 919 l 469 919 q 285 809 341 919 q 229 496 229 699 z "},"Ꜭ":{"ha":833,"x_min":47,"x_max":786,"o":"m 347 -83 q 147 -10 215 -83 q 78 196 78 63 l 183 196 q 227 64 183 112 q 350 17 272 17 q 421 41 392 17 q 465 102 450 65 q 479 179 479 140 l 479 342 l 47 342 l 47 461 l 453 1004 l 639 1004 l 639 438 l 786 438 l 786 342 l 639 342 l 639 175 q 599 41 639 100 q 492 -51 559 -18 q 347 -83 425 -83 m 481 879 l 146 438 l 481 438 l 481 879 z "},"Ꜯ":{"ha":833,"x_min":15,"x_max":822,"o":"m 315 -83 q 115 -10 183 -83 q 46 196 46 63 l 151 196 q 195 64 151 112 q 318 17 240 17 q 389 41 360 17 q 433 102 418 65 q 447 179 447 140 l 447 342 l 15 342 l 15 461 l 421 1004 l 607 1004 l 607 438 l 754 438 l 754 342 l 607 342 l 607 175 q 567 41 607 100 q 460 -51 527 -18 q 315 -83 393 -83 m 449 879 l 114 438 l 449 438 l 449 879 m 661 -103 q 702 -93 682 -100 q 728 -81 722 -86 q 735 -75 729 -80 q 745 -63 742 -71 q 749 -45 749 -56 q 744 -22 749 -32 q 726 -3 739 -12 q 708 8 724 -2 q 683 34 692 18 q 674 69 674 49 q 689 126 674 110 q 746 142 704 142 q 805 125 788 142 q 822 67 822 108 q 819 7 822 32 q 810 -39 817 -19 q 796 -75 803 -61 q 778 -100 789 -89 q 719 -134 760 -118 q 687 -142 705 -139 q 661 -145 669 -145 l 661 -103 z "},"D":{"ha":833,"x_min":119,"x_max":756,"o":"m 119 0 l 119 1007 l 306 1007 q 560 959 462 1007 q 707 802 658 911 q 756 510 756 694 q 710 217 756 328 q 564 53 665 106 q 294 0 463 0 l 119 0 m 304 101 q 490 138 420 101 q 595 264 560 175 q 629 510 629 353 q 597 738 629 651 q 496 864 564 824 q 318 904 428 904 l 242 904 l 242 101 l 304 101 z "},"Ｄ":{"ha":833,"x_min":119,"x_max":756,"o":"m 119 0 l 119 1007 l 306 1007 q 560 959 462 1007 q 707 802 658 911 q 756 510 756 694 q 710 217 756 328 q 564 53 665 106 q 294 0 463 0 l 119 0 m 304 101 q 490 138 420 101 q 595 264 560 175 q 629 510 629 353 q 597 738 629 651 q 496 864 564 824 q 318 904 428 904 l 242 904 l 242 101 l 304 101 z "},"Ǳ":{"ha":833,"x_min":96,"x_max":731,"o":"m 96 -15 l 96 1021 l 224 1021 q 288 1013 264 1021 q 329 991 313 1006 q 371 944 345 976 q 433 693 433 869 l 433 313 q 418 166 433 229 q 372 63 402 102 q 332 17 349 32 q 290 -7 315 1 q 224 -15 265 -15 l 96 -15 m 465 -15 l 610 903 l 471 903 l 471 1021 l 726 1021 l 726 913 q 673 563 726 906 q 601 101 611 167 l 731 101 l 731 -15 l 465 -15 m 244 104 q 272 114 259 106 q 299 139 285 122 q 324 283 324 174 l 324 722 q 299 867 324 829 q 244 901 276 901 l 218 901 l 218 103 l 244 104 z "},"Ǆ":{"ha":833,"x_min":131,"x_max":846,"o":"m 711 1039 l 581 1039 l 446 1243 l 529 1243 l 646 1119 l 763 1243 l 846 1243 l 711 1039 m 131 -15 l 131 1021 l 258 1021 q 323 1013 299 1021 q 364 991 347 1006 q 406 944 380 976 q 468 693 468 869 l 468 313 q 452 166 468 229 q 407 63 437 102 q 366 17 383 32 q 324 -7 349 1 q 258 -15 299 -15 l 131 -15 m 500 -15 l 644 903 l 506 903 l 506 1021 l 761 1021 l 761 913 q 708 563 761 906 q 636 101 646 167 l 765 101 l 765 -15 l 500 -15 m 279 104 q 307 114 294 106 q 333 139 320 122 q 358 283 358 174 l 358 722 q 333 867 358 829 q 279 901 310 901 l 253 901 l 253 103 l 279 104 z "},"Ɖ":{"ha":833,"x_min":10,"x_max":756,"o":"m 306 1007 q 560 959 462 1007 q 707 802 658 911 q 756 510 756 694 q 710 217 756 328 q 564 53 665 106 q 294 0 463 0 l 119 0 l 119 467 l 10 467 l 10 583 l 119 583 l 119 1007 l 306 1007 m 304 101 q 490 138 420 101 q 595 264 560 175 q 629 510 629 353 q 597 738 629 651 q 496 864 564 824 q 318 904 428 904 l 242 904 l 242 583 l 354 583 l 354 467 l 242 467 l 242 101 l 304 101 z "},"Ð":{"ha":833,"x_min":10,"x_max":756,"o":"m 306 1007 q 560 959 462 1007 q 707 802 658 911 q 756 510 756 694 q 710 217 756 328 q 564 53 665 106 q 294 0 463 0 l 119 0 l 119 467 l 10 467 l 10 583 l 119 583 l 119 1007 l 306 1007 m 304 101 q 490 138 420 101 q 595 264 560 175 q 629 510 629 353 q 597 738 629 651 q 496 864 564 824 q 318 904 428 904 l 242 904 l 242 583 l 354 583 l 354 467 l 242 467 l 242 101 l 304 101 z "},"Ď":{"ha":833,"x_min":119,"x_max":756,"o":"m 119 0 l 119 1007 l 306 1007 q 560 959 462 1007 q 707 802 658 911 q 756 510 756 694 q 710 217 756 328 q 564 53 665 106 q 294 0 463 0 l 119 0 m 304 101 q 490 138 420 101 q 595 264 560 175 q 629 510 629 353 q 597 738 629 651 q 496 864 564 824 q 318 904 428 904 l 242 904 l 242 101 l 304 101 m 517 1094 l 386 1094 l 251 1299 l 335 1299 l 451 1175 l 568 1299 l 651 1299 l 517 1094 z "},"Ḑ":{"ha":833,"x_min":119,"x_max":756,"o":"m 119 0 l 119 1007 l 306 1007 q 560 959 462 1007 q 707 802 658 911 q 756 510 756 694 q 710 217 756 328 q 564 53 665 106 q 294 0 463 0 l 119 0 m 304 101 q 490 138 420 101 q 595 264 560 175 q 629 510 629 353 q 597 738 629 651 q 496 864 564 824 q 318 904 428 904 l 242 904 l 242 101 l 304 101 m 337 -289 q 376 -280 357 -287 q 402 -268 396 -274 q 419 -253 413 -260 q 424 -233 424 -247 q 419 -209 424 -219 q 400 -191 413 -199 q 374 -173 383 -180 q 357 -152 365 -165 q 349 -119 349 -138 q 355 -76 349 -92 q 376 -54 361 -61 q 420 -47 392 -47 q 479 -64 463 -47 q 495 -122 495 -81 q 485 -226 495 -192 q 470 -262 477 -249 q 452 -287 463 -276 q 394 -320 433 -306 q 361 -328 379 -325 q 337 -332 344 -332 l 337 -289 z "},"Ḓ":{"ha":833,"x_min":119,"x_max":756,"o":"m 119 0 l 119 1007 l 306 1007 q 560 959 462 1007 q 707 802 658 911 q 756 510 756 694 q 710 217 756 328 q 564 53 665 106 q 294 0 463 0 l 119 0 m 304 101 q 490 138 420 101 q 595 264 560 175 q 629 510 629 353 q 597 738 629 651 q 496 864 564 824 q 318 904 428 904 l 242 904 l 242 101 l 304 101 m 301 -260 l 218 -260 l 356 -65 l 481 -65 l 615 -260 l 532 -260 l 417 -122 l 301 -260 z "},"Đ":{"ha":833,"x_min":10,"x_max":756,"o":"m 306 1007 q 560 959 462 1007 q 707 802 658 911 q 756 510 756 694 q 710 217 756 328 q 564 53 665 106 q 294 0 463 0 l 119 0 l 119 467 l 10 467 l 10 583 l 119 583 l 119 1007 l 306 1007 m 304 101 q 490 138 420 101 q 595 264 560 175 q 629 510 629 353 q 597 738 629 651 q 496 864 564 824 q 318 904 428 904 l 242 904 l 242 583 l 354 583 l 354 467 l 242 467 l 242 101 l 304 101 z "},"Ḋ":{"ha":833,"x_min":119,"x_max":756,"o":"m 119 0 l 119 1007 l 306 1007 q 560 959 462 1007 q 707 802 658 911 q 756 510 756 694 q 710 217 756 328 q 564 53 665 106 q 294 0 463 0 l 119 0 m 304 101 q 490 138 420 101 q 595 264 560 175 q 629 510 629 353 q 597 738 629 651 q 496 864 564 824 q 318 904 428 904 l 242 904 l 242 101 l 304 101 m 417 1100 q 351 1124 375 1100 q 328 1190 328 1149 q 351 1256 328 1232 q 417 1279 375 1279 q 482 1256 458 1279 q 506 1190 506 1232 q 482 1124 506 1149 q 417 1100 458 1100 z "},"Ḍ":{"ha":833,"x_min":119,"x_max":756,"o":"m 119 0 l 119 1007 l 306 1007 q 560 959 462 1007 q 707 802 658 911 q 756 510 756 694 q 710 217 756 328 q 564 53 665 106 q 294 0 463 0 l 119 0 m 304 101 q 490 138 420 101 q 595 264 560 175 q 629 510 629 353 q 597 738 629 651 q 496 864 564 824 q 318 904 428 904 l 242 904 l 242 101 l 304 101 m 419 -197 q 365 -177 385 -197 q 345 -122 345 -157 q 365 -68 345 -87 q 419 -48 385 -48 q 474 -68 454 -48 q 494 -122 494 -88 q 474 -177 494 -157 q 419 -197 454 -197 z "},"Ɗ":{"ha":833,"x_min":-108,"x_max":790,"o":"m 340 1007 q 595 959 497 1007 q 742 802 693 911 q 790 510 790 694 q 745 217 790 328 q 599 53 699 106 q 329 0 498 0 l 154 0 l 154 908 l 74 908 q 24 874 40 908 q 8 768 8 840 l -108 768 q -91 901 -108 849 q -33 980 -74 953 q 78 1007 8 1007 l 340 1007 m 339 101 q 525 138 455 101 q 630 264 595 175 q 664 510 664 353 q 631 738 664 651 q 531 864 599 824 q 353 904 463 904 l 276 904 l 276 101 l 339 101 z "},"Ꝺ":{"ha":833,"x_min":64,"x_max":769,"o":"m 431 861 q 602 798 524 857 q 725 640 680 738 q 769 424 769 541 q 723 203 769 303 q 595 44 676 103 q 417 -14 514 -14 q 239 44 319 -14 q 111 203 158 103 q 64 424 64 303 q 111 645 64 544 q 240 803 159 747 q 119 952 163 858 q 75 1164 75 1047 l 179 1164 q 208 1010 179 1078 q 288 903 236 942 q 407 861 340 864 l 417 861 l 427 861 l 431 861 m 417 103 q 534 146 480 103 q 620 263 588 190 q 651 424 651 337 q 620 584 651 510 q 534 701 588 658 q 417 744 480 744 q 299 701 353 744 q 214 584 245 658 q 182 424 182 510 q 214 263 182 337 q 299 146 245 190 q 417 103 353 103 z "},"Ḏ":{"ha":833,"x_min":119,"x_max":756,"o":"m 119 0 l 119 1007 l 306 1007 q 560 959 462 1007 q 707 802 658 911 q 756 510 756 694 q 710 217 756 328 q 564 53 665 106 q 294 0 463 0 l 119 0 m 304 101 q 490 138 420 101 q 595 264 560 175 q 629 510 629 353 q 597 738 629 651 q 496 864 564 824 q 318 904 428 904 l 242 904 l 242 101 l 304 101 m 674 -190 l 158 -190 l 158 -78 l 674 -78 l 674 -190 z "},"Ƌ":{"ha":833,"x_min":65,"x_max":721,"o":"m 389 -15 q 221 22 294 -15 q 106 128 147 60 q 65 288 65 197 q 104 444 65 376 q 213 551 143 513 q 372 589 283 589 l 501 588 q 579 588 528 588 l 579 907 l 186 907 l 186 1007 l 721 1007 q 720 250 721 401 l 720 87 q 721 -15 720 -2 l 389 -15 m 589 81 l 589 485 q 492 486 560 485 q 390 488 422 488 q 280 459 324 488 q 217 385 237 431 q 197 285 197 339 q 219 181 197 227 q 289 108 242 135 q 406 81 335 81 l 589 81 z "},"ǲ":{"ha":833,"x_min":75,"x_max":735,"o":"m 75 -6 l 75 1007 l 194 1007 q 281 988 235 1007 q 356 933 327 968 q 415 688 415 861 l 415 313 q 356 68 415 145 q 283 14 328 33 q 194 -6 237 -6 l 75 -6 m 215 94 q 278 133 253 97 q 304 283 304 172 l 304 717 q 278 867 304 828 q 215 907 249 909 l 179 906 l 179 93 l 215 94 m 617 604 l 465 604 l 465 697 l 724 697 l 724 626 q 671 413 724 605 q 576 93 618 222 l 735 93 l 735 0 l 461 0 l 617 604 z "},"ǅ":{"ha":833,"x_min":110,"x_max":864,"o":"m 110 -6 l 110 1007 l 229 1007 q 316 988 270 1007 q 390 933 362 968 q 450 688 450 861 l 450 313 q 390 68 450 145 q 317 14 363 33 q 229 -6 272 -6 l 110 -6 m 250 94 q 313 133 288 97 q 339 283 339 172 l 339 717 q 313 867 339 828 q 250 907 283 909 l 214 906 l 214 93 l 250 94 m 651 604 l 500 604 l 500 697 l 758 697 l 758 626 q 706 413 758 605 q 611 93 653 222 l 769 93 l 769 0 l 496 0 l 651 604 m 729 817 l 599 817 l 464 1021 l 547 1021 l 664 897 l 781 1021 l 864 1021 l 729 817 z "},"E":{"ha":833,"x_min":122,"x_max":722,"o":"m 722 0 l 122 0 l 122 1007 l 704 1007 l 704 903 l 244 903 l 244 575 l 685 575 l 685 474 l 244 474 l 244 101 l 722 101 l 722 0 z "},"Ｅ":{"ha":833,"x_min":122,"x_max":722,"o":"m 722 0 l 122 0 l 122 1007 l 704 1007 l 704 903 l 244 903 l 244 575 l 685 575 l 685 474 l 244 474 l 244 101 l 722 101 l 722 0 z "},"É":{"ha":833,"x_min":122,"x_max":722,"o":"m 722 0 l 122 0 l 122 1007 l 704 1007 l 704 903 l 244 903 l 244 575 l 685 575 l 685 474 l 244 474 l 244 101 l 722 101 l 722 0 m 556 1364 l 375 1079 l 276 1079 l 399 1364 l 556 1364 z "},"Ĕ":{"ha":833,"x_min":122,"x_max":722,"o":"m 722 0 l 122 0 l 122 1007 l 704 1007 l 704 903 l 244 903 l 244 575 l 685 575 l 685 474 l 244 474 l 244 101 l 722 101 l 722 0 m 415 1072 q 303 1091 353 1072 q 225 1149 253 1110 q 196 1246 196 1188 l 288 1246 q 308 1193 288 1215 q 359 1161 328 1172 q 418 1150 389 1150 q 481 1160 450 1150 q 531 1193 511 1171 q 551 1246 551 1215 l 639 1246 q 609 1149 639 1188 q 528 1091 579 1110 q 415 1072 478 1072 z "},"Ě":{"ha":833,"x_min":122,"x_max":722,"o":"m 722 0 l 122 0 l 122 1007 l 704 1007 l 704 903 l 244 903 l 244 575 l 685 575 l 685 474 l 244 474 l 244 101 l 722 101 l 722 0 m 517 1129 l 386 1129 l 251 1333 l 335 1333 l 451 1210 l 568 1333 l 651 1333 l 517 1129 z "},"Ȩ":{"ha":833,"x_min":122,"x_max":722,"o":"m 722 0 l 452 0 l 424 -79 l 440 -79 q 560 -171 560 -79 q 516 -249 560 -226 q 415 -272 473 -272 q 272 -240 347 -272 l 272 -189 q 341 -215 305 -205 q 407 -225 376 -225 q 476 -176 476 -225 q 461 -139 476 -148 q 413 -129 447 -129 l 354 -129 l 354 -79 l 385 0 l 122 0 l 122 1007 l 704 1007 l 704 903 l 244 903 l 244 575 l 685 575 l 685 474 l 244 474 l 244 101 l 722 101 l 722 0 z "},"Ḝ":{"ha":833,"x_min":122,"x_max":722,"o":"m 415 1072 q 303 1091 353 1072 q 225 1149 253 1110 q 196 1246 196 1188 l 288 1246 q 308 1193 288 1215 q 359 1161 328 1172 q 418 1150 389 1150 q 481 1160 450 1150 q 531 1193 511 1171 q 551 1246 551 1215 l 639 1246 q 609 1149 639 1188 q 528 1091 579 1110 q 415 1072 478 1072 m 722 0 l 452 0 l 424 -79 l 440 -79 q 560 -171 560 -79 q 516 -249 560 -226 q 415 -272 473 -272 q 272 -240 347 -272 l 272 -189 q 341 -215 305 -205 q 407 -225 376 -225 q 476 -176 476 -225 q 461 -139 476 -148 q 413 -129 447 -129 l 354 -129 l 354 -79 l 385 0 l 122 0 l 122 1007 l 704 1007 l 704 903 l 244 903 l 244 575 l 685 575 l 685 474 l 244 474 l 244 101 l 722 101 l 722 0 z "},"Ê":{"ha":833,"x_min":113,"x_max":722,"o":"m 722 0 l 122 0 l 122 1007 l 704 1007 l 704 903 l 244 903 l 244 575 l 685 575 l 685 474 l 244 474 l 244 101 l 722 101 l 722 0 m 244 1110 l 113 1110 l 338 1364 l 497 1364 l 721 1110 l 590 1110 l 417 1292 l 244 1110 z "},"Ế":{"ha":833,"x_min":113,"x_max":722,"o":"m 722 0 l 122 0 l 122 1007 l 704 1007 l 704 903 l 244 903 l 244 575 l 685 575 l 685 474 l 244 474 l 244 101 l 722 101 l 722 0 m 244 1029 l 113 1029 l 338 1283 l 497 1283 l 721 1029 l 590 1029 l 417 1211 l 244 1029 m 553 1625 l 372 1340 l 274 1340 l 396 1625 l 553 1625 z "},"Ḙ":{"ha":833,"x_min":122,"x_max":722,"o":"m 722 0 l 122 0 l 122 1007 l 704 1007 l 704 903 l 244 903 l 244 575 l 685 575 l 685 474 l 244 474 l 244 101 l 722 101 l 722 0 m 301 -260 l 218 -260 l 356 -65 l 481 -65 l 615 -260 l 532 -260 l 417 -122 l 301 -260 z "},"Ệ":{"ha":833,"x_min":113,"x_max":722,"o":"m 722 0 l 122 0 l 122 1007 l 704 1007 l 704 903 l 244 903 l 244 575 l 685 575 l 685 474 l 244 474 l 244 101 l 722 101 l 722 0 m 417 -196 q 361 -175 382 -196 q 341 -119 341 -155 q 361 -64 341 -85 q 417 -44 382 -44 q 473 -64 452 -44 q 493 -119 493 -85 q 473 -175 493 -155 q 417 -196 452 -196 m 244 1110 l 113 1110 l 338 1364 l 497 1364 l 721 1110 l 590 1110 l 417 1292 l 244 1110 z "},"Ề":{"ha":833,"x_min":113,"x_max":722,"o":"m 722 0 l 122 0 l 122 1007 l 704 1007 l 704 903 l 244 903 l 244 575 l 685 575 l 685 474 l 244 474 l 244 101 l 722 101 l 722 0 m 244 1061 l 113 1061 l 338 1315 l 497 1315 l 721 1061 l 590 1061 l 417 1243 l 244 1061 m 556 1346 l 453 1346 l 263 1631 l 426 1631 l 556 1346 z "},"Ể":{"ha":833,"x_min":113,"x_max":722,"o":"m 722 0 l 122 0 l 122 1007 l 704 1007 l 704 903 l 244 903 l 244 575 l 685 575 l 685 474 l 244 474 l 244 101 l 722 101 l 722 0 m 244 1110 l 113 1110 l 338 1364 l 497 1364 l 721 1110 l 590 1110 l 417 1292 l 244 1110 m 389 1499 q 433 1518 415 1501 q 451 1556 451 1535 q 438 1589 451 1576 q 404 1603 424 1603 q 368 1599 380 1603 q 331 1583 356 1596 l 331 1647 q 366 1662 349 1658 q 407 1667 383 1667 q 454 1656 428 1667 q 500 1623 481 1645 q 519 1565 519 1600 q 491 1483 519 1517 q 410 1436 463 1449 l 389 1499 z "},"Ễ":{"ha":833,"x_min":122,"x_max":749,"o":"m 722 0 l 122 0 l 122 1007 l 704 1007 l 704 903 l 244 903 l 244 575 l 685 575 l 685 474 l 244 474 l 244 101 l 722 101 l 722 0 m 272 1096 l 140 1096 l 365 1350 l 525 1350 l 749 1096 l 618 1096 l 444 1278 l 272 1096 m 536 1421 q 482 1431 508 1421 q 419 1464 456 1441 q 373 1493 388 1485 q 342 1501 357 1501 q 301 1487 319 1501 q 253 1438 282 1472 l 185 1508 q 263 1575 219 1551 q 350 1599 307 1599 q 410 1587 383 1599 q 467 1556 438 1576 l 500 1537 q 524 1523 515 1527 q 546 1519 533 1519 q 573 1526 561 1519 q 606 1551 585 1533 q 636 1576 621 1565 l 693 1506 q 619 1443 661 1466 q 536 1421 576 1421 z "},"Ȅ":{"ha":833,"x_min":178,"x_max":778,"o":"m 778 0 l 178 0 l 178 1007 l 760 1007 l 760 903 l 300 903 l 300 575 l 740 575 l 740 474 l 300 474 l 300 101 l 778 101 l 778 0 m 536 1094 l 442 1094 l 208 1364 l 371 1364 l 536 1094 m 760 1094 l 665 1094 l 432 1364 l 593 1364 l 760 1094 z "},"Ë":{"ha":833,"x_min":122,"x_max":722,"o":"m 722 0 l 122 0 l 122 1007 l 704 1007 l 704 903 l 244 903 l 244 575 l 685 575 l 685 474 l 244 474 l 244 101 l 722 101 l 722 0 m 244 1118 q 179 1142 202 1118 q 156 1206 156 1165 q 179 1270 156 1247 q 244 1294 202 1294 q 309 1270 285 1294 q 332 1206 332 1247 q 309 1142 332 1165 q 244 1118 285 1118 m 600 1118 q 533 1142 558 1118 q 508 1207 508 1166 q 533 1271 508 1248 q 600 1294 558 1294 q 665 1271 642 1294 q 689 1207 689 1248 q 665 1142 689 1166 q 600 1118 642 1118 z "},"Ė":{"ha":833,"x_min":122,"x_max":722,"o":"m 722 0 l 122 0 l 122 1007 l 704 1007 l 704 903 l 244 903 l 244 575 l 685 575 l 685 474 l 244 474 l 244 101 l 722 101 l 722 0 m 417 1090 q 351 1115 375 1090 q 328 1181 328 1139 q 351 1246 328 1222 q 417 1269 375 1269 q 482 1246 458 1269 q 506 1181 506 1222 q 482 1115 506 1139 q 417 1090 458 1090 z "},"Ẹ":{"ha":833,"x_min":122,"x_max":722,"o":"m 722 0 l 122 0 l 122 1007 l 704 1007 l 704 903 l 244 903 l 244 575 l 685 575 l 685 474 l 244 474 l 244 101 l 722 101 l 722 0 m 417 -196 q 361 -175 382 -196 q 341 -119 341 -155 q 361 -64 341 -85 q 417 -44 382 -44 q 473 -64 452 -44 q 493 -119 493 -85 q 473 -175 493 -155 q 417 -196 452 -196 z "},"È":{"ha":833,"x_min":122,"x_max":722,"o":"m 722 0 l 122 0 l 122 1007 l 704 1007 l 704 903 l 244 903 l 244 575 l 685 575 l 685 474 l 244 474 l 244 101 l 722 101 l 722 0 m 556 1079 l 453 1079 l 263 1364 l 426 1364 l 556 1079 z "},"Ẻ":{"ha":833,"x_min":122,"x_max":722,"o":"m 722 0 l 122 0 l 122 1007 l 704 1007 l 704 903 l 244 903 l 244 575 l 685 575 l 685 474 l 244 474 l 244 101 l 722 101 l 722 0 m 389 1129 q 433 1148 415 1131 q 451 1186 451 1165 q 438 1220 451 1206 q 404 1233 424 1233 q 368 1230 380 1233 q 331 1214 356 1226 l 331 1278 q 366 1293 349 1288 q 407 1297 383 1297 q 454 1286 428 1297 q 500 1253 481 1276 q 519 1196 519 1231 q 491 1113 519 1147 q 410 1067 463 1079 l 389 1129 z "},"Ȇ":{"ha":833,"x_min":122,"x_max":722,"o":"m 722 0 l 122 0 l 122 1007 l 704 1007 l 704 903 l 244 903 l 244 575 l 685 575 l 685 474 l 244 474 l 244 101 l 722 101 l 722 0 m 417 1307 q 530 1288 479 1307 q 610 1230 581 1269 q 640 1133 640 1191 l 553 1133 q 533 1186 553 1165 q 482 1219 513 1208 q 419 1229 451 1229 q 360 1218 390 1229 q 309 1186 330 1208 q 289 1133 289 1164 l 197 1133 q 226 1230 197 1191 q 305 1288 255 1269 q 417 1307 354 1307 z "},"Ē":{"ha":833,"x_min":122,"x_max":722,"o":"m 722 0 l 122 0 l 122 1007 l 704 1007 l 704 903 l 244 903 l 244 575 l 685 575 l 685 474 l 244 474 l 244 101 l 722 101 l 722 0 m 675 1138 l 160 1138 l 160 1250 l 675 1250 l 675 1138 z "},"Ḗ":{"ha":833,"x_min":122,"x_max":722,"o":"m 722 0 l 122 0 l 122 1007 l 704 1007 l 704 903 l 244 903 l 244 575 l 685 575 l 685 474 l 244 474 l 244 101 l 722 101 l 722 0 m 675 1140 l 160 1140 l 160 1253 l 675 1253 l 675 1140 m 556 1642 l 375 1357 l 276 1357 l 399 1642 l 556 1642 z "},"Ḕ":{"ha":833,"x_min":122,"x_max":722,"o":"m 722 0 l 122 0 l 122 1007 l 704 1007 l 704 903 l 244 903 l 244 575 l 685 575 l 685 474 l 244 474 l 244 101 l 722 101 l 722 0 m 675 1140 l 160 1140 l 160 1253 l 675 1253 l 675 1140 m 556 1357 l 453 1357 l 263 1642 l 426 1642 l 556 1357 z "},"Ę":{"ha":833,"x_min":122,"x_max":724,"o":"m 639 -167 q 683 -160 659 -167 q 724 -146 707 -153 l 724 -233 q 668 -249 699 -244 q 594 -254 638 -254 q 533 -239 566 -254 q 478 -199 500 -224 q 456 -143 456 -173 q 468 -85 456 -106 q 491 -53 481 -63 q 504 -42 502 -44 q 570 0 517 -29 l 122 0 l 122 1007 l 704 1007 l 704 903 l 244 903 l 244 575 l 685 575 l 685 474 l 244 474 l 244 101 l 722 101 l 722 0 l 692 0 q 679 -23 690 -13 q 651 -42 668 -33 q 645 -46 648 -44 q 639 -50 642 -48 q 622 -61 635 -53 q 599 -84 608 -70 q 590 -117 590 -99 q 603 -153 590 -140 q 639 -167 617 -167 z "},"Ɛ":{"ha":833,"x_min":31,"x_max":804,"o":"m 804 138 q 684 42 735 74 q 576 -2 633 10 q 432 -15 519 -15 q 232 21 324 -15 q 85 127 140 58 q 31 292 31 197 q 95 452 31 387 q 285 538 160 517 q 150 623 192 563 q 108 768 108 683 q 201 944 108 881 q 472 1007 294 1007 q 639 979 560 1007 q 772 907 717 951 l 704 813 q 584 877 637 856 q 463 897 531 897 q 319 867 375 897 q 264 763 264 837 q 313 633 264 684 q 475 582 362 582 l 638 582 l 638 443 q 513 446 578 443 q 453 447 467 447 l 424 447 q 309 438 354 446 q 231 396 264 430 q 199 292 199 363 q 237 180 199 224 q 336 118 275 137 q 469 99 397 99 q 621 126 559 99 q 738 215 683 153 l 804 138 z "},"Ǝ":{"ha":833,"x_min":111,"x_max":711,"o":"m 711 1007 l 711 0 l 111 0 l 111 101 l 589 101 l 589 474 l 149 474 l 149 575 l 589 575 l 589 903 l 129 903 l 129 1007 l 711 1007 z "},"Ɜ":{"ha":833,"x_min":100,"x_max":736,"o":"m 474 533 q 662 456 588 517 q 736 283 736 396 q 698 140 736 207 q 595 32 660 72 q 458 -8 531 -8 l 404 -8 q 226 24 298 -8 q 100 107 153 56 l 163 172 q 293 102 222 127 q 433 78 364 78 q 531 108 492 78 q 586 184 569 139 q 603 275 603 229 q 500 445 603 393 q 235 496 398 498 l 235 565 q 374 582 292 562 q 516 651 455 602 q 576 776 576 699 q 551 863 576 828 q 488 913 525 897 q 414 929 450 929 q 316 904 369 929 q 208 835 263 879 l 151 917 q 272 985 203 957 q 417 1014 340 1014 q 547 992 481 1014 q 659 918 613 970 q 706 782 706 866 q 640 619 706 682 q 474 533 575 556 z "},"Ʃ":{"ha":833,"x_min":43,"x_max":779,"o":"m 779 0 l 43 0 l 43 121 l 460 513 l 43 886 l 43 1007 l 779 1007 l 779 879 l 251 879 l 657 513 l 260 128 l 779 128 l 779 0 z "},"Ɇ":{"ha":833,"x_min":122,"x_max":758,"o":"m 685 474 l 539 474 l 403 101 l 722 101 l 722 0 l 367 0 l 271 -264 l 143 -264 l 239 0 l 122 0 l 122 1007 l 606 1007 l 631 1076 l 758 1076 l 704 928 l 704 903 l 695 903 l 576 575 l 685 575 l 685 474 m 567 903 l 244 903 l 244 575 l 448 575 l 567 903 m 244 474 l 244 101 l 276 101 l 411 474 l 244 474 z "},"Ꝫ":{"ha":833,"x_min":168,"x_max":689,"o":"m 214 -46 q 323 33 261 -14 q 432 121 384 81 l 467 149 q 521 193 501 174 q 556 235 542 212 q 569 285 569 258 q 541 347 569 319 q 468 390 513 374 q 378 406 424 406 l 238 406 l 192 421 l 363 513 l 392 528 q 461 567 438 552 q 498 602 484 583 q 511 651 511 622 q 495 705 511 680 q 451 745 478 730 q 392 760 424 760 q 304 741 334 760 q 276 686 274 722 l 169 686 q 194 775 168 737 q 269 835 221 814 q 382 856 318 856 q 502 835 448 856 q 589 769 556 814 q 622 654 622 724 q 606 566 622 610 q 539 493 589 522 q 649 422 609 467 q 689 288 689 376 q 665 185 689 230 q 608 111 640 140 q 529 49 576 82 q 500 28 501 29 q 416 -35 457 -7 q 313 -106 376 -64 l 214 -46 z "},"Ẽ":{"ha":833,"x_min":122,"x_max":722,"o":"m 722 0 l 122 0 l 122 1007 l 704 1007 l 704 903 l 244 903 l 244 575 l 685 575 l 685 474 l 244 474 l 244 101 l 722 101 l 722 0 m 510 1118 q 456 1128 482 1118 q 393 1161 429 1138 q 346 1190 362 1182 q 315 1199 331 1199 q 274 1184 293 1199 q 226 1135 256 1169 l 158 1206 q 236 1272 192 1248 q 324 1296 281 1296 q 384 1284 356 1296 q 440 1253 411 1273 l 474 1234 q 498 1220 489 1224 q 519 1217 507 1217 q 547 1224 535 1217 q 580 1249 559 1231 q 610 1274 594 1262 l 667 1203 q 592 1141 635 1163 q 510 1118 550 1118 z "},"Ḛ":{"ha":833,"x_min":122,"x_max":722,"o":"m 722 0 l 122 0 l 122 1007 l 704 1007 l 704 903 l 244 903 l 244 575 l 685 575 l 685 474 l 244 474 l 244 101 l 722 101 l 722 0 m 526 -232 q 473 -221 501 -232 q 408 -189 445 -210 q 361 -164 376 -169 q 332 -158 347 -158 q 290 -171 309 -158 q 243 -218 271 -184 l 183 -132 q 340 -49 251 -49 q 389 -57 369 -49 q 442 -83 410 -65 l 458 -92 q 507 -117 494 -112 q 536 -122 519 -122 q 565 -115 553 -122 q 603 -88 578 -108 l 628 -69 l 681 -146 q 609 -209 649 -187 q 526 -232 568 -232 z "},"Ʒ":{"ha":833,"x_min":188,"x_max":644,"o":"m 333 596 q 644 272 644 554 q 594 115 644 180 q 465 17 544 50 q 300 -15 385 -15 q 199 -3 247 -15 l 199 115 q 253 92 224 100 q 313 83 282 83 q 414 107 368 83 q 488 174 460 130 q 515 281 515 219 q 434 446 515 392 q 207 500 352 500 l 207 604 l 479 908 l 188 908 l 188 1007 l 622 1007 l 622 908 l 333 596 z "},"Ǯ":{"ha":833,"x_min":188,"x_max":644,"o":"m 333 596 q 644 272 644 554 q 594 115 644 180 q 465 17 544 50 q 300 -15 385 -15 q 199 -3 247 -15 l 199 115 q 253 92 224 100 q 313 83 282 83 q 414 107 368 83 q 488 174 460 130 q 515 281 515 219 q 434 446 515 392 q 207 500 352 500 l 207 604 l 479 908 l 188 908 l 188 1007 l 622 1007 l 622 908 l 333 596 m 481 1090 l 356 1090 l 218 1293 l 301 1293 l 418 1156 l 532 1293 l 615 1293 l 481 1090 z "},"Ƹ":{"ha":833,"x_min":189,"x_max":646,"o":"m 646 1007 l 646 908 l 354 908 l 626 604 l 626 500 q 400 446 481 500 q 318 281 318 392 q 345 174 318 219 q 419 107 373 130 q 521 83 465 83 q 581 92 551 83 q 635 115 610 100 l 635 -3 q 533 -15 587 -15 q 369 17 448 -15 q 239 115 290 50 q 189 272 189 180 q 501 596 189 554 l 211 908 l 211 1007 l 646 1007 z "},"F":{"ha":833,"x_min":138,"x_max":740,"o":"m 260 0 l 138 0 l 138 1007 l 740 1007 l 740 903 l 260 903 l 260 549 l 718 549 l 718 447 l 260 447 l 260 0 z "},"Ｆ":{"ha":833,"x_min":138,"x_max":740,"o":"m 260 0 l 138 0 l 138 1007 l 740 1007 l 740 903 l 260 903 l 260 549 l 718 549 l 718 447 l 260 447 l 260 0 z "},"Ḟ":{"ha":833,"x_min":138,"x_max":740,"o":"m 260 0 l 138 0 l 138 1007 l 740 1007 l 740 903 l 260 903 l 260 549 l 718 549 l 718 447 l 260 447 l 260 0 m 417 1100 q 351 1124 375 1100 q 328 1190 328 1149 q 351 1256 328 1232 q 417 1279 375 1279 q 482 1256 458 1279 q 506 1190 506 1232 q 482 1124 506 1149 q 417 1100 458 1100 z "},"Ƒ":{"ha":833,"x_min":-26,"x_max":743,"o":"m 743 903 l 264 903 l 264 569 l 721 569 l 721 468 l 264 468 l 264 0 q 247 -133 264 -81 q 188 -212 229 -185 q 78 -239 147 -239 l -26 -239 l -26 -140 l 82 -140 q 128 -108 115 -140 q 140 0 140 -75 l 140 1007 l 743 1007 l 743 903 z "},"G":{"ha":833,"x_min":82,"x_max":749,"o":"m 433 -14 q 217 57 294 -14 q 111 245 140 128 q 82 524 82 362 q 164 890 82 760 q 446 1021 247 1021 q 560 1003 503 1021 q 665 948 617 986 q 738 853 713 910 l 642 797 q 554 893 603 867 q 446 918 505 918 q 294 865 347 918 q 223 727 241 812 q 204 526 204 642 q 219 300 204 392 q 288 149 235 209 q 446 89 340 89 q 595 182 549 89 q 642 428 642 276 l 400 428 l 400 525 l 749 525 l 749 0 l 644 0 l 644 107 l 640 107 q 433 -14 587 -14 z "},"Ｇ":{"ha":833,"x_min":82,"x_max":749,"o":"m 433 -14 q 217 57 294 -14 q 111 245 140 128 q 82 524 82 362 q 164 890 82 760 q 446 1021 247 1021 q 560 1003 503 1021 q 665 948 617 986 q 738 853 713 910 l 642 797 q 554 893 603 867 q 446 918 505 918 q 294 865 347 918 q 223 727 241 812 q 204 526 204 642 q 219 300 204 392 q 288 149 235 209 q 446 89 340 89 q 595 182 549 89 q 642 428 642 276 l 400 428 l 400 525 l 749 525 l 749 0 l 644 0 l 644 107 l 640 107 q 433 -14 587 -14 z "},"Ǵ":{"ha":833,"x_min":82,"x_max":749,"o":"m 433 -14 q 217 57 294 -14 q 111 245 140 128 q 82 524 82 362 q 164 890 82 760 q 446 1021 247 1021 q 560 1003 503 1021 q 665 948 617 986 q 738 853 713 910 l 642 797 q 554 893 603 867 q 446 918 505 918 q 294 865 347 918 q 223 727 241 812 q 204 526 204 642 q 219 300 204 392 q 288 149 235 209 q 446 89 340 89 q 595 182 549 89 q 642 428 642 276 l 400 428 l 400 525 l 749 525 l 749 0 l 644 0 l 644 107 l 640 107 q 433 -14 587 -14 m 542 1375 l 361 1090 l 263 1090 l 385 1375 l 542 1375 z "},"Ğ":{"ha":833,"x_min":82,"x_max":749,"o":"m 433 -14 q 217 57 294 -14 q 111 245 140 128 q 82 524 82 362 q 164 890 82 760 q 446 1021 247 1021 q 560 1003 503 1021 q 665 948 617 986 q 738 853 713 910 l 642 797 q 554 893 603 867 q 446 918 505 918 q 294 865 347 918 q 223 727 241 812 q 204 526 204 642 q 219 300 204 392 q 288 149 235 209 q 446 89 340 89 q 595 182 549 89 q 642 428 642 276 l 400 428 l 400 525 l 749 525 l 749 0 l 644 0 l 644 107 l 640 107 q 433 -14 587 -14 m 401 1083 q 289 1102 339 1083 q 211 1160 240 1122 q 182 1257 182 1199 l 274 1257 q 294 1205 274 1226 q 345 1172 315 1183 q 404 1161 375 1161 q 467 1172 436 1161 q 517 1204 497 1182 q 538 1257 538 1226 l 625 1257 q 595 1160 625 1199 q 515 1102 565 1122 q 401 1083 464 1083 z "},"Ǧ":{"ha":833,"x_min":82,"x_max":749,"o":"m 433 -14 q 217 57 294 -14 q 111 245 140 128 q 82 524 82 362 q 164 890 82 760 q 446 1021 247 1021 q 560 1003 503 1021 q 665 948 617 986 q 738 853 713 910 l 642 797 q 554 893 603 867 q 446 918 505 918 q 294 865 347 918 q 223 727 241 812 q 204 526 204 642 q 219 300 204 392 q 288 149 235 209 q 446 89 340 89 q 595 182 549 89 q 642 428 642 276 l 400 428 l 400 525 l 749 525 l 749 0 l 644 0 l 644 107 l 640 107 q 433 -14 587 -14 m 467 1101 l 342 1101 l 204 1304 l 288 1304 l 404 1167 l 518 1304 l 601 1304 l 467 1101 z "},"Ĝ":{"ha":833,"x_min":82,"x_max":749,"o":"m 433 -14 q 217 57 294 -14 q 111 245 140 128 q 82 524 82 362 q 164 890 82 760 q 446 1021 247 1021 q 560 1003 503 1021 q 665 948 617 986 q 738 853 713 910 l 642 797 q 554 893 603 867 q 446 918 505 918 q 294 865 347 918 q 223 727 241 812 q 204 526 204 642 q 219 300 204 392 q 288 149 235 209 q 446 89 340 89 q 595 182 549 89 q 642 428 642 276 l 400 428 l 400 525 l 749 525 l 749 0 l 644 0 l 644 107 l 640 107 q 433 -14 587 -14 m 231 1121 l 99 1121 l 324 1375 l 483 1375 l 707 1121 l 576 1121 l 403 1303 l 231 1121 z "},"Ģ":{"ha":833,"x_min":117,"x_max":783,"o":"m 372 -289 q 411 -280 392 -287 q 437 -268 431 -274 q 453 -253 448 -260 q 459 -233 459 -247 q 453 -209 459 -219 q 435 -191 448 -199 q 409 -173 418 -180 q 392 -152 399 -165 q 384 -119 384 -138 q 390 -76 384 -92 q 411 -54 396 -61 q 455 -47 426 -47 q 514 -64 497 -47 q 530 -122 530 -81 q 519 -226 530 -192 q 505 -262 512 -249 q 487 -287 497 -276 q 428 -320 467 -306 q 396 -328 414 -325 q 372 -332 378 -332 l 372 -289 m 468 -14 q 252 57 329 -14 q 145 245 174 128 q 117 524 117 362 q 199 890 117 760 q 481 1021 281 1021 q 595 1003 538 1021 q 700 948 652 986 q 772 853 747 910 l 676 797 q 589 893 638 867 q 481 918 540 918 q 329 865 382 918 q 257 727 276 812 q 239 526 239 642 q 254 300 239 392 q 322 149 269 209 q 481 89 375 89 q 630 182 584 89 q 676 428 676 276 l 435 428 l 435 525 l 783 525 l 783 0 l 679 0 l 679 107 l 675 107 q 468 -14 622 -14 z "},"Ġ":{"ha":833,"x_min":82,"x_max":749,"o":"m 433 -14 q 217 57 294 -14 q 111 245 140 128 q 82 524 82 362 q 164 890 82 760 q 446 1021 247 1021 q 560 1003 503 1021 q 665 948 617 986 q 738 853 713 910 l 642 797 q 554 893 603 867 q 446 918 505 918 q 294 865 347 918 q 223 727 241 812 q 204 526 204 642 q 219 300 204 392 q 288 149 235 209 q 446 89 340 89 q 595 182 549 89 q 642 428 642 276 l 400 428 l 400 525 l 749 525 l 749 0 l 644 0 l 644 107 l 640 107 q 433 -14 587 -14 m 403 1111 q 338 1135 361 1111 q 314 1201 314 1160 q 338 1267 314 1243 q 403 1290 361 1290 q 468 1267 444 1290 q 492 1201 492 1243 q 468 1135 492 1160 q 403 1111 444 1111 z "},"Ɠ":{"ha":833,"x_min":78,"x_max":893,"o":"m 893 1083 l 893 985 l 785 985 q 735 951 751 985 q 719 844 719 917 l 633 793 q 579 869 606 844 q 521 903 553 894 q 439 913 489 913 q 257 797 310 913 q 204 507 204 682 q 223 293 204 383 q 296 146 242 202 q 449 90 350 90 q 544 98 495 90 q 633 121 593 106 l 633 417 l 444 417 l 444 518 l 740 518 l 740 44 q 589 4 665 19 q 446 -11 513 -11 q 166 125 253 -11 q 78 500 78 262 q 119 762 78 645 q 242 947 160 878 q 444 1015 324 1015 q 618 973 549 1015 q 677 1056 635 1028 q 789 1083 718 1084 l 893 1083 z "},"Ɂ":{"ha":833,"x_min":126,"x_max":707,"o":"m 126 717 q 167 872 126 810 q 274 961 207 933 q 421 990 340 990 q 572 951 507 990 q 672 844 637 911 q 707 696 707 777 q 685 584 707 634 q 622 489 664 534 l 599 465 q 542 401 565 431 q 502 326 519 372 q 485 222 485 281 l 485 0 l 360 0 l 360 231 q 401 397 360 322 q 490 517 443 471 l 513 538 q 556 581 540 563 q 582 627 572 599 q 592 696 592 656 q 569 797 592 751 q 508 867 547 842 q 421 893 469 893 q 329 874 371 893 q 263 814 288 854 q 238 717 238 774 l 126 717 z "},"Ḡ":{"ha":833,"x_min":82,"x_max":749,"o":"m 433 -14 q 217 57 294 -14 q 111 245 140 128 q 82 524 82 362 q 164 890 82 760 q 446 1021 247 1021 q 560 1003 503 1021 q 665 948 617 986 q 738 853 713 910 l 642 797 q 554 893 603 867 q 446 918 505 918 q 294 865 347 918 q 223 727 241 812 q 204 526 204 642 q 219 300 204 392 q 288 149 235 209 q 446 89 340 89 q 595 182 549 89 q 642 428 642 276 l 400 428 l 400 525 l 749 525 l 749 0 l 644 0 l 644 107 l 640 107 q 433 -14 587 -14 m 661 1151 l 146 1151 l 146 1264 l 661 1264 l 661 1151 z "},"Ɡ":{"ha":833,"x_min":82,"x_max":740,"o":"m 424 -81 q 313 -72 375 -81 q 198 -36 251 -64 q 146 43 146 -9 q 171 97 146 82 q 222 111 197 111 q 278 95 253 111 q 338 47 303 79 q 382 9 364 23 q 423 -15 399 -6 q 474 -25 446 -25 q 562 15 527 -25 q 613 114 597 54 q 626 233 628 174 l 624 292 q 586 265 605 279 q 526 224 551 239 q 463 197 500 208 q 376 186 425 186 q 231 239 299 186 q 123 379 163 291 q 82 568 82 467 q 123 779 82 674 q 241 951 163 883 q 425 1019 319 1019 q 509 1012 472 1019 q 573 994 547 1004 q 631 969 598 984 l 646 961 l 740 1021 l 740 328 q 731 215 740 276 q 692 103 722 154 q 584 -31 646 19 q 424 -81 522 -81 m 463 269 q 615 392 548 269 l 615 740 q 602 852 615 807 q 546 926 588 898 q 422 954 503 954 q 301 925 347 954 q 234 832 255 895 q 213 665 213 769 q 238 475 213 565 q 319 327 263 385 q 463 269 376 269 z "},"Ǥ":{"ha":833,"x_min":51,"x_max":853,"o":"m 853 328 l 853 236 l 733 236 l 733 43 q 431 -11 558 -11 q 142 125 232 -11 q 51 499 51 260 q 93 758 51 642 q 220 942 135 874 q 429 1010 306 1010 q 607 968 533 1010 q 713 840 681 927 l 624 789 q 568 864 595 839 q 508 898 541 889 q 424 907 476 907 q 236 792 291 907 q 182 504 182 678 q 201 291 182 381 q 276 146 221 201 q 433 90 332 90 q 613 121 527 90 l 613 236 l 490 236 l 490 328 l 613 328 l 613 442 l 733 442 l 733 328 l 853 328 z "},"Ȝ":{"ha":833,"x_min":122,"x_max":713,"o":"m 401 597 q 587 548 519 583 q 684 455 656 512 q 713 317 713 398 q 675 174 713 236 q 594 75 638 112 q 498 5 550 38 q 479 -7 478 -8 q 342 -87 450 -27 q 291 -117 326 -97 q 236 -149 255 -137 l 188 -71 q 253 -33 192 -67 q 368 32 328 9 q 433 76 407 55 q 506 141 476 110 q 560 219 537 172 q 583 325 583 266 q 547 436 583 398 q 444 487 510 474 q 275 500 379 500 l 275 604 l 547 908 l 122 908 l 122 1007 l 690 1007 l 690 908 l 401 597 z "},"H":{"ha":833,"x_min":132,"x_max":701,"o":"m 253 0 l 132 0 l 132 1007 l 253 1007 l 253 579 l 581 579 l 581 1007 l 701 1007 l 701 0 l 581 0 l 581 469 l 253 469 l 253 0 z "},"Ｈ":{"ha":833,"x_min":132,"x_max":701,"o":"m 253 0 l 132 0 l 132 1007 l 253 1007 l 253 579 l 581 579 l 581 1007 l 701 1007 l 701 0 l 581 0 l 581 469 l 253 469 l 253 0 z "},"Ⱶ":{"ha":833,"x_min":90,"x_max":733,"o":"m 225 607 l 733 607 l 733 475 l 225 475 l 225 0 l 90 0 l 90 1010 l 225 1010 l 225 607 z "},"Ħ":{"ha":833,"x_min":78,"x_max":758,"o":"m 701 860 l 758 860 l 758 758 l 701 758 l 701 0 l 581 0 l 581 469 l 253 469 l 253 0 l 132 0 l 132 758 l 78 758 l 78 860 l 132 860 l 132 1007 l 253 1007 l 253 860 l 581 860 l 581 1007 l 701 1007 l 701 860 m 253 579 l 581 579 l 581 758 l 253 758 l 253 579 z "},"Ḫ":{"ha":833,"x_min":132,"x_max":701,"o":"m 253 0 l 132 0 l 132 1007 l 253 1007 l 253 579 l 581 579 l 581 1007 l 701 1007 l 701 0 l 581 0 l 581 469 l 253 469 l 253 0 m 413 -236 q 284 -199 335 -236 q 233 -83 234 -162 l 276 -83 q 322 -145 281 -127 q 415 -162 363 -162 q 507 -145 469 -162 q 554 -83 544 -128 l 596 -83 q 542 -202 588 -167 q 413 -236 495 -236 z "},"Ȟ":{"ha":833,"x_min":132,"x_max":701,"o":"m 253 0 l 132 0 l 132 1007 l 253 1007 l 253 579 l 581 579 l 581 1007 l 701 1007 l 701 0 l 581 0 l 581 469 l 253 469 l 253 0 m 481 1090 l 356 1090 l 218 1293 l 301 1293 l 418 1156 l 532 1293 l 615 1293 l 481 1090 z "},"Ḩ":{"ha":833,"x_min":47,"x_max":701,"o":"m 581 1007 l 701 1007 l 701 0 l 581 0 l 581 469 l 253 469 l 253 0 l 227 0 l 199 -79 l 215 -79 q 335 -171 335 -79 q 291 -249 335 -226 q 190 -272 248 -272 q 47 -240 122 -272 l 47 -189 q 116 -215 80 -205 q 182 -225 151 -225 q 251 -176 251 -225 q 236 -139 251 -148 q 188 -129 222 -129 l 129 -129 l 129 -79 l 160 0 l 132 0 l 132 1007 l 253 1007 l 253 579 l 581 579 l 581 1007 z "},"Ĥ":{"ha":833,"x_min":113,"x_max":721,"o":"m 253 0 l 132 0 l 132 1007 l 253 1007 l 253 579 l 581 579 l 581 1007 l 701 1007 l 701 0 l 581 0 l 581 469 l 253 469 l 253 0 m 244 1110 l 113 1110 l 338 1364 l 497 1364 l 721 1110 l 590 1110 l 417 1292 l 244 1110 z "},"Ḧ":{"ha":833,"x_min":132,"x_max":701,"o":"m 253 0 l 132 0 l 132 1007 l 253 1007 l 253 579 l 581 579 l 581 1007 l 701 1007 l 701 0 l 581 0 l 581 469 l 253 469 l 253 0 m 244 1118 q 179 1142 202 1118 q 156 1206 156 1165 q 179 1270 156 1247 q 244 1294 202 1294 q 309 1270 285 1294 q 332 1206 332 1247 q 309 1142 332 1165 q 244 1118 285 1118 m 600 1118 q 533 1142 558 1118 q 508 1207 508 1166 q 533 1271 508 1248 q 600 1294 558 1294 q 665 1271 642 1294 q 689 1207 689 1248 q 665 1142 689 1166 q 600 1118 642 1118 z "},"Ḣ":{"ha":833,"x_min":132,"x_max":701,"o":"m 253 0 l 132 0 l 132 1007 l 253 1007 l 253 579 l 581 579 l 581 1007 l 701 1007 l 701 0 l 581 0 l 581 469 l 253 469 l 253 0 m 417 1100 q 351 1124 375 1100 q 328 1190 328 1149 q 351 1256 328 1232 q 417 1279 375 1279 q 482 1256 458 1279 q 506 1190 506 1232 q 482 1124 506 1149 q 417 1100 458 1100 z "},"Ḥ":{"ha":833,"x_min":132,"x_max":701,"o":"m 253 0 l 132 0 l 132 1007 l 253 1007 l 253 579 l 581 579 l 581 1007 l 701 1007 l 701 0 l 581 0 l 581 469 l 253 469 l 253 0 m 383 -196 q 327 -175 347 -196 q 306 -119 306 -155 q 327 -64 306 -85 q 383 -44 347 -44 q 438 -64 417 -44 q 458 -119 458 -85 q 438 -175 458 -155 q 383 -196 417 -196 z "},"Ꜧ":{"ha":833,"x_min":132,"x_max":701,"o":"m 581 1007 l 701 1007 l 701 0 q 416 -247 701 -247 l 416 -134 q 542 -102 503 -134 q 581 0 581 -71 l 581 469 l 253 469 l 253 0 l 132 0 l 132 1007 l 253 1007 l 253 579 l 581 579 l 581 1007 z "},"Ɦ":{"ha":833,"x_min":-161,"x_max":704,"o":"m 582 1007 l 704 1007 l 704 0 l 582 0 l 582 464 l 251 464 l 251 0 l 129 0 l 129 908 l 21 908 q -29 874 -13 908 q -44 768 -44 840 l -161 768 q -144 902 -161 849 q -86 981 -126 954 q 25 1007 -45 1008 l 251 1007 l 251 567 l 582 567 l 582 1007 z "},"Ɥ":{"ha":833,"x_min":111,"x_max":722,"o":"m 722 1007 l 722 -90 l 601 -90 l 601 353 q 494 261 558 294 q 361 229 431 229 q 170 301 229 229 q 111 508 111 373 l 111 1007 l 232 1007 l 232 561 q 243 440 232 489 q 290 361 254 392 q 394 331 325 331 q 551 426 500 331 q 601 676 601 522 l 601 1007 l 722 1007 z "},"I":{"ha":833,"x_min":156,"x_max":676,"o":"m 676 0 l 156 0 l 156 97 l 357 97 l 357 910 l 182 910 l 182 1007 l 650 1007 l 650 910 l 479 910 l 479 97 l 676 97 l 676 0 z "},"Ｉ":{"ha":833,"x_min":156,"x_max":676,"o":"m 676 0 l 156 0 l 156 97 l 357 97 l 357 910 l 182 910 l 182 1007 l 650 1007 l 650 910 l 479 910 l 479 97 l 676 97 l 676 0 z "},"Ĳ":{"ha":833,"x_min":33,"x_max":800,"o":"m 435 1015 l 800 1015 l 800 217 q 779 82 800 133 q 713 5 758 30 q 596 -19 668 -19 q 480 16 530 -19 q 406 106 431 51 l 406 -4 l 33 -4 l 33 115 l 160 115 l 160 893 l 33 893 l 33 1015 l 413 1015 l 413 893 l 306 893 l 306 115 l 402 115 q 386 204 384 160 l 522 204 q 539 130 520 160 q 597 99 558 99 q 652 134 639 99 q 665 218 665 169 l 665 893 l 435 893 l 435 1015 z "},"Í":{"ha":833,"x_min":156,"x_max":676,"o":"m 676 0 l 156 0 l 156 97 l 357 97 l 357 910 l 182 910 l 182 1007 l 650 1007 l 650 910 l 479 910 l 479 97 l 676 97 l 676 0 m 556 1364 l 375 1079 l 276 1079 l 399 1364 l 556 1364 z "},"Ĭ":{"ha":833,"x_min":156,"x_max":676,"o":"m 676 0 l 156 0 l 156 97 l 357 97 l 357 910 l 182 910 l 182 1007 l 650 1007 l 650 910 l 479 910 l 479 97 l 676 97 l 676 0 m 415 1072 q 303 1091 353 1072 q 225 1149 253 1110 q 196 1246 196 1188 l 288 1246 q 308 1193 288 1215 q 359 1161 328 1172 q 418 1150 389 1150 q 481 1160 450 1150 q 531 1193 511 1171 q 551 1246 551 1215 l 639 1246 q 609 1149 639 1188 q 528 1091 579 1110 q 415 1072 478 1072 z "},"Ǐ":{"ha":833,"x_min":156,"x_max":676,"o":"m 676 0 l 156 0 l 156 97 l 357 97 l 357 910 l 182 910 l 182 1007 l 650 1007 l 650 910 l 479 910 l 479 97 l 676 97 l 676 0 m 481 1090 l 356 1090 l 218 1293 l 301 1293 l 418 1156 l 532 1293 l 615 1293 l 481 1090 z "},"Î":{"ha":833,"x_min":113,"x_max":721,"o":"m 676 0 l 156 0 l 156 97 l 357 97 l 357 910 l 182 910 l 182 1007 l 650 1007 l 650 910 l 479 910 l 479 97 l 676 97 l 676 0 m 244 1110 l 113 1110 l 338 1364 l 497 1364 l 721 1110 l 590 1110 l 417 1292 l 244 1110 z "},"Ȉ":{"ha":833,"x_min":153,"x_max":704,"o":"m 676 0 l 156 0 l 156 97 l 357 97 l 357 910 l 182 910 l 182 1007 l 650 1007 l 650 910 l 479 910 l 479 97 l 676 97 l 676 0 m 481 1094 l 386 1094 l 153 1364 l 315 1364 l 481 1094 m 704 1094 l 610 1094 l 376 1364 l 538 1364 l 704 1094 z "},"Ï":{"ha":833,"x_min":156,"x_max":689,"o":"m 676 0 l 156 0 l 156 97 l 357 97 l 357 910 l 182 910 l 182 1007 l 650 1007 l 650 910 l 479 910 l 479 97 l 676 97 l 676 0 m 244 1118 q 179 1142 202 1118 q 156 1206 156 1165 q 179 1270 156 1247 q 244 1294 202 1294 q 309 1270 285 1294 q 332 1206 332 1247 q 309 1142 332 1165 q 244 1118 285 1118 m 600 1118 q 533 1142 558 1118 q 508 1207 508 1166 q 533 1271 508 1248 q 600 1294 558 1294 q 665 1271 642 1294 q 689 1207 689 1248 q 665 1142 689 1166 q 600 1118 642 1118 z "},"Ḯ":{"ha":833,"x_min":156,"x_max":689,"o":"m 676 0 l 156 0 l 156 97 l 357 97 l 357 910 l 182 910 l 182 1007 l 650 1007 l 650 910 l 479 910 l 479 97 l 676 97 l 676 0 m 244 1069 q 179 1093 202 1069 q 156 1157 156 1117 q 179 1222 156 1198 q 244 1246 202 1246 q 309 1222 285 1246 q 332 1157 332 1198 q 309 1093 332 1117 q 244 1069 285 1069 m 600 1069 q 533 1093 558 1069 q 508 1158 508 1117 q 533 1223 508 1199 q 600 1246 558 1246 q 665 1223 642 1246 q 689 1158 689 1199 q 665 1093 689 1117 q 600 1069 642 1069 m 639 1513 l 458 1228 l 360 1228 l 482 1513 l 639 1513 z "},"İ":{"ha":833,"x_min":190,"x_max":711,"o":"m 711 0 l 190 0 l 190 97 l 392 97 l 392 910 l 217 910 l 217 1007 l 685 1007 l 685 910 l 514 910 l 514 97 l 711 97 l 711 0 m 451 1090 q 386 1115 410 1090 q 363 1181 363 1139 q 386 1246 363 1222 q 451 1269 410 1269 q 517 1246 493 1269 q 540 1181 540 1222 q 517 1115 540 1139 q 451 1090 493 1090 z "},"Ị":{"ha":833,"x_min":156,"x_max":676,"o":"m 676 0 l 156 0 l 156 97 l 357 97 l 357 910 l 182 910 l 182 1007 l 650 1007 l 650 910 l 479 910 l 479 97 l 676 97 l 676 0 m 417 -196 q 361 -175 382 -196 q 341 -119 341 -155 q 361 -64 341 -85 q 417 -44 382 -44 q 473 -64 452 -44 q 493 -119 493 -85 q 473 -175 493 -155 q 417 -196 452 -196 z "},"Ì":{"ha":833,"x_min":156,"x_max":676,"o":"m 676 0 l 156 0 l 156 97 l 357 97 l 357 910 l 182 910 l 182 1007 l 650 1007 l 650 910 l 479 910 l 479 97 l 676 97 l 676 0 m 556 1079 l 453 1079 l 263 1364 l 426 1364 l 556 1079 z "},"Ỉ":{"ha":833,"x_min":156,"x_max":676,"o":"m 676 0 l 156 0 l 156 97 l 357 97 l 357 910 l 182 910 l 182 1007 l 650 1007 l 650 910 l 479 910 l 479 97 l 676 97 l 676 0 m 389 1129 q 433 1148 415 1131 q 451 1186 451 1165 q 438 1220 451 1206 q 404 1233 424 1233 q 368 1230 380 1233 q 331 1214 356 1226 l 331 1278 q 366 1293 349 1288 q 407 1297 383 1297 q 454 1286 428 1297 q 500 1253 481 1276 q 519 1196 519 1231 q 491 1113 519 1147 q 410 1067 463 1079 l 389 1129 z "},"Ȋ":{"ha":833,"x_min":156,"x_max":676,"o":"m 676 0 l 156 0 l 156 97 l 357 97 l 357 910 l 182 910 l 182 1007 l 650 1007 l 650 910 l 479 910 l 479 97 l 676 97 l 676 0 m 417 1307 q 530 1288 479 1307 q 610 1230 581 1269 q 640 1133 640 1191 l 553 1133 q 533 1186 553 1165 q 482 1219 513 1208 q 419 1229 451 1229 q 360 1218 390 1229 q 309 1186 330 1208 q 289 1133 289 1164 l 197 1133 q 226 1230 197 1191 q 305 1288 255 1269 q 417 1307 354 1307 z "},"Ī":{"ha":833,"x_min":156,"x_max":676,"o":"m 676 0 l 156 0 l 156 97 l 357 97 l 357 910 l 182 910 l 182 1007 l 650 1007 l 650 910 l 479 910 l 479 97 l 676 97 l 676 0 m 675 1138 l 160 1138 l 160 1250 l 675 1250 l 675 1138 z "},"Į":{"ha":833,"x_min":156,"x_max":676,"o":"m 417 -50 q 400 -61 413 -53 q 377 -84 386 -70 q 368 -117 368 -99 q 381 -153 368 -140 q 417 -167 394 -167 q 460 -160 436 -167 q 501 -146 485 -153 l 501 -233 q 446 -249 477 -244 q 372 -254 415 -254 q 311 -239 344 -254 q 256 -199 278 -224 q 233 -143 233 -173 q 246 -85 233 -106 q 269 -53 258 -63 q 282 -42 280 -44 q 348 0 294 -29 l 156 0 l 156 97 l 357 97 l 357 910 l 182 910 l 182 1007 l 650 1007 l 650 910 l 479 910 l 479 97 l 676 97 l 676 0 l 470 0 q 457 -23 468 -13 q 429 -42 446 -33 q 423 -46 426 -44 q 417 -50 419 -48 z "},"Ɩ":{"ha":833,"x_min":272,"x_max":671,"o":"m 272 1008 l 417 1008 l 417 254 q 515 140 417 140 q 600 145 565 140 q 671 160 635 149 l 671 19 q 443 0 609 0 q 314 57 355 0 q 272 200 272 113 l 272 1008 z "},"Ɨ":{"ha":833,"x_min":138,"x_max":694,"o":"m 694 606 l 694 467 l 479 467 l 479 97 l 676 97 l 676 0 l 156 0 l 156 97 l 357 97 l 357 467 l 138 467 l 138 606 l 357 606 l 357 910 l 182 910 l 182 1007 l 650 1007 l 650 910 l 479 910 l 479 606 l 694 606 z "},"Ĩ":{"ha":833,"x_min":156,"x_max":676,"o":"m 676 0 l 156 0 l 156 97 l 357 97 l 357 910 l 182 910 l 182 1007 l 650 1007 l 650 910 l 479 910 l 479 97 l 676 97 l 676 0 m 510 1118 q 456 1128 482 1118 q 393 1161 429 1138 q 346 1190 362 1182 q 315 1199 331 1199 q 274 1184 293 1199 q 226 1135 256 1169 l 158 1206 q 236 1272 192 1248 q 324 1296 281 1296 q 384 1284 356 1296 q 440 1253 411 1273 l 474 1234 q 498 1220 489 1224 q 519 1217 507 1217 q 547 1224 535 1217 q 580 1249 559 1231 q 610 1274 594 1262 l 667 1203 q 592 1141 635 1163 q 510 1118 550 1118 z "},"Ḭ":{"ha":833,"x_min":156,"x_max":681,"o":"m 676 0 l 156 0 l 156 97 l 357 97 l 357 910 l 182 910 l 182 1007 l 650 1007 l 650 910 l 479 910 l 479 97 l 676 97 l 676 0 m 526 -232 q 473 -221 501 -232 q 408 -189 445 -210 q 361 -164 376 -169 q 332 -158 347 -158 q 290 -171 309 -158 q 243 -218 271 -184 l 183 -132 q 340 -49 251 -49 q 389 -57 369 -49 q 442 -83 410 -65 l 458 -92 q 507 -117 494 -112 q 536 -122 519 -122 q 565 -115 553 -122 q 603 -88 578 -108 l 628 -69 l 681 -146 q 609 -209 649 -187 q 526 -232 568 -232 z "},"J":{"ha":833,"x_min":100,"x_max":688,"o":"m 396 -14 q 244 20 311 -14 q 139 118 177 53 q 100 272 100 183 l 229 272 q 251 175 229 217 q 311 111 272 134 q 399 89 349 89 q 523 143 478 89 q 567 304 567 198 l 567 894 l 175 894 l 175 1007 l 688 1007 l 688 301 q 615 64 688 142 q 396 -14 542 -14 z "},"Ｊ":{"ha":833,"x_min":100,"x_max":688,"o":"m 396 -14 q 244 20 311 -14 q 139 118 177 53 q 100 272 100 183 l 229 272 q 251 175 229 217 q 311 111 272 134 q 399 89 349 89 q 523 143 478 89 q 567 304 567 198 l 567 894 l 175 894 l 175 1007 l 688 1007 l 688 301 q 615 64 688 142 q 396 -14 542 -14 z "},"Ĵ":{"ha":833,"x_min":138,"x_max":756,"o":"m 433 -14 q 282 20 349 -14 q 176 118 215 53 q 138 272 138 183 l 267 272 q 288 175 267 217 q 348 111 310 134 q 436 89 387 89 q 560 143 516 89 q 604 304 604 198 l 604 894 l 213 894 l 213 1007 l 725 1007 l 725 301 q 652 64 725 142 q 433 -14 580 -14 m 279 1156 l 147 1156 l 372 1410 l 532 1410 l 756 1156 l 625 1156 l 451 1338 l 279 1156 z "},"Ɉ":{"ha":833,"x_min":100,"x_max":769,"o":"m 769 632 l 769 493 l 688 493 l 688 301 q 615 64 688 142 q 396 -14 542 -14 q 244 20 311 -14 q 139 118 177 53 q 100 272 100 183 l 229 272 q 251 175 229 217 q 311 111 272 134 q 399 89 349 89 q 523 143 478 89 q 567 304 567 198 l 567 493 l 487 493 l 487 632 l 567 632 l 567 894 l 175 894 l 175 1007 l 688 1007 l 688 632 l 769 632 z "},"K":{"ha":833,"x_min":133,"x_max":796,"o":"m 382 554 l 796 0 l 643 0 l 254 538 l 254 0 l 133 0 l 133 1008 l 254 1008 l 254 553 l 604 1008 l 753 1008 l 382 554 z "},"Ｋ":{"ha":833,"x_min":133,"x_max":796,"o":"m 382 554 l 796 0 l 643 0 l 254 538 l 254 0 l 133 0 l 133 1008 l 254 1008 l 254 553 l 604 1008 l 753 1008 l 382 554 z "},"Ḱ":{"ha":833,"x_min":133,"x_max":796,"o":"m 382 554 l 796 0 l 643 0 l 254 538 l 254 0 l 133 0 l 133 1008 l 254 1008 l 254 553 l 604 1008 l 753 1008 l 382 554 m 556 1364 l 375 1079 l 276 1079 l 399 1364 l 556 1364 z "},"Ǩ":{"ha":833,"x_min":133,"x_max":796,"o":"m 382 554 l 796 0 l 643 0 l 254 538 l 254 0 l 133 0 l 133 1008 l 254 1008 l 254 553 l 604 1008 l 753 1008 l 382 554 m 481 1090 l 356 1090 l 218 1293 l 301 1293 l 418 1156 l 532 1293 l 615 1293 l 481 1090 z "},"Ķ":{"ha":833,"x_min":108,"x_max":771,"o":"m 312 -289 q 351 -280 332 -287 q 377 -268 371 -274 q 394 -253 388 -260 q 399 -233 399 -247 q 394 -209 399 -219 q 375 -191 388 -199 q 349 -173 358 -180 q 332 -152 340 -165 q 324 -119 324 -138 q 330 -76 324 -92 q 351 -54 336 -61 q 395 -47 367 -47 q 454 -64 438 -47 q 470 -122 470 -81 q 460 -226 470 -192 q 445 -262 452 -249 q 427 -287 438 -276 q 369 -320 408 -306 q 336 -328 354 -325 q 312 -332 319 -332 l 312 -289 m 357 554 l 771 0 l 618 0 l 229 538 l 229 0 l 108 0 l 108 1008 l 229 1008 l 229 553 l 579 1008 l 728 1008 l 357 554 z "},"Ḳ":{"ha":833,"x_min":133,"x_max":796,"o":"m 382 554 l 796 0 l 643 0 l 254 538 l 254 0 l 133 0 l 133 1008 l 254 1008 l 254 553 l 604 1008 l 753 1008 l 382 554 m 417 -196 q 361 -175 382 -196 q 341 -119 341 -155 q 361 -64 341 -85 q 417 -44 382 -44 q 473 -64 452 -44 q 493 -119 493 -85 q 473 -175 493 -155 q 417 -196 452 -196 z "},"Ƙ":{"ha":833,"x_min":99,"x_max":854,"o":"m 590 851 l 347 554 l 761 0 l 608 0 l 219 538 l 219 0 l 99 0 l 99 1007 l 219 1007 l 219 553 l 499 914 q 692 1029 583 1029 q 756 1020 726 1029 q 817 986 785 1011 l 854 957 l 799 889 l 756 922 q 731 938 741 934 q 703 942 720 942 q 670 935 685 942 q 639 908 656 928 l 590 851 z "},"Ḵ":{"ha":833,"x_min":133,"x_max":796,"o":"m 382 554 l 796 0 l 643 0 l 254 538 l 254 0 l 133 0 l 133 1008 l 254 1008 l 254 553 l 604 1008 l 753 1008 l 382 554 m 674 -190 l 158 -190 l 158 -78 l 674 -78 l 674 -190 z "},"L":{"ha":833,"x_min":132,"x_max":747,"o":"m 747 0 l 132 0 l 132 1010 l 254 1010 l 254 101 l 747 101 l 747 0 z "},"Ｌ":{"ha":833,"x_min":132,"x_max":747,"o":"m 747 0 l 132 0 l 132 1010 l 254 1010 l 254 101 l 747 101 l 747 0 z "},"Ǉ":{"ha":833,"x_min":153,"x_max":768,"o":"m 768 0 l 153 0 l 153 1010 l 275 1010 l 275 101 l 768 101 l 768 0 m 553 261 q 448 289 490 261 q 384 365 405 317 q 364 471 364 413 l 468 471 q 491 386 468 411 q 557 361 515 361 q 623 391 599 361 q 646 492 646 420 l 646 828 l 418 828 l 418 926 l 742 926 l 742 489 q 722 356 742 406 q 661 284 702 306 q 553 261 619 261 z "},"Ỻ":{"ha":833,"x_min":110,"x_max":768,"o":"m 110 0 l 110 1007 l 235 1007 l 235 104 l 408 104 l 408 0 l 110 0 m 438 0 l 438 1007 l 563 1007 l 563 104 l 768 104 l 768 0 l 438 0 z "},"Ĺ":{"ha":833,"x_min":132,"x_max":747,"o":"m 747 0 l 132 0 l 132 1010 l 254 1010 l 254 101 l 747 101 l 747 0 m 556 1367 l 375 1082 l 276 1082 l 399 1367 l 556 1367 z "},"Ƚ":{"ha":833,"x_min":13,"x_max":760,"o":"m 267 481 l 267 101 l 760 101 l 760 0 l 144 0 l 144 481 l 13 481 l 13 619 l 144 619 l 144 1010 l 267 1010 l 267 619 l 441 619 l 441 481 l 267 481 z "},"Ꝇ":{"ha":833,"x_min":72,"x_max":772,"o":"m 772 0 l 157 0 l 157 525 l 72 489 l 72 1010 l 194 1010 l 194 568 l 279 603 l 279 101 l 772 101 l 772 0 z "},"Ľ":{"ha":833,"x_min":165,"x_max":772,"o":"m 565 889 l 463 889 l 519 1153 l 647 1153 l 565 889 m 772 0 l 165 0 l 165 997 l 285 997 l 285 100 l 772 100 l 772 0 z "},"Ḽ":{"ha":833,"x_min":132,"x_max":747,"o":"m 747 0 l 132 0 l 132 1010 l 254 1010 l 254 101 l 747 101 l 747 0 m 314 -286 l 231 -286 l 368 -92 l 493 -92 l 628 -286 l 544 -286 l 429 -149 l 314 -286 z "},"Ļ":{"ha":833,"x_min":167,"x_max":782,"o":"m 322 -307 q 361 -298 342 -305 q 387 -286 381 -292 q 403 -271 398 -278 q 409 -251 409 -265 q 403 -227 409 -237 q 385 -209 398 -217 q 359 -191 368 -198 q 342 -170 349 -183 q 334 -137 334 -156 q 340 -94 334 -110 q 361 -72 346 -79 q 405 -65 376 -65 q 464 -82 447 -65 q 480 -140 480 -99 q 469 -244 480 -210 q 455 -281 462 -267 q 437 -305 447 -294 q 378 -338 417 -324 q 346 -347 364 -343 q 322 -350 328 -350 l 322 -307 m 782 0 l 167 0 l 167 1010 l 289 1010 l 289 101 l 782 101 l 782 0 z "},"Ŀ":{"ha":833,"x_min":132,"x_max":747,"o":"m 747 0 l 132 0 l 132 1010 l 254 1010 l 254 101 l 747 101 l 747 0 m 521 369 q 427 404 462 369 q 393 497 393 438 q 427 591 393 557 q 521 625 462 625 q 615 591 581 625 q 649 497 649 557 q 615 404 649 438 q 521 369 581 369 z "},"Ḷ":{"ha":833,"x_min":132,"x_max":747,"o":"m 747 0 l 132 0 l 132 1010 l 254 1010 l 254 101 l 747 101 l 747 0 m 430 -222 q 374 -202 394 -222 q 353 -146 353 -181 q 374 -91 353 -111 q 430 -70 394 -70 q 485 -91 465 -70 q 506 -146 506 -111 q 485 -202 506 -181 q 430 -222 465 -222 z "},"Ḹ":{"ha":833,"x_min":132,"x_max":747,"o":"m 747 0 l 132 0 l 132 1010 l 254 1010 l 254 101 l 747 101 l 747 0 m 430 -222 q 374 -202 394 -222 q 353 -146 353 -181 q 374 -91 353 -111 q 430 -70 394 -70 q 485 -91 465 -70 q 506 -146 506 -111 q 485 -202 506 -181 q 430 -222 465 -222 m 675 1143 l 160 1143 l 160 1256 l 675 1256 l 675 1143 z "},"Ⱡ":{"ha":833,"x_min":19,"x_max":747,"o":"m 254 368 l 254 101 l 747 101 l 747 0 l 132 0 l 132 368 l 19 368 l 19 500 l 132 500 l 132 647 l 19 647 l 19 779 l 132 779 l 132 1010 l 254 1010 l 254 779 l 379 779 l 379 647 l 254 647 l 254 500 l 379 500 l 379 368 l 254 368 z "},"Ꝉ":{"ha":833,"x_min":48,"x_max":747,"o":"m 254 771 l 254 101 l 747 101 l 747 0 l 132 0 l 132 771 l 48 771 l 48 910 l 132 910 l 132 1010 l 254 1010 l 254 910 l 352 910 l 352 771 l 254 771 z "},"ǈ":{"ha":833,"x_min":103,"x_max":858,"o":"m 767 926 q 696 947 717 926 q 675 1018 675 968 q 696 1089 675 1068 q 767 1110 717 1110 q 838 1089 817 1110 q 858 1018 858 1068 q 838 947 858 968 q 767 926 817 926 m 608 111 l 103 111 l 103 1007 l 226 1007 l 226 213 l 608 213 l 608 111 m 463 11 q 500 -120 463 -74 q 606 -167 538 -167 q 679 -142 648 -167 q 726 -80 710 -118 q 742 -3 742 -42 l 742 681 l 486 681 l 486 774 l 858 774 l 858 0 q 827 -143 858 -82 q 739 -236 796 -203 q 607 -268 683 -268 q 472 -235 531 -268 q 380 -139 413 -202 q 347 11 347 -76 l 463 11 z "},"Ḻ":{"ha":833,"x_min":132,"x_max":747,"o":"m 747 0 l 132 0 l 132 1010 l 254 1010 l 254 101 l 747 101 l 747 0 m 686 -217 l 171 -217 l 171 -104 l 686 -104 l 686 -217 z "},"Ɫ":{"ha":833,"x_min":-45,"x_max":747,"o":"m 254 101 l 747 101 l 747 0 l 132 0 l 132 647 q 103 653 118 653 q 61 640 81 653 q 15 593 42 627 l -45 679 q 112 763 22 763 q 132 761 119 763 l 132 1010 l 254 1010 l 254 706 q 283 693 272 697 q 308 689 294 689 q 337 696 324 689 q 375 723 349 703 l 399 742 l 452 665 q 380 602 421 624 q 298 579 340 579 q 254 587 277 579 l 254 101 z "},"Ł":{"ha":833,"x_min":42,"x_max":782,"o":"m 782 0 l 158 0 l 158 443 l 42 374 l 42 479 l 158 547 l 158 1007 l 289 1007 l 289 619 l 557 779 l 557 675 l 289 515 l 289 101 l 782 101 l 782 0 z "},"Ꞁ":{"ha":833,"x_min":86,"x_max":701,"o":"m 86 1007 l 701 1007 l 701 -3 l 579 -3 l 579 906 l 86 906 l 86 1007 z "},"M":{"ha":833,"x_min":85,"x_max":749,"o":"m 416 440 l 546 1007 l 749 1007 l 749 0 l 629 0 l 629 842 l 620 830 l 467 278 l 365 278 l 213 830 l 204 842 l 204 0 l 85 0 l 85 1007 l 286 1007 l 416 440 z "},"Ｍ":{"ha":833,"x_min":85,"x_max":749,"o":"m 416 440 l 546 1007 l 749 1007 l 749 0 l 629 0 l 629 842 l 620 830 l 467 278 l 365 278 l 213 830 l 204 842 l 204 0 l 85 0 l 85 1007 l 286 1007 l 416 440 z "},"Ḿ":{"ha":833,"x_min":85,"x_max":749,"o":"m 416 440 l 546 1007 l 749 1007 l 749 0 l 629 0 l 629 842 l 620 830 l 467 278 l 365 278 l 213 830 l 204 842 l 204 0 l 85 0 l 85 1007 l 286 1007 l 416 440 m 556 1364 l 375 1079 l 276 1079 l 399 1364 l 556 1364 z "},"Ṁ":{"ha":833,"x_min":85,"x_max":749,"o":"m 416 440 l 546 1007 l 749 1007 l 749 0 l 629 0 l 629 842 l 620 830 l 467 278 l 365 278 l 213 830 l 204 842 l 204 0 l 85 0 l 85 1007 l 286 1007 l 416 440 m 393 1164 q 328 1188 351 1164 q 304 1254 304 1213 q 328 1319 304 1296 q 393 1343 351 1343 q 458 1319 435 1343 q 482 1254 482 1296 q 458 1188 482 1213 q 393 1164 435 1164 z "},"Ṃ":{"ha":833,"x_min":85,"x_max":749,"o":"m 416 440 l 546 1007 l 749 1007 l 749 0 l 629 0 l 629 842 l 620 830 l 467 278 l 365 278 l 213 830 l 204 842 l 204 0 l 85 0 l 85 1007 l 286 1007 l 416 440 m 384 -179 q 328 -159 349 -179 q 308 -103 308 -138 q 328 -48 308 -68 q 384 -27 349 -27 q 439 -48 419 -27 q 460 -103 460 -68 q 439 -159 460 -138 q 384 -179 419 -179 z "},"Ɯ":{"ha":833,"x_min":38,"x_max":726,"o":"m 717 104 q 726 -76 717 46 l 617 -76 l 609 13 q 558 -63 590 -39 q 480 -87 526 -87 q 406 -57 438 -87 q 366 51 374 -27 q 307 -57 349 -28 q 203 -86 266 -86 q 122 -58 160 -86 q 61 23 84 -31 q 38 149 38 76 l 38 688 l 160 688 l 160 178 q 177 52 160 91 q 231 14 194 14 q 315 164 315 14 l 315 688 l 438 688 l 438 178 q 460 54 438 94 q 520 14 482 14 q 574 47 556 14 q 592 164 592 81 l 592 688 l 717 688 l 717 104 z "},"N":{"ha":833,"x_min":124,"x_max":701,"o":"m 243 0 l 124 0 l 124 1007 l 297 1007 l 579 163 l 579 1007 l 701 1007 l 701 0 l 535 0 l 243 828 l 243 0 z "},"Ｎ":{"ha":833,"x_min":124,"x_max":701,"o":"m 243 0 l 124 0 l 124 1007 l 297 1007 l 579 163 l 579 1007 l 701 1007 l 701 0 l 535 0 l 243 828 l 243 0 z "},"Ǌ":{"ha":833,"x_min":71,"x_max":760,"o":"m 403 303 l 176 869 l 176 0 l 71 0 l 71 1007 l 249 1007 l 457 457 l 457 829 l 563 829 l 563 303 l 403 303 m 322 1007 l 760 1007 l 760 301 q 733 122 760 191 q 650 19 706 52 q 506 -14 594 -14 q 308 62 377 -14 q 239 272 239 138 l 346 272 q 389 136 346 183 q 508 89 431 89 q 636 304 636 89 l 636 901 l 322 901 l 322 1007 z "},"Ń":{"ha":833,"x_min":124,"x_max":701,"o":"m 243 0 l 124 0 l 124 1007 l 297 1007 l 579 163 l 579 1007 l 701 1007 l 701 0 l 535 0 l 243 828 l 243 0 m 556 1361 l 375 1076 l 276 1076 l 399 1361 l 556 1361 z "},"Ň":{"ha":833,"x_min":124,"x_max":701,"o":"m 243 0 l 124 0 l 124 1007 l 297 1007 l 579 163 l 579 1007 l 701 1007 l 701 0 l 535 0 l 243 828 l 243 0 m 517 1094 l 386 1094 l 251 1299 l 335 1299 l 451 1175 l 568 1299 l 651 1299 l 517 1094 z "},"Ṋ":{"ha":833,"x_min":124,"x_max":701,"o":"m 243 0 l 124 0 l 124 1007 l 297 1007 l 579 163 l 579 1007 l 701 1007 l 701 0 l 535 0 l 243 828 l 243 0 m 301 -260 l 218 -260 l 356 -65 l 481 -65 l 615 -260 l 532 -260 l 417 -122 l 301 -260 z "},"Ņ":{"ha":833,"x_min":124,"x_max":701,"o":"m 243 0 l 124 0 l 124 1007 l 297 1007 l 579 163 l 579 1007 l 701 1007 l 701 0 l 535 0 l 243 828 l 243 0 m 337 -289 q 376 -280 357 -287 q 402 -268 396 -274 q 419 -253 413 -260 q 424 -233 424 -247 q 419 -209 424 -219 q 400 -191 413 -199 q 374 -173 383 -180 q 357 -152 365 -165 q 349 -119 349 -138 q 355 -76 349 -92 q 376 -54 361 -61 q 420 -47 392 -47 q 479 -64 463 -47 q 495 -122 495 -81 q 485 -226 495 -192 q 470 -262 477 -249 q 452 -287 463 -276 q 394 -320 433 -306 q 361 -328 379 -325 q 337 -332 344 -332 l 337 -289 z "},"Ṅ":{"ha":833,"x_min":124,"x_max":701,"o":"m 243 0 l 124 0 l 124 1007 l 297 1007 l 579 163 l 579 1007 l 701 1007 l 701 0 l 535 0 l 243 828 l 243 0 m 417 1097 q 351 1122 375 1097 q 328 1188 328 1146 q 351 1253 328 1229 q 417 1276 375 1276 q 482 1253 458 1276 q 506 1188 506 1229 q 482 1122 506 1146 q 417 1097 458 1097 z "},"Ṇ":{"ha":833,"x_min":124,"x_max":701,"o":"m 243 0 l 124 0 l 124 1007 l 297 1007 l 579 163 l 579 1007 l 701 1007 l 701 0 l 535 0 l 243 828 l 243 0 m 417 -196 q 361 -175 382 -196 q 341 -119 341 -155 q 361 -64 341 -85 q 417 -44 382 -44 q 473 -64 452 -44 q 493 -119 493 -85 q 473 -175 493 -155 q 417 -196 452 -196 z "},"Ǹ":{"ha":833,"x_min":124,"x_max":701,"o":"m 243 0 l 124 0 l 124 1007 l 297 1007 l 579 163 l 579 1007 l 701 1007 l 701 0 l 535 0 l 243 828 l 243 0 m 556 1076 l 453 1076 l 263 1361 l 426 1361 l 556 1076 z "},"Ŋ":{"ha":833,"x_min":121,"x_max":714,"o":"m 608 1007 l 714 1007 l 714 0 q 691 -192 714 -124 q 624 -286 669 -260 q 506 -312 579 -312 q 303 -117 303 -312 l 418 -117 q 504 -219 425 -219 q 565 -191 546 -219 q 590 -119 585 -162 q 594 0 594 -75 l 536 0 l 226 869 l 226 0 l 121 0 l 121 1007 l 299 1007 l 608 135 l 608 1007 z "},"Ɲ":{"ha":833,"x_min":-54,"x_max":713,"o":"m 579 1007 l 713 1007 l 713 0 l 535 0 l 243 810 l 243 0 q 199 -181 243 -122 q 50 -239 154 -240 l -54 -239 l -54 -140 l 54 -140 q 104 -106 88 -140 q 119 0 119 -72 l 119 1007 l 297 1007 l 579 199 l 579 1007 z "},"ǋ":{"ha":833,"x_min":86,"x_max":828,"o":"m 192 0 l 86 0 l 86 1007 l 264 1007 l 519 196 l 519 533 l 625 533 l 625 0 l 488 0 l 192 869 l 192 0 m 519 1007 l 625 1007 l 625 757 l 519 757 l 519 1007 m 746 829 q 684 848 702 829 q 665 910 665 866 q 684 972 665 953 q 746 990 702 990 q 808 972 790 990 q 826 910 826 953 q 808 848 826 866 q 746 829 790 829 m 414 0 q 458 -132 414 -84 q 581 -179 502 -179 q 651 -152 622 -176 q 693 -92 679 -128 q 707 -17 707 -56 l 707 597 l 439 597 l 439 694 l 828 694 l 828 -21 q 798 -156 828 -98 q 711 -247 767 -215 q 577 -279 654 -279 q 377 -206 446 -279 q 308 0 308 -133 l 414 0 z "},"Ṉ":{"ha":833,"x_min":124,"x_max":701,"o":"m 243 0 l 124 0 l 124 1007 l 297 1007 l 579 163 l 579 1007 l 701 1007 l 701 0 l 535 0 l 243 828 l 243 0 m 674 -190 l 158 -190 l 158 -78 l 674 -78 l 674 -190 z "},"Ƞ":{"ha":833,"x_min":89,"x_max":744,"o":"m 93 847 q 89 1007 93 907 l 213 1007 l 218 899 q 330 991 263 959 q 476 1024 397 1024 q 681 953 617 1024 q 744 749 744 883 l 744 -135 l 599 -135 l 599 701 q 590 819 599 778 q 548 887 582 861 q 440 913 514 913 q 280 842 329 913 q 231 663 231 772 l 231 0 l 93 0 l 93 847 z "},"Ñ":{"ha":833,"x_min":124,"x_max":701,"o":"m 243 0 l 124 0 l 124 1007 l 297 1007 l 579 163 l 579 1007 l 701 1007 l 701 0 l 535 0 l 243 828 l 243 0 m 510 1108 q 456 1119 484 1108 q 392 1151 428 1130 q 345 1176 359 1171 q 315 1182 331 1182 q 273 1169 292 1182 q 226 1122 254 1156 l 167 1208 q 324 1292 234 1292 q 373 1284 352 1292 q 426 1258 393 1276 l 442 1249 q 490 1223 478 1228 q 519 1218 502 1218 q 549 1225 536 1218 q 587 1252 561 1232 l 611 1271 l 664 1194 q 592 1131 633 1153 q 510 1108 551 1108 z "},"O":{"ha":833,"x_min":44,"x_max":786,"o":"m 417 -17 q 209 54 292 -17 q 85 245 126 124 q 44 521 44 367 q 89 783 44 670 q 218 958 133 896 q 417 1021 302 1021 q 615 959 531 1021 q 742 783 698 897 q 786 521 786 670 q 746 245 786 367 q 624 54 706 124 q 417 -17 541 -17 m 413 100 q 540 153 486 100 q 623 301 594 207 q 651 514 651 395 q 620 716 651 624 q 534 860 588 807 q 414 913 479 913 q 295 860 349 913 q 210 716 242 807 q 179 514 179 624 q 206 301 179 394 q 286 153 233 207 q 413 100 339 100 z "},"Ｏ":{"ha":833,"x_min":44,"x_max":786,"o":"m 417 -17 q 209 54 292 -17 q 85 245 126 124 q 44 521 44 367 q 89 783 44 670 q 218 958 133 896 q 417 1021 302 1021 q 615 959 531 1021 q 742 783 698 897 q 786 521 786 670 q 746 245 786 367 q 624 54 706 124 q 417 -17 541 -17 m 413 100 q 540 153 486 100 q 623 301 594 207 q 651 514 651 395 q 620 716 651 624 q 534 860 588 807 q 414 913 479 913 q 295 860 349 913 q 210 716 242 807 q 179 514 179 624 q 206 301 179 394 q 286 153 233 207 q 413 100 339 100 z "},"Ꝏ":{"ha":833,"x_min":44,"x_max":844,"o":"m 538 1021 q 702 959 633 1021 q 808 783 772 897 q 844 521 844 670 q 811 245 844 367 q 710 54 778 124 q 538 -17 641 -17 q 445 1 489 -17 q 353 -17 402 -17 q 181 54 250 -17 q 77 245 111 124 q 44 521 44 367 q 81 783 44 670 q 188 958 118 896 q 353 1021 258 1021 q 445 1003 403 1021 q 538 1021 487 1021 m 156 514 q 175 313 156 403 q 233 168 195 224 q 326 102 272 113 q 253 282 277 174 q 228 521 228 390 q 254 744 228 644 q 328 910 280 844 q 240 845 280 899 q 178 703 201 790 q 156 514 156 617 m 565 104 q 655 173 617 117 q 713 317 693 229 q 733 514 733 406 q 710 701 733 615 q 649 842 688 787 q 562 909 610 897 q 635 744 610 843 q 660 521 660 644 q 636 283 660 391 q 565 104 613 176 m 442 139 q 520 286 493 188 q 548 514 548 385 q 519 723 548 629 q 443 867 491 817 q 368 723 396 817 q 340 514 340 629 q 367 286 340 385 q 442 139 393 188 z "},"Ȣ":{"ha":833,"x_min":133,"x_max":701,"o":"m 548 519 q 661 425 622 490 q 701 269 701 361 q 666 118 701 182 q 566 21 631 55 q 418 -13 502 -13 q 264 20 328 -13 q 167 117 200 53 q 133 269 133 180 q 176 423 133 359 q 292 518 218 488 q 201 606 235 549 q 168 733 168 662 l 169 917 q 168 1007 169 978 l 281 1007 l 281 733 q 314 619 281 656 q 418 582 347 582 q 524 620 486 582 q 561 733 561 658 l 561 1007 l 672 1007 l 672 733 q 639 607 672 663 q 548 519 606 551 m 418 98 q 535 143 497 98 q 574 270 574 188 q 535 401 574 353 q 418 450 497 450 q 301 400 340 450 q 263 270 263 350 q 300 141 263 185 q 418 98 338 98 z "},"Ó":{"ha":833,"x_min":44,"x_max":786,"o":"m 417 -17 q 209 54 292 -17 q 85 245 126 124 q 44 521 44 367 q 89 783 44 670 q 218 958 133 896 q 417 1021 302 1021 q 615 959 531 1021 q 742 783 698 897 q 786 521 786 670 q 746 245 786 367 q 624 54 706 124 q 417 -17 541 -17 m 413 100 q 540 153 486 100 q 623 301 594 207 q 651 514 651 395 q 620 716 651 624 q 534 860 588 807 q 414 913 479 913 q 295 860 349 913 q 210 716 242 807 q 179 514 179 624 q 206 301 179 394 q 286 153 233 207 q 413 100 339 100 m 556 1364 l 375 1079 l 276 1079 l 399 1364 l 556 1364 z "},"Ŏ":{"ha":833,"x_min":44,"x_max":786,"o":"m 417 -17 q 209 54 292 -17 q 85 245 126 124 q 44 521 44 367 q 89 783 44 670 q 218 958 133 896 q 417 1021 302 1021 q 615 959 531 1021 q 742 783 698 897 q 786 521 786 670 q 746 245 786 367 q 624 54 706 124 q 417 -17 541 -17 m 413 100 q 540 153 486 100 q 623 301 594 207 q 651 514 651 395 q 620 716 651 624 q 534 860 588 807 q 414 913 479 913 q 295 860 349 913 q 210 716 242 807 q 179 514 179 624 q 206 301 179 394 q 286 153 233 207 q 413 100 339 100 m 415 1072 q 303 1091 353 1072 q 225 1149 253 1110 q 196 1246 196 1188 l 288 1246 q 308 1193 288 1215 q 359 1161 328 1172 q 418 1150 389 1150 q 481 1160 450 1150 q 531 1193 511 1171 q 551 1246 551 1215 l 639 1246 q 609 1149 639 1188 q 528 1091 579 1110 q 415 1072 478 1072 z "},"Ǒ":{"ha":833,"x_min":44,"x_max":786,"o":"m 417 -17 q 209 54 292 -17 q 85 245 126 124 q 44 521 44 367 q 89 783 44 670 q 218 958 133 896 q 417 1021 302 1021 q 615 959 531 1021 q 742 783 698 897 q 786 521 786 670 q 746 245 786 367 q 624 54 706 124 q 417 -17 541 -17 m 413 100 q 540 153 486 100 q 623 301 594 207 q 651 514 651 395 q 620 716 651 624 q 534 860 588 807 q 414 913 479 913 q 295 860 349 913 q 210 716 242 807 q 179 514 179 624 q 206 301 179 394 q 286 153 233 207 q 413 100 339 100 m 481 1090 l 356 1090 l 218 1293 l 301 1293 l 418 1156 l 532 1293 l 615 1293 l 481 1090 z "},"Ɵ":{"ha":833,"x_min":44,"x_max":786,"o":"m 417 1021 q 615 959 531 1021 q 742 783 698 897 q 786 521 786 670 q 746 245 786 367 q 624 54 706 124 q 417 -17 541 -17 q 209 54 292 -17 q 85 245 126 124 q 44 521 44 367 q 89 783 44 670 q 218 958 133 896 q 417 1021 302 1021 m 414 913 q 304 868 354 913 q 222 746 254 824 q 181 571 189 668 l 649 571 q 608 746 642 668 q 524 868 575 824 q 414 913 474 913 m 413 100 q 528 142 478 100 q 609 260 578 185 q 648 435 639 336 l 183 435 q 220 260 191 335 q 298 142 249 185 q 413 100 347 100 z "},"Ô":{"ha":833,"x_min":44,"x_max":786,"o":"m 417 -17 q 209 54 292 -17 q 85 245 126 124 q 44 521 44 367 q 89 783 44 670 q 218 958 133 896 q 417 1021 302 1021 q 615 959 531 1021 q 742 783 698 897 q 786 521 786 670 q 746 245 786 367 q 624 54 706 124 q 417 -17 541 -17 m 413 100 q 540 153 486 100 q 623 301 594 207 q 651 514 651 395 q 620 716 651 624 q 534 860 588 807 q 414 913 479 913 q 295 860 349 913 q 210 716 242 807 q 179 514 179 624 q 206 301 179 394 q 286 153 233 207 q 413 100 339 100 m 244 1110 l 113 1110 l 338 1364 l 497 1364 l 721 1110 l 590 1110 l 417 1292 l 244 1110 z "},"Ố":{"ha":833,"x_min":44,"x_max":786,"o":"m 417 -17 q 209 54 292 -17 q 85 245 126 124 q 44 521 44 367 q 89 783 44 670 q 218 958 133 896 q 417 1021 302 1021 q 615 959 531 1021 q 742 783 698 897 q 786 521 786 670 q 746 245 786 367 q 624 54 706 124 q 417 -17 541 -17 m 413 100 q 540 153 486 100 q 623 301 594 207 q 651 514 651 395 q 620 716 651 624 q 534 860 588 807 q 414 913 479 913 q 295 860 349 913 q 210 716 242 807 q 179 514 179 624 q 206 301 179 394 q 286 153 233 207 q 413 100 339 100 m 244 1029 l 113 1029 l 338 1283 l 497 1283 l 721 1029 l 590 1029 l 417 1211 l 244 1029 m 553 1625 l 372 1340 l 274 1340 l 396 1625 l 553 1625 z "},"Ộ":{"ha":833,"x_min":44,"x_max":786,"o":"m 417 -17 q 209 54 292 -17 q 85 245 126 124 q 44 521 44 367 q 89 783 44 670 q 218 958 133 896 q 417 1021 302 1021 q 615 959 531 1021 q 742 783 698 897 q 786 521 786 670 q 746 245 786 367 q 624 54 706 124 q 417 -17 541 -17 m 413 100 q 540 153 486 100 q 623 301 594 207 q 651 514 651 395 q 620 716 651 624 q 534 860 588 807 q 414 913 479 913 q 295 860 349 913 q 210 716 242 807 q 179 514 179 624 q 206 301 179 394 q 286 153 233 207 q 413 100 339 100 m 417 -207 q 361 -186 382 -207 q 341 -131 341 -166 q 361 -75 341 -96 q 417 -55 382 -55 q 473 -75 452 -55 q 493 -131 493 -96 q 473 -186 493 -166 q 417 -207 452 -207 m 244 1110 l 113 1110 l 338 1364 l 497 1364 l 721 1110 l 590 1110 l 417 1292 l 244 1110 z "},"Ồ":{"ha":833,"x_min":44,"x_max":786,"o":"m 417 -17 q 209 54 292 -17 q 85 245 126 124 q 44 521 44 367 q 89 783 44 670 q 218 958 133 896 q 417 1021 302 1021 q 615 959 531 1021 q 742 783 698 897 q 786 521 786 670 q 746 245 786 367 q 624 54 706 124 q 417 -17 541 -17 m 413 100 q 540 153 486 100 q 623 301 594 207 q 651 514 651 395 q 620 716 651 624 q 534 860 588 807 q 414 913 479 913 q 295 860 349 913 q 210 716 242 807 q 179 514 179 624 q 206 301 179 394 q 286 153 233 207 q 413 100 339 100 m 244 1061 l 113 1061 l 338 1315 l 497 1315 l 721 1061 l 590 1061 l 417 1243 l 244 1061 m 556 1346 l 453 1346 l 263 1631 l 426 1631 l 556 1346 z "},"Ổ":{"ha":833,"x_min":44,"x_max":786,"o":"m 417 -17 q 209 54 292 -17 q 85 245 126 124 q 44 521 44 367 q 89 783 44 670 q 218 958 133 896 q 417 1021 302 1021 q 615 959 531 1021 q 742 783 698 897 q 786 521 786 670 q 746 245 786 367 q 624 54 706 124 q 417 -17 541 -17 m 413 100 q 540 153 486 100 q 623 301 594 207 q 651 514 651 395 q 620 716 651 624 q 534 860 588 807 q 414 913 479 913 q 295 860 349 913 q 210 716 242 807 q 179 514 179 624 q 206 301 179 394 q 286 153 233 207 q 413 100 339 100 m 244 1039 l 113 1039 l 338 1293 l 497 1293 l 721 1039 l 590 1039 l 417 1221 l 244 1039 m 389 1428 q 433 1447 415 1430 q 451 1485 451 1464 q 438 1518 451 1505 q 404 1532 424 1532 q 368 1528 380 1532 q 331 1513 356 1525 l 331 1576 q 366 1591 349 1587 q 407 1596 383 1596 q 454 1585 428 1596 q 500 1552 481 1574 q 519 1494 519 1529 q 491 1412 519 1446 q 410 1365 463 1378 l 389 1428 z "},"Ỗ":{"ha":833,"x_min":44,"x_max":786,"o":"m 417 -17 q 209 54 292 -17 q 85 245 126 124 q 44 521 44 367 q 89 783 44 670 q 218 958 133 896 q 417 1021 302 1021 q 615 959 531 1021 q 742 783 698 897 q 786 521 786 670 q 746 245 786 367 q 624 54 706 124 q 417 -17 541 -17 m 413 100 q 540 153 486 100 q 623 301 594 207 q 651 514 651 395 q 620 716 651 624 q 534 860 588 807 q 414 913 479 913 q 295 860 349 913 q 210 716 242 807 q 179 514 179 624 q 206 301 179 394 q 286 153 233 207 q 413 100 339 100 m 242 1096 l 110 1096 l 335 1350 l 494 1350 l 718 1096 l 588 1096 l 414 1278 l 242 1096 m 506 1421 q 451 1431 478 1421 q 389 1464 425 1441 q 342 1493 358 1485 q 311 1501 326 1501 q 270 1487 289 1501 q 222 1438 251 1472 l 154 1508 q 232 1575 188 1551 q 319 1599 276 1599 q 380 1587 352 1599 q 436 1556 407 1576 l 469 1537 q 494 1523 485 1527 q 515 1519 503 1519 q 543 1526 531 1519 q 576 1551 555 1533 q 606 1576 590 1565 l 663 1506 q 588 1443 631 1466 q 506 1421 546 1421 z "},"Ȍ":{"ha":833,"x_min":79,"x_max":821,"o":"m 451 -17 q 244 54 327 -17 q 120 245 160 124 q 79 521 79 367 q 124 783 79 670 q 252 958 168 896 q 451 1021 337 1021 q 649 959 566 1021 q 777 783 733 897 q 821 521 821 670 q 781 245 821 367 q 658 54 741 124 q 451 -17 576 -17 m 447 100 q 575 153 521 100 q 658 301 629 207 q 686 514 686 395 q 655 716 686 624 q 568 860 623 807 q 449 913 514 913 q 330 860 383 913 q 245 716 276 807 q 214 514 214 624 q 241 301 214 394 q 321 153 268 207 q 447 100 374 100 m 515 1094 l 421 1094 l 188 1364 l 350 1364 l 515 1094 m 739 1094 l 644 1094 l 411 1364 l 572 1364 l 739 1094 z "},"Ö":{"ha":833,"x_min":44,"x_max":786,"o":"m 417 -17 q 209 54 292 -17 q 85 245 126 124 q 44 521 44 367 q 89 783 44 670 q 218 958 133 896 q 417 1021 302 1021 q 615 959 531 1021 q 742 783 698 897 q 786 521 786 670 q 746 245 786 367 q 624 54 706 124 q 417 -17 541 -17 m 413 100 q 540 153 486 100 q 623 301 594 207 q 651 514 651 395 q 620 716 651 624 q 534 860 588 807 q 414 913 479 913 q 295 860 349 913 q 210 716 242 807 q 179 514 179 624 q 206 301 179 394 q 286 153 233 207 q 413 100 339 100 m 244 1118 q 179 1142 202 1118 q 156 1206 156 1165 q 179 1270 156 1247 q 244 1294 202 1294 q 309 1270 285 1294 q 332 1206 332 1247 q 309 1142 332 1165 q 244 1118 285 1118 m 600 1118 q 533 1142 558 1118 q 508 1207 508 1166 q 533 1271 508 1248 q 600 1294 558 1294 q 665 1271 642 1294 q 689 1207 689 1248 q 665 1142 689 1166 q 600 1118 642 1118 z "},"Ȫ":{"ha":833,"x_min":44,"x_max":786,"o":"m 417 -17 q 209 54 292 -17 q 85 245 126 124 q 44 521 44 367 q 89 783 44 670 q 218 958 133 896 q 417 1021 302 1021 q 615 959 531 1021 q 742 783 698 897 q 786 521 786 670 q 746 245 786 367 q 624 54 706 124 q 417 -17 541 -17 m 413 100 q 540 153 486 100 q 623 301 594 207 q 651 514 651 395 q 620 716 651 624 q 534 860 588 807 q 414 913 479 913 q 295 860 349 913 q 210 716 242 807 q 179 514 179 624 q 206 301 179 394 q 286 153 233 207 q 413 100 339 100 m 244 1118 q 179 1142 202 1118 q 156 1206 156 1165 q 179 1270 156 1247 q 244 1294 202 1294 q 309 1270 285 1294 q 332 1206 332 1247 q 309 1142 332 1165 q 244 1118 285 1118 m 600 1118 q 533 1142 558 1118 q 508 1207 508 1166 q 533 1271 508 1248 q 600 1294 558 1294 q 665 1271 642 1294 q 689 1207 689 1248 q 665 1142 689 1166 q 600 1118 642 1118 m 675 1474 l 160 1474 l 160 1586 l 675 1586 l 675 1474 z "},"Ȯ":{"ha":833,"x_min":44,"x_max":786,"o":"m 417 -17 q 209 54 292 -17 q 85 245 126 124 q 44 521 44 367 q 89 783 44 670 q 218 958 133 896 q 417 1021 302 1021 q 615 959 531 1021 q 742 783 698 897 q 786 521 786 670 q 746 245 786 367 q 624 54 706 124 q 417 -17 541 -17 m 413 100 q 540 153 486 100 q 623 301 594 207 q 651 514 651 395 q 620 716 651 624 q 534 860 588 807 q 414 913 479 913 q 295 860 349 913 q 210 716 242 807 q 179 514 179 624 q 206 301 179 394 q 286 153 233 207 q 413 100 339 100 m 417 1100 q 351 1124 375 1100 q 328 1190 328 1149 q 351 1256 328 1232 q 417 1279 375 1279 q 482 1256 458 1279 q 506 1190 506 1232 q 482 1124 506 1149 q 417 1100 458 1100 z "},"Ȱ":{"ha":833,"x_min":44,"x_max":786,"o":"m 417 -17 q 209 54 292 -17 q 85 245 126 124 q 44 521 44 367 q 89 783 44 670 q 218 958 133 896 q 417 1021 302 1021 q 615 959 531 1021 q 742 783 698 897 q 786 521 786 670 q 746 245 786 367 q 624 54 706 124 q 417 -17 541 -17 m 413 100 q 540 153 486 100 q 623 301 594 207 q 651 514 651 395 q 620 716 651 624 q 534 860 588 807 q 414 913 479 913 q 295 860 349 913 q 210 716 242 807 q 179 514 179 624 q 206 301 179 394 q 286 153 233 207 q 413 100 339 100 m 417 1100 q 351 1124 375 1100 q 328 1190 328 1149 q 351 1256 328 1232 q 417 1279 375 1279 q 482 1256 458 1279 q 506 1190 506 1232 q 482 1124 506 1149 q 417 1100 458 1100 m 675 1474 l 160 1474 l 160 1586 l 675 1586 l 675 1474 z "},"Ọ":{"ha":833,"x_min":44,"x_max":786,"o":"m 417 -17 q 209 54 292 -17 q 85 245 126 124 q 44 521 44 367 q 89 783 44 670 q 218 958 133 896 q 417 1021 302 1021 q 615 959 531 1021 q 742 783 698 897 q 786 521 786 670 q 746 245 786 367 q 624 54 706 124 q 417 -17 541 -17 m 413 100 q 540 153 486 100 q 623 301 594 207 q 651 514 651 395 q 620 716 651 624 q 534 860 588 807 q 414 913 479 913 q 295 860 349 913 q 210 716 242 807 q 179 514 179 624 q 206 301 179 394 q 286 153 233 207 q 413 100 339 100 m 417 -207 q 361 -186 382 -207 q 341 -131 341 -166 q 361 -75 341 -96 q 417 -55 382 -55 q 473 -75 452 -55 q 493 -131 493 -96 q 473 -186 493 -166 q 417 -207 452 -207 z "},"Ò":{"ha":833,"x_min":44,"x_max":786,"o":"m 417 -17 q 209 54 292 -17 q 85 245 126 124 q 44 521 44 367 q 89 783 44 670 q 218 958 133 896 q 417 1021 302 1021 q 615 959 531 1021 q 742 783 698 897 q 786 521 786 670 q 746 245 786 367 q 624 54 706 124 q 417 -17 541 -17 m 413 100 q 540 153 486 100 q 623 301 594 207 q 651 514 651 395 q 620 716 651 624 q 534 860 588 807 q 414 913 479 913 q 295 860 349 913 q 210 716 242 807 q 179 514 179 624 q 206 301 179 394 q 286 153 233 207 q 413 100 339 100 m 556 1079 l 453 1079 l 263 1364 l 426 1364 l 556 1079 z "},"Ỏ":{"ha":833,"x_min":44,"x_max":786,"o":"m 417 -17 q 209 54 292 -17 q 85 245 126 124 q 44 521 44 367 q 89 783 44 670 q 218 958 133 896 q 417 1021 302 1021 q 615 959 531 1021 q 742 783 698 897 q 786 521 786 670 q 746 245 786 367 q 624 54 706 124 q 417 -17 541 -17 m 413 100 q 540 153 486 100 q 623 301 594 207 q 651 514 651 395 q 620 716 651 624 q 534 860 588 807 q 414 913 479 913 q 295 860 349 913 q 210 716 242 807 q 179 514 179 624 q 206 301 179 394 q 286 153 233 207 q 413 100 339 100 m 389 1129 q 433 1148 415 1131 q 451 1186 451 1165 q 438 1220 451 1206 q 404 1233 424 1233 q 368 1230 380 1233 q 331 1214 356 1226 l 331 1278 q 366 1293 349 1288 q 407 1297 383 1297 q 454 1286 428 1297 q 500 1253 481 1276 q 519 1196 519 1231 q 491 1113 519 1147 q 410 1067 463 1079 l 389 1129 z "},"Ơ":{"ha":833,"x_min":44,"x_max":846,"o":"m 750 1089 l 846 1089 l 846 1001 q 838 930 846 954 q 811 898 829 906 q 758 889 792 889 l 714 889 l 685 889 q 760 729 734 823 q 786 521 786 635 q 746 245 786 367 q 624 54 706 124 q 417 -17 541 -17 q 209 54 292 -17 q 85 245 126 124 q 44 521 44 367 q 89 783 44 670 q 218 958 133 896 q 417 1021 302 1021 q 608 964 525 1021 l 718 963 q 741 974 731 963 q 750 1011 750 985 l 750 1089 m 413 100 q 540 153 486 100 q 623 301 594 207 q 651 514 651 395 q 620 716 651 624 q 534 860 588 807 q 414 913 479 913 q 295 860 349 913 q 210 716 242 807 q 179 514 179 624 q 206 301 179 394 q 286 153 233 207 q 413 100 339 100 z "},"Ớ":{"ha":833,"x_min":44,"x_max":846,"o":"m 750 1089 l 846 1089 l 846 1001 q 838 930 846 954 q 811 898 829 906 q 758 889 792 889 l 714 889 l 685 889 q 760 729 734 823 q 786 521 786 635 q 746 245 786 367 q 624 54 706 124 q 417 -17 541 -17 q 209 54 292 -17 q 85 245 126 124 q 44 521 44 367 q 89 783 44 670 q 218 958 133 896 q 417 1021 302 1021 q 608 964 525 1021 l 718 963 q 741 974 731 963 q 750 1011 750 985 l 750 1089 m 413 100 q 540 153 486 100 q 623 301 594 207 q 651 514 651 395 q 620 716 651 624 q 534 860 588 807 q 414 913 479 913 q 295 860 349 913 q 210 716 242 807 q 179 514 179 624 q 206 301 179 394 q 286 153 233 207 q 413 100 339 100 m 556 1364 l 375 1079 l 276 1079 l 399 1364 l 556 1364 z "},"Ợ":{"ha":833,"x_min":44,"x_max":846,"o":"m 750 1089 l 846 1089 l 846 1001 q 838 930 846 954 q 811 898 829 906 q 758 889 792 889 l 714 889 l 685 889 q 760 729 734 823 q 786 521 786 635 q 746 245 786 367 q 624 54 706 124 q 417 -17 541 -17 q 209 54 292 -17 q 85 245 126 124 q 44 521 44 367 q 89 783 44 670 q 218 958 133 896 q 417 1021 302 1021 q 608 964 525 1021 l 718 963 q 741 974 731 963 q 750 1011 750 985 l 750 1089 m 413 100 q 540 153 486 100 q 623 301 594 207 q 651 514 651 395 q 620 716 651 624 q 534 860 588 807 q 414 913 479 913 q 295 860 349 913 q 210 716 242 807 q 179 514 179 624 q 206 301 179 394 q 286 153 233 207 q 413 100 339 100 m 417 -196 q 361 -175 382 -196 q 341 -119 341 -155 q 361 -64 341 -85 q 417 -44 382 -44 q 473 -64 452 -44 q 493 -119 493 -85 q 473 -175 493 -155 q 417 -196 452 -196 z "},"Ờ":{"ha":833,"x_min":44,"x_max":846,"o":"m 750 1089 l 846 1089 l 846 1001 q 838 930 846 954 q 811 898 829 906 q 758 889 792 889 l 714 889 l 685 889 q 760 729 734 823 q 786 521 786 635 q 746 245 786 367 q 624 54 706 124 q 417 -17 541 -17 q 209 54 292 -17 q 85 245 126 124 q 44 521 44 367 q 89 783 44 670 q 218 958 133 896 q 417 1021 302 1021 q 608 964 525 1021 l 718 963 q 741 974 731 963 q 750 1011 750 985 l 750 1089 m 413 100 q 540 153 486 100 q 623 301 594 207 q 651 514 651 395 q 620 716 651 624 q 534 860 588 807 q 414 913 479 913 q 295 860 349 913 q 210 716 242 807 q 179 514 179 624 q 206 301 179 394 q 286 153 233 207 q 413 100 339 100 m 556 1079 l 453 1079 l 263 1364 l 426 1364 l 556 1079 z "},"Ở":{"ha":833,"x_min":44,"x_max":846,"o":"m 750 1089 l 846 1089 l 846 1001 q 838 930 846 954 q 811 898 829 906 q 758 889 792 889 l 714 889 l 685 889 q 760 729 734 823 q 786 521 786 635 q 746 245 786 367 q 624 54 706 124 q 417 -17 541 -17 q 209 54 292 -17 q 85 245 126 124 q 44 521 44 367 q 89 783 44 670 q 218 958 133 896 q 417 1021 302 1021 q 608 964 525 1021 l 718 963 q 741 974 731 963 q 750 1011 750 985 l 750 1089 m 413 100 q 540 153 486 100 q 623 301 594 207 q 651 514 651 395 q 620 716 651 624 q 534 860 588 807 q 414 913 479 913 q 295 860 349 913 q 210 716 242 807 q 179 514 179 624 q 206 301 179 394 q 286 153 233 207 q 413 100 339 100 m 389 1129 q 433 1148 415 1131 q 451 1186 451 1165 q 438 1220 451 1206 q 404 1233 424 1233 q 368 1230 380 1233 q 331 1214 356 1226 l 331 1278 q 366 1293 349 1288 q 407 1297 383 1297 q 454 1286 428 1297 q 500 1253 481 1276 q 519 1196 519 1231 q 491 1113 519 1147 q 410 1067 463 1079 l 389 1129 z "},"Ỡ":{"ha":833,"x_min":44,"x_max":846,"o":"m 750 1089 l 846 1089 l 846 1001 q 838 930 846 954 q 811 898 829 906 q 758 889 792 889 l 714 889 l 685 889 q 760 729 734 823 q 786 521 786 635 q 746 245 786 367 q 624 54 706 124 q 417 -17 541 -17 q 209 54 292 -17 q 85 245 126 124 q 44 521 44 367 q 89 783 44 670 q 218 958 133 896 q 417 1021 302 1021 q 608 964 525 1021 l 718 963 q 741 974 731 963 q 750 1011 750 985 l 750 1089 m 413 100 q 540 153 486 100 q 623 301 594 207 q 651 514 651 395 q 620 716 651 624 q 534 860 588 807 q 414 913 479 913 q 295 860 349 913 q 210 716 242 807 q 179 514 179 624 q 206 301 179 394 q 286 153 233 207 q 413 100 339 100 m 510 1118 q 456 1128 482 1118 q 393 1161 429 1138 q 346 1190 362 1182 q 315 1199 331 1199 q 274 1184 293 1199 q 226 1135 256 1169 l 158 1206 q 236 1272 192 1248 q 324 1296 281 1296 q 384 1284 356 1296 q 440 1253 411 1273 l 474 1234 q 498 1220 489 1224 q 519 1217 507 1217 q 547 1224 535 1217 q 580 1249 559 1231 q 610 1274 594 1262 l 667 1203 q 592 1141 635 1163 q 510 1118 550 1118 z "},"Ő":{"ha":833,"x_min":44,"x_max":786,"o":"m 417 -17 q 209 54 292 -17 q 85 245 126 124 q 44 521 44 367 q 89 783 44 670 q 218 958 133 896 q 417 1021 302 1021 q 615 959 531 1021 q 742 783 698 897 q 786 521 786 670 q 746 245 786 367 q 624 54 706 124 q 417 -17 541 -17 m 413 100 q 540 153 486 100 q 623 301 594 207 q 651 514 651 395 q 620 716 651 624 q 534 860 588 807 q 414 913 479 913 q 295 860 349 913 q 210 716 242 807 q 179 514 179 624 q 206 301 179 394 q 286 153 233 207 q 413 100 339 100 m 286 1125 l 200 1125 l 331 1326 l 474 1326 l 286 1125 m 544 1125 l 457 1125 l 589 1326 l 731 1326 l 544 1125 z "},"Ƣ":{"ha":833,"x_min":24,"x_max":806,"o":"m 592 1040 q 691 1013 642 1040 q 773 919 740 985 q 806 750 806 854 l 806 -224 l 701 -224 l 701 744 q 590 926 701 926 q 511 902 561 926 q 582 739 557 838 q 607 506 607 639 q 569 239 607 353 q 467 61 532 124 q 322 -1 402 -1 q 175 61 243 -1 q 65 240 106 124 q 24 506 24 355 q 65 769 24 655 q 175 944 106 883 q 324 1006 244 1006 q 439 972 385 1006 q 507 1020 467 1000 q 592 1040 547 1040 m 319 135 q 406 178 369 135 q 461 303 442 222 q 481 499 481 385 q 461 700 481 615 q 406 829 442 784 q 319 874 369 874 q 233 828 272 874 q 172 697 194 782 q 150 496 150 611 q 172 303 150 385 q 233 178 194 222 q 319 135 272 135 z "},"Ȏ":{"ha":833,"x_min":44,"x_max":786,"o":"m 417 -17 q 209 54 292 -17 q 85 245 126 124 q 44 521 44 367 q 89 783 44 670 q 218 958 133 896 q 417 1021 302 1021 q 615 959 531 1021 q 742 783 698 897 q 786 521 786 670 q 746 245 786 367 q 624 54 706 124 q 417 -17 541 -17 m 413 100 q 540 153 486 100 q 623 301 594 207 q 651 514 651 395 q 620 716 651 624 q 534 860 588 807 q 414 913 479 913 q 295 860 349 913 q 210 716 242 807 q 179 514 179 624 q 206 301 179 394 q 286 153 233 207 q 413 100 339 100 m 417 1307 q 530 1288 479 1307 q 610 1230 581 1269 q 640 1133 640 1191 l 553 1133 q 533 1186 553 1165 q 482 1219 513 1208 q 419 1229 451 1229 q 360 1218 390 1229 q 309 1186 330 1208 q 289 1133 289 1164 l 197 1133 q 226 1230 197 1191 q 305 1288 255 1269 q 417 1307 354 1307 z "},"Ꝋ":{"ha":833,"x_min":44,"x_max":786,"o":"m 417 1021 q 615 959 531 1021 q 742 783 698 897 q 786 521 786 670 q 746 245 786 367 q 624 54 706 124 q 417 -17 541 -17 q 209 54 292 -17 q 85 245 126 124 q 44 521 44 367 q 89 783 44 670 q 218 958 133 896 q 417 1021 302 1021 m 414 913 q 308 872 357 913 q 227 759 260 831 q 184 595 194 686 l 647 595 q 603 758 636 686 q 520 872 569 831 q 414 913 471 913 m 413 100 q 530 144 479 100 q 611 268 581 189 q 649 449 642 347 l 181 449 q 217 267 188 346 q 296 144 247 188 q 413 100 346 100 z "},"Ō":{"ha":833,"x_min":44,"x_max":786,"o":"m 417 -17 q 209 54 292 -17 q 85 245 126 124 q 44 521 44 367 q 89 783 44 670 q 218 958 133 896 q 417 1021 302 1021 q 615 959 531 1021 q 742 783 698 897 q 786 521 786 670 q 746 245 786 367 q 624 54 706 124 q 417 -17 541 -17 m 413 100 q 540 153 486 100 q 623 301 594 207 q 651 514 651 395 q 620 716 651 624 q 534 860 588 807 q 414 913 479 913 q 295 860 349 913 q 210 716 242 807 q 179 514 179 624 q 206 301 179 394 q 286 153 233 207 q 413 100 339 100 m 675 1138 l 160 1138 l 160 1250 l 675 1250 l 675 1138 z "},"Ṓ":{"ha":833,"x_min":44,"x_max":786,"o":"m 417 -17 q 209 54 292 -17 q 85 245 126 124 q 44 521 44 367 q 89 783 44 670 q 218 958 133 896 q 417 1021 302 1021 q 615 959 531 1021 q 742 783 698 897 q 786 521 786 670 q 746 245 786 367 q 624 54 706 124 q 417 -17 541 -17 m 413 100 q 540 153 486 100 q 623 301 594 207 q 651 514 651 395 q 620 716 651 624 q 534 860 588 807 q 414 913 479 913 q 295 860 349 913 q 210 716 242 807 q 179 514 179 624 q 206 301 179 394 q 286 153 233 207 q 413 100 339 100 m 675 1140 l 160 1140 l 160 1253 l 675 1253 l 675 1140 m 556 1642 l 375 1357 l 276 1357 l 399 1642 l 556 1642 z "},"Ṑ":{"ha":833,"x_min":44,"x_max":786,"o":"m 417 -17 q 209 54 292 -17 q 85 245 126 124 q 44 521 44 367 q 89 783 44 670 q 218 958 133 896 q 417 1021 302 1021 q 615 959 531 1021 q 742 783 698 897 q 786 521 786 670 q 746 245 786 367 q 624 54 706 124 q 417 -17 541 -17 m 413 100 q 540 153 486 100 q 623 301 594 207 q 651 514 651 395 q 620 716 651 624 q 534 860 588 807 q 414 913 479 913 q 295 860 349 913 q 210 716 242 807 q 179 514 179 624 q 206 301 179 394 q 286 153 233 207 q 413 100 339 100 m 675 1140 l 160 1140 l 160 1253 l 675 1253 l 675 1140 m 556 1357 l 453 1357 l 263 1642 l 426 1642 l 556 1357 z "},"Ǫ":{"ha":833,"x_min":44,"x_max":786,"o":"m 417 -56 q 400 -67 413 -58 q 377 -90 386 -76 q 368 -122 368 -104 q 381 -159 368 -146 q 417 -172 394 -172 q 460 -166 436 -172 q 501 -151 485 -159 l 501 -239 q 446 -255 477 -250 q 372 -260 415 -260 q 311 -245 344 -260 q 256 -204 278 -230 q 233 -149 233 -178 q 246 -90 233 -112 q 269 -59 258 -69 q 282 -47 280 -49 q 342 -9 292 -37 q 176 85 242 12 q 77 271 109 159 q 44 521 44 383 q 89 783 44 670 q 218 958 133 896 q 417 1021 302 1021 q 615 959 531 1021 q 742 783 698 897 q 786 521 786 670 q 752 263 786 378 q 646 74 717 147 q 468 -13 575 1 q 454 -31 463 -24 q 428 -48 444 -38 l 417 -56 m 179 514 q 206 301 179 394 q 286 153 233 207 q 413 100 339 100 q 540 153 486 100 q 623 301 594 207 q 651 514 651 395 q 620 716 651 624 q 534 860 588 807 q 414 913 479 913 q 295 860 349 913 q 210 716 242 807 q 179 514 179 624 z "},"Ǭ":{"ha":833,"x_min":44,"x_max":786,"o":"m 160 1253 l 675 1253 l 675 1140 l 160 1140 l 160 1253 m 417 -56 q 400 -67 413 -58 q 377 -90 386 -76 q 368 -122 368 -104 q 381 -159 368 -146 q 417 -172 394 -172 q 460 -166 436 -172 q 501 -151 485 -159 l 501 -239 q 446 -255 477 -250 q 372 -260 415 -260 q 311 -245 344 -260 q 256 -204 278 -230 q 233 -149 233 -178 q 246 -90 233 -112 q 269 -59 258 -69 q 282 -47 280 -49 q 342 -9 292 -37 q 176 85 242 12 q 77 271 109 159 q 44 521 44 383 q 89 783 44 670 q 218 958 133 896 q 417 1021 302 1021 q 615 959 531 1021 q 742 783 698 897 q 786 521 786 670 q 752 263 786 378 q 646 74 717 147 q 468 -13 575 1 q 454 -31 463 -24 q 428 -48 444 -38 l 417 -56 m 179 514 q 206 301 179 394 q 286 153 233 207 q 413 100 339 100 q 540 153 486 100 q 623 301 594 207 q 651 514 651 395 q 620 716 651 624 q 534 860 588 807 q 414 913 479 913 q 295 860 349 913 q 210 716 242 807 q 179 514 179 624 z "},"Ɔ":{"ha":833,"x_min":86,"x_max":740,"o":"m 375 -25 q 205 10 281 -25 q 86 118 130 45 l 161 186 q 250 105 198 129 q 374 81 302 81 q 515 131 463 81 q 588 272 567 181 q 610 496 610 363 q 554 809 610 699 q 369 919 498 919 q 261 901 309 919 q 163 829 213 883 l 86 886 q 200 988 126 957 q 365 1019 275 1019 q 569 958 485 1019 q 697 778 653 897 q 740 489 740 660 q 649 105 740 235 q 375 -25 558 -25 z "},"Ø":{"ha":833,"x_min":79,"x_max":821,"o":"m 734 867 q 799 714 776 802 q 821 521 821 626 q 781 245 821 367 q 658 54 741 124 q 451 -17 576 -17 q 228 67 318 -17 l 175 -25 l 79 29 l 156 163 q 98 324 117 233 q 79 521 79 415 q 124 783 79 670 q 252 958 168 896 q 451 1021 337 1021 q 654 956 569 1021 l 690 1017 l 789 960 l 734 867 m 449 913 q 330 860 383 913 q 245 716 276 807 q 214 514 214 624 q 243 294 214 389 l 570 858 q 449 913 515 913 m 447 100 q 575 153 521 100 q 658 301 629 207 q 686 514 686 395 q 674 642 686 581 q 640 753 662 703 l 303 173 q 447 100 361 100 z "},"Ǿ":{"ha":833,"x_min":79,"x_max":821,"o":"m 734 867 q 799 714 776 802 q 821 521 821 626 q 781 245 821 367 q 658 54 741 124 q 451 -17 576 -17 q 228 67 318 -17 l 175 -25 l 79 29 l 156 163 q 98 324 117 233 q 79 521 79 415 q 124 783 79 670 q 252 958 168 896 q 451 1021 337 1021 q 654 956 569 1021 l 690 1017 l 789 960 l 734 867 m 449 913 q 330 860 383 913 q 245 716 276 807 q 214 514 214 624 q 243 294 214 389 l 570 858 q 449 913 515 913 m 447 100 q 575 153 521 100 q 658 301 629 207 q 686 514 686 395 q 674 642 686 581 q 640 753 662 703 l 303 173 q 447 100 361 100 m 556 1364 l 375 1079 l 276 1079 l 399 1364 l 556 1364 z "},"Õ":{"ha":833,"x_min":44,"x_max":786,"o":"m 417 -17 q 209 54 292 -17 q 85 245 126 124 q 44 521 44 367 q 89 783 44 670 q 218 958 133 896 q 417 1021 302 1021 q 615 959 531 1021 q 742 783 698 897 q 786 521 786 670 q 746 245 786 367 q 624 54 706 124 q 417 -17 541 -17 m 413 100 q 540 153 486 100 q 623 301 594 207 q 651 514 651 395 q 620 716 651 624 q 534 860 588 807 q 414 913 479 913 q 295 860 349 913 q 210 716 242 807 q 179 514 179 624 q 206 301 179 394 q 286 153 233 207 q 413 100 339 100 m 510 1118 q 456 1128 482 1118 q 393 1161 429 1138 q 346 1190 362 1182 q 315 1199 331 1199 q 274 1184 293 1199 q 226 1135 256 1169 l 158 1206 q 236 1272 192 1248 q 324 1296 281 1296 q 384 1284 356 1296 q 440 1253 411 1273 l 474 1234 q 498 1220 489 1224 q 519 1217 507 1217 q 547 1224 535 1217 q 580 1249 559 1231 q 610 1274 594 1262 l 667 1203 q 592 1141 635 1163 q 510 1118 550 1118 z "},"Ṍ":{"ha":833,"x_min":44,"x_max":786,"o":"m 417 -17 q 209 54 292 -17 q 85 245 126 124 q 44 521 44 367 q 89 783 44 670 q 218 958 133 896 q 417 1021 302 1021 q 615 959 531 1021 q 742 783 698 897 q 786 521 786 670 q 746 245 786 367 q 624 54 706 124 q 417 -17 541 -17 m 413 100 q 540 153 486 100 q 623 301 594 207 q 651 514 651 395 q 620 716 651 624 q 534 860 588 807 q 414 913 479 913 q 295 860 349 913 q 210 716 242 807 q 179 514 179 624 q 206 301 179 394 q 286 153 233 207 q 413 100 339 100 m 506 1047 q 451 1057 478 1047 q 389 1090 425 1067 q 342 1119 358 1111 q 311 1128 326 1128 q 270 1113 289 1128 q 222 1064 251 1099 l 154 1135 q 232 1201 188 1177 q 319 1225 276 1225 q 380 1214 352 1225 q 436 1182 407 1202 l 469 1163 q 494 1150 485 1153 q 515 1146 503 1146 q 543 1153 531 1146 q 576 1178 555 1160 q 606 1203 590 1191 l 663 1132 q 588 1070 631 1092 q 506 1047 546 1047 m 536 1556 l 356 1271 l 257 1271 l 379 1556 l 536 1556 z "},"Ṏ":{"ha":833,"x_min":44,"x_max":786,"o":"m 417 -17 q 209 54 292 -17 q 85 245 126 124 q 44 521 44 367 q 89 783 44 670 q 218 958 133 896 q 417 1021 302 1021 q 615 959 531 1021 q 742 783 698 897 q 786 521 786 670 q 746 245 786 367 q 624 54 706 124 q 417 -17 541 -17 m 413 100 q 540 153 486 100 q 623 301 594 207 q 651 514 651 395 q 620 716 651 624 q 534 860 588 807 q 414 913 479 913 q 295 860 349 913 q 210 716 242 807 q 179 514 179 624 q 206 301 179 394 q 286 153 233 207 q 413 100 339 100 m 510 1118 q 456 1128 482 1118 q 393 1161 429 1138 q 346 1190 362 1182 q 315 1199 331 1199 q 274 1184 293 1199 q 226 1135 256 1169 l 158 1206 q 236 1272 192 1248 q 324 1296 281 1296 q 384 1284 356 1296 q 440 1253 411 1273 l 474 1234 q 498 1220 489 1224 q 519 1217 507 1217 q 547 1224 535 1217 q 580 1249 559 1231 q 610 1274 594 1262 l 667 1203 q 592 1141 635 1163 q 510 1118 550 1118 m 244 1293 q 179 1317 202 1293 q 156 1381 156 1340 q 179 1445 156 1422 q 244 1469 202 1469 q 309 1445 285 1469 q 332 1381 332 1422 q 309 1317 332 1340 q 244 1293 285 1293 m 600 1293 q 533 1317 558 1293 q 508 1382 508 1341 q 533 1446 508 1423 q 600 1469 558 1469 q 665 1446 642 1469 q 689 1382 689 1423 q 665 1317 689 1341 q 600 1293 642 1293 z "},"Ȭ":{"ha":833,"x_min":44,"x_max":786,"o":"m 417 -17 q 209 54 292 -17 q 85 245 126 124 q 44 521 44 367 q 89 783 44 670 q 218 958 133 896 q 417 1021 302 1021 q 615 959 531 1021 q 742 783 698 897 q 786 521 786 670 q 746 245 786 367 q 624 54 706 124 q 417 -17 541 -17 m 413 100 q 540 153 486 100 q 623 301 594 207 q 651 514 651 395 q 620 716 651 624 q 534 860 588 807 q 414 913 479 913 q 295 860 349 913 q 210 716 242 807 q 179 514 179 624 q 206 301 179 394 q 286 153 233 207 q 413 100 339 100 m 510 1118 q 456 1128 482 1118 q 393 1161 429 1138 q 346 1190 362 1182 q 315 1199 331 1199 q 274 1184 293 1199 q 226 1135 256 1169 l 158 1206 q 236 1272 192 1248 q 324 1296 281 1296 q 384 1284 356 1296 q 440 1253 411 1273 l 474 1234 q 498 1220 489 1224 q 519 1217 507 1217 q 547 1224 535 1217 q 580 1249 559 1231 q 610 1274 594 1262 l 667 1203 q 592 1141 635 1163 q 510 1118 550 1118 m 676 1472 l 161 1472 l 161 1585 l 676 1585 l 676 1472 z "},"Œ":{"ha":833,"x_min":35,"x_max":799,"o":"m 799 108 l 799 0 l 492 0 q 379 -17 442 -17 q 181 38 257 -17 q 70 205 106 92 q 35 496 35 317 q 121 880 35 753 q 379 1006 207 1006 q 487 994 440 1006 l 788 994 l 788 878 l 513 878 l 513 569 l 775 569 l 775 456 l 513 456 l 513 108 l 799 108 m 164 496 q 181 268 164 356 q 245 132 198 180 q 381 83 292 83 l 382 83 l 382 906 l 381 906 q 212 795 260 906 q 164 496 164 685 z "},"P":{"ha":833,"x_min":118,"x_max":757,"o":"m 118 0 l 118 1007 l 411 1007 q 757 715 757 1007 q 661 491 757 558 q 417 424 565 424 l 240 424 l 240 0 l 118 0 m 365 525 q 507 538 453 525 q 595 592 562 550 q 628 717 628 633 q 598 833 628 792 q 519 889 568 874 q 400 904 469 904 l 240 904 l 240 525 l 365 525 z "},"Ｐ":{"ha":833,"x_min":118,"x_max":757,"o":"m 118 0 l 118 1007 l 411 1007 q 757 715 757 1007 q 661 491 757 558 q 417 424 565 424 l 240 424 l 240 0 l 118 0 m 365 525 q 507 538 453 525 q 595 592 562 550 q 628 717 628 633 q 598 833 628 792 q 519 889 568 874 q 400 904 469 904 l 240 904 l 240 525 l 365 525 z "},"Ṕ":{"ha":833,"x_min":118,"x_max":757,"o":"m 118 0 l 118 1007 l 411 1007 q 757 715 757 1007 q 661 491 757 558 q 417 424 565 424 l 240 424 l 240 0 l 118 0 m 365 525 q 507 538 453 525 q 595 592 562 550 q 628 717 628 633 q 598 833 628 792 q 519 889 568 874 q 400 904 469 904 l 240 904 l 240 525 l 365 525 m 554 1364 l 374 1079 l 275 1079 l 397 1364 l 554 1364 z "},"Ṗ":{"ha":833,"x_min":118,"x_max":757,"o":"m 118 0 l 118 1007 l 411 1007 q 757 715 757 1007 q 661 491 757 558 q 417 424 565 424 l 240 424 l 240 0 l 118 0 m 365 525 q 507 538 453 525 q 595 592 562 550 q 628 717 628 633 q 598 833 628 792 q 519 889 568 874 q 400 904 469 904 l 240 904 l 240 525 l 365 525 m 415 1100 q 350 1124 374 1100 q 326 1190 326 1149 q 350 1256 326 1232 q 415 1279 374 1279 q 481 1256 457 1279 q 504 1190 504 1232 q 481 1124 504 1149 q 415 1100 457 1100 z "},"Ꝓ":{"ha":833,"x_min":18,"x_max":817,"o":"m 526 1007 q 817 715 817 1007 q 737 491 817 558 q 532 424 657 424 l 383 424 l 383 0 l 281 0 l 281 424 l 188 424 q 142 405 156 424 q 128 361 128 385 q 148 309 128 335 q 219 269 167 283 l 183 179 q 95 225 129 203 q 40 281 62 247 q 18 364 18 315 q 40 450 18 413 q 100 506 61 486 q 192 525 140 525 l 281 524 l 281 1007 l 526 1007 m 488 525 q 607 538 561 525 q 680 591 652 550 q 707 717 707 633 q 682 833 707 792 q 616 889 658 874 q 517 904 575 904 l 383 904 l 383 525 l 488 525 z "},"Ƥ":{"ha":833,"x_min":-112,"x_max":757,"o":"m 411 1007 q 757 715 757 1007 q 661 491 757 558 q 417 424 565 424 l 240 424 l 240 0 l 118 0 l 118 907 l 69 907 q 20 873 35 907 q 4 767 4 839 l -112 767 q -95 900 -112 848 q -37 979 -78 952 q 74 1006 4 1006 l 118 1006 l 118 1007 l 411 1007 m 365 525 q 507 538 453 525 q 595 592 562 550 q 628 717 628 633 q 598 833 628 792 q 519 889 568 874 q 400 904 469 904 l 240 904 l 240 525 l 365 525 z "},"Þ":{"ha":833,"x_min":97,"x_max":738,"o":"m 97 0 l 97 1007 l 221 1007 l 221 824 l 392 824 q 643 759 549 824 q 738 535 738 694 q 642 310 738 378 q 397 243 547 243 l 221 243 l 221 0 l 97 0 m 346 344 q 488 357 433 344 q 575 411 542 369 q 608 536 608 453 q 578 652 608 611 q 499 709 549 694 q 381 724 450 724 l 221 724 l 221 344 l 346 344 z "},"Ᵽ":{"ha":833,"x_min":69,"x_max":757,"o":"m 411 1007 q 757 715 757 1007 q 661 491 757 558 q 417 424 565 424 l 240 424 l 240 0 l 118 0 l 118 646 l 69 646 l 69 785 l 118 785 l 118 1007 l 411 1007 m 365 525 q 507 538 453 525 q 595 592 562 550 q 628 717 628 633 q 598 833 628 792 q 519 889 568 874 q 400 904 469 904 l 240 904 l 240 785 l 347 785 l 347 646 l 240 646 l 240 525 l 365 525 z "},"Ꝑ":{"ha":833,"x_min":-1,"x_max":757,"o":"m 411 1007 q 757 715 757 1007 q 661 491 757 558 q 417 424 565 424 l 240 424 l 240 285 l 359 285 l 359 146 l 240 146 l 240 0 l 118 0 l 118 146 l -1 146 l -1 285 l 118 285 l 118 1007 l 411 1007 m 365 525 q 507 538 453 525 q 595 592 562 550 q 628 717 628 633 q 598 833 628 792 q 519 889 568 874 q 400 904 469 904 l 240 904 l 240 525 l 365 525 z "},"Q":{"ha":833,"x_min":44,"x_max":786,"o":"m 480 -8 q 518 -63 488 -42 q 592 -85 547 -85 l 786 -85 l 786 -206 l 561 -206 q 461 -180 508 -206 q 387 -108 415 -153 q 356 -8 358 -63 q 118 156 192 15 q 44 521 44 298 q 90 782 44 669 q 220 958 136 895 q 417 1021 305 1021 q 612 958 528 1021 q 741 782 696 895 q 786 521 786 669 q 714 158 786 299 q 480 -8 641 17 m 179 521 q 413 94 179 94 q 595 210 538 94 q 651 521 651 325 q 622 715 651 626 q 537 858 592 805 q 413 911 483 911 q 289 860 342 911 q 208 721 236 810 q 179 521 179 632 z "},"Ｑ":{"ha":833,"x_min":44,"x_max":786,"o":"m 480 -8 q 518 -63 488 -42 q 592 -85 547 -85 l 786 -85 l 786 -206 l 561 -206 q 461 -180 508 -206 q 387 -108 415 -153 q 356 -8 358 -63 q 118 156 192 15 q 44 521 44 298 q 90 782 44 669 q 220 958 136 895 q 417 1021 305 1021 q 612 958 528 1021 q 741 782 696 895 q 786 521 786 669 q 714 158 786 299 q 480 -8 641 17 m 179 521 q 413 94 179 94 q 595 210 538 94 q 651 521 651 325 q 622 715 651 626 q 537 858 592 805 q 413 911 483 911 q 289 860 342 911 q 208 721 236 810 q 179 521 179 632 z "},"Ɋ":{"ha":833,"x_min":63,"x_max":793,"o":"m 63 493 q 99 769 63 651 q 207 952 135 887 q 383 1018 279 1018 q 503 981 449 1018 q 600 882 558 944 l 600 1006 l 697 1006 l 697 -18 q 720 -89 697 -67 q 793 -110 742 -110 l 793 -208 l 743 -208 q 659 -192 690 -208 q 614 -141 628 -176 q 600 -44 600 -105 l 600 106 q 506 19 561 49 q 383 -11 451 -11 q 207 50 278 -11 q 99 223 135 110 q 63 493 63 336 m 185 493 q 211 283 185 373 q 286 144 238 193 q 396 96 334 96 q 505 144 458 96 q 577 282 552 192 q 603 493 603 372 q 575 705 603 614 q 497 844 547 796 q 383 893 447 893 q 277 845 322 893 q 209 706 233 797 q 185 493 185 616 z "},"Ꝗ":{"ha":833,"x_min":44,"x_max":786,"o":"m 694 14 l 694 -85 l 786 -85 l 786 -206 l 694 -206 l 694 -297 l 588 -297 l 588 -206 l 561 -206 q 461 -180 508 -206 q 387 -108 415 -153 q 356 -8 358 -63 q 118 156 192 15 q 44 521 44 298 q 90 782 44 669 q 220 958 136 895 q 417 1021 305 1021 q 612 958 528 1021 q 741 782 696 895 q 786 521 786 669 q 714 158 786 299 q 480 -8 641 17 q 516 -62 488 -41 q 588 -85 544 -84 l 588 14 l 694 14 m 179 521 q 413 94 179 94 q 595 210 538 94 q 651 521 651 325 q 622 715 651 626 q 537 858 592 805 q 413 911 483 911 q 289 860 342 911 q 208 721 236 810 q 179 521 179 632 z "},"R":{"ha":833,"x_min":121,"x_max":768,"o":"m 768 -6 l 636 -6 l 418 446 l 410 446 l 243 446 l 243 0 l 121 0 l 121 1007 l 424 1007 q 576 976 503 1007 q 695 883 649 946 q 742 728 742 820 q 686 560 742 626 q 540 465 631 493 l 768 -6 m 243 553 l 375 553 q 501 565 450 553 q 584 616 553 578 q 615 729 615 655 q 556 865 615 826 q 404 904 497 904 l 243 904 l 243 553 z "},"Ｒ":{"ha":833,"x_min":121,"x_max":768,"o":"m 768 -6 l 636 -6 l 418 446 l 410 446 l 243 446 l 243 0 l 121 0 l 121 1007 l 424 1007 q 576 976 503 1007 q 695 883 649 946 q 742 728 742 820 q 686 560 742 626 q 540 465 631 493 l 768 -6 m 243 553 l 375 553 q 501 565 450 553 q 584 616 553 578 q 615 729 615 655 q 556 865 615 826 q 404 904 497 904 l 243 904 l 243 553 z "},"Ŕ":{"ha":833,"x_min":121,"x_max":768,"o":"m 768 -6 l 636 -6 l 418 446 l 410 446 l 243 446 l 243 0 l 121 0 l 121 1007 l 424 1007 q 576 976 503 1007 q 695 883 649 946 q 742 728 742 820 q 686 560 742 626 q 540 465 631 493 l 768 -6 m 243 553 l 375 553 q 501 565 450 553 q 584 616 553 578 q 615 729 615 655 q 556 865 615 826 q 404 904 497 904 l 243 904 l 243 553 m 556 1364 l 375 1079 l 276 1079 l 399 1364 l 556 1364 z "},"Ř":{"ha":833,"x_min":121,"x_max":768,"o":"m 768 -6 l 636 -6 l 418 446 l 410 446 l 243 446 l 243 0 l 121 0 l 121 1007 l 424 1007 q 576 976 503 1007 q 695 883 649 946 q 742 728 742 820 q 686 560 742 626 q 540 465 631 493 l 768 -6 m 243 553 l 375 553 q 501 565 450 553 q 584 616 553 578 q 615 729 615 655 q 556 865 615 826 q 404 904 497 904 l 243 904 l 243 553 m 517 1094 l 386 1094 l 251 1299 l 335 1299 l 451 1175 l 568 1299 l 651 1299 l 517 1094 z "},"Ŗ":{"ha":833,"x_min":121,"x_max":768,"o":"m 768 -6 l 636 -6 l 418 446 l 410 446 l 243 446 l 243 0 l 121 0 l 121 1007 l 424 1007 q 576 976 503 1007 q 695 883 649 946 q 742 728 742 820 q 686 560 742 626 q 540 465 631 493 l 768 -6 m 243 553 l 375 553 q 501 565 450 553 q 584 616 553 578 q 615 729 615 655 q 556 865 615 826 q 404 904 497 904 l 243 904 l 243 553 m 337 -289 q 376 -280 357 -287 q 402 -268 396 -274 q 419 -253 413 -260 q 424 -233 424 -247 q 419 -209 424 -219 q 400 -191 413 -199 q 374 -173 383 -180 q 357 -152 365 -165 q 349 -119 349 -138 q 355 -76 349 -92 q 376 -54 361 -61 q 420 -47 392 -47 q 479 -64 463 -47 q 495 -122 495 -81 q 485 -226 495 -192 q 470 -262 477 -249 q 452 -287 463 -276 q 394 -320 433 -306 q 361 -328 379 -325 q 337 -332 344 -332 l 337 -289 z "},"Ȑ":{"ha":833,"x_min":121,"x_max":768,"o":"m 768 -6 l 636 -6 l 418 446 l 410 446 l 243 446 l 243 0 l 121 0 l 121 1007 l 424 1007 q 576 976 503 1007 q 695 883 649 946 q 742 728 742 820 q 686 560 742 626 q 540 465 631 493 l 768 -6 m 243 553 l 375 553 q 501 565 450 553 q 584 616 553 578 q 615 729 615 655 q 556 865 615 826 q 404 904 497 904 l 243 904 l 243 553 m 481 1094 l 386 1094 l 153 1364 l 315 1364 l 481 1094 m 704 1094 l 610 1094 l 376 1364 l 538 1364 l 704 1094 z "},"Ṙ":{"ha":833,"x_min":121,"x_max":768,"o":"m 768 -6 l 636 -6 l 418 446 l 410 446 l 243 446 l 243 0 l 121 0 l 121 1007 l 424 1007 q 576 976 503 1007 q 695 883 649 946 q 742 728 742 820 q 686 560 742 626 q 540 465 631 493 l 768 -6 m 243 553 l 375 553 q 501 565 450 553 q 584 616 553 578 q 615 729 615 655 q 556 865 615 826 q 404 904 497 904 l 243 904 l 243 553 m 417 1100 q 351 1124 375 1100 q 328 1190 328 1149 q 351 1256 328 1232 q 417 1279 375 1279 q 482 1256 458 1279 q 506 1190 506 1232 q 482 1124 506 1149 q 417 1100 458 1100 z "},"Ṛ":{"ha":833,"x_min":121,"x_max":768,"o":"m 768 -6 l 636 -6 l 418 446 l 410 446 l 243 446 l 243 0 l 121 0 l 121 1007 l 424 1007 q 576 976 503 1007 q 695 883 649 946 q 742 728 742 820 q 686 560 742 626 q 540 465 631 493 l 768 -6 m 243 553 l 375 553 q 501 565 450 553 q 584 616 553 578 q 615 729 615 655 q 556 865 615 826 q 404 904 497 904 l 243 904 l 243 553 m 417 -196 q 361 -175 382 -196 q 341 -119 341 -155 q 361 -64 341 -85 q 417 -44 382 -44 q 473 -64 452 -44 q 493 -119 493 -85 q 473 -175 493 -155 q 417 -196 452 -196 z "},"Ṝ":{"ha":833,"x_min":121,"x_max":768,"o":"m 768 -6 l 636 -6 l 418 446 l 410 446 l 243 446 l 243 0 l 121 0 l 121 1007 l 424 1007 q 576 976 503 1007 q 695 883 649 946 q 742 728 742 820 q 686 560 742 626 q 540 465 631 493 l 768 -6 m 243 553 l 375 553 q 501 565 450 553 q 584 616 553 578 q 615 729 615 655 q 556 865 615 826 q 404 904 497 904 l 243 904 l 243 553 m 417 -196 q 361 -175 382 -196 q 341 -119 341 -155 q 361 -64 341 -85 q 417 -44 382 -44 q 473 -64 452 -44 q 493 -119 493 -85 q 473 -175 493 -155 q 417 -196 452 -196 m 675 1140 l 160 1140 l 160 1253 l 675 1253 l 675 1140 z "},"Ȓ":{"ha":833,"x_min":121,"x_max":768,"o":"m 768 -6 l 636 -6 l 418 446 l 410 446 l 243 446 l 243 0 l 121 0 l 121 1007 l 424 1007 q 576 976 503 1007 q 695 883 649 946 q 742 728 742 820 q 686 560 742 626 q 540 465 631 493 l 768 -6 m 243 553 l 375 553 q 501 565 450 553 q 584 616 553 578 q 615 729 615 655 q 556 865 615 826 q 404 904 497 904 l 243 904 l 243 553 m 417 1307 q 530 1288 479 1307 q 610 1230 581 1269 q 640 1133 640 1191 l 553 1133 q 533 1186 553 1165 q 482 1219 513 1208 q 419 1229 451 1229 q 360 1218 390 1229 q 309 1186 330 1208 q 289 1133 289 1164 l 197 1133 q 226 1230 197 1191 q 305 1288 255 1269 q 417 1307 354 1307 z "},"Ṟ":{"ha":833,"x_min":121,"x_max":768,"o":"m 768 -6 l 636 -6 l 418 446 l 410 446 l 243 446 l 243 0 l 121 0 l 121 1007 l 424 1007 q 576 976 503 1007 q 695 883 649 946 q 742 728 742 820 q 686 560 742 626 q 540 465 631 493 l 768 -6 m 243 553 l 375 553 q 501 565 450 553 q 584 616 553 578 q 615 729 615 655 q 556 865 615 826 q 404 904 497 904 l 243 904 l 243 553 m 674 -190 l 158 -190 l 158 -78 l 674 -78 l 674 -190 z "},"Ꝛ":{"ha":833,"x_min":78,"x_max":774,"o":"m 774 101 l 707 -24 l 236 201 q 314 295 260 233 q 444 454 392 388 q 533 593 495 521 q 571 725 571 665 q 551 796 571 765 q 497 845 532 828 q 418 863 463 863 q 336 847 369 863 q 277 800 304 832 q 207 700 250 767 l 78 756 q 170 902 123 848 q 276 982 217 957 q 413 1007 334 1007 q 580 971 508 1007 q 691 871 652 935 q 729 726 729 807 q 706 584 729 647 q 634 455 682 522 q 472 244 587 388 l 774 101 z "},"Ɍ":{"ha":833,"x_min":53,"x_max":768,"o":"m 768 -6 l 636 -6 l 418 446 l 410 446 l 243 446 l 243 0 l 121 0 l 121 458 l 53 458 l 53 565 l 121 565 l 121 1007 l 424 1007 q 576 976 503 1007 q 695 883 649 946 q 742 728 742 820 q 686 560 742 626 q 540 465 631 493 l 768 -6 m 243 904 l 243 565 l 480 565 l 480 560 q 580 611 544 573 q 615 729 615 650 q 556 865 615 826 q 404 904 497 904 l 243 904 z "},"Ꝝ":{"ha":833,"x_min":78,"x_max":774,"o":"m 774 101 l 707 -24 l 597 29 l 517 -96 l 406 -44 l 487 82 l 236 201 q 314 295 260 233 q 444 454 392 388 q 533 593 495 521 q 571 725 571 665 q 551 796 571 765 q 497 845 532 828 q 418 863 463 863 q 336 847 369 863 q 277 800 304 832 q 207 700 250 767 l 78 756 q 170 902 123 848 q 276 982 217 957 q 413 1007 334 1007 q 580 971 508 1007 q 691 871 652 935 q 729 726 729 807 q 706 584 729 647 q 634 455 682 522 q 472 244 587 388 l 563 201 l 644 328 l 756 276 l 674 149 l 774 101 z "},"S":{"ha":833,"x_min":76,"x_max":746,"o":"m 150 232 q 280 126 214 164 q 404 88 345 88 q 520 106 468 88 q 603 165 572 125 q 635 264 635 204 q 605 353 635 319 q 532 408 576 388 q 409 452 488 427 q 335 476 355 469 q 156 577 222 516 q 89 742 89 638 q 135 897 89 834 q 258 991 182 960 q 421 1021 333 1021 q 544 1003 490 1021 q 640 955 597 986 q 726 876 682 924 l 647 806 q 543 888 601 858 q 419 918 485 918 q 319 899 368 918 q 238 842 269 880 q 206 750 206 804 q 238 657 206 694 q 319 598 271 620 q 451 548 367 576 q 605 488 547 517 q 705 408 664 460 q 746 276 746 357 q 704 125 746 192 q 586 22 663 59 q 411 -15 510 -15 q 76 157 219 -15 l 150 232 z "},"Ｓ":{"ha":833,"x_min":76,"x_max":746,"o":"m 150 232 q 280 126 214 164 q 404 88 345 88 q 520 106 468 88 q 603 165 572 125 q 635 264 635 204 q 605 353 635 319 q 532 408 576 388 q 409 452 488 427 q 335 476 355 469 q 156 577 222 516 q 89 742 89 638 q 135 897 89 834 q 258 991 182 960 q 421 1021 333 1021 q 544 1003 490 1021 q 640 955 597 986 q 726 876 682 924 l 647 806 q 543 888 601 858 q 419 918 485 918 q 319 899 368 918 q 238 842 269 880 q 206 750 206 804 q 238 657 206 694 q 319 598 271 620 q 451 548 367 576 q 605 488 547 517 q 705 408 664 460 q 746 276 746 357 q 704 125 746 192 q 586 22 663 59 q 411 -15 510 -15 q 76 157 219 -15 l 150 232 z "},"Ś":{"ha":833,"x_min":76,"x_max":746,"o":"m 150 232 q 280 126 214 164 q 404 88 345 88 q 520 106 468 88 q 603 165 572 125 q 635 264 635 204 q 605 353 635 319 q 532 408 576 388 q 409 452 488 427 q 335 476 355 469 q 156 577 222 516 q 89 742 89 638 q 135 897 89 834 q 258 991 182 960 q 421 1021 333 1021 q 544 1003 490 1021 q 640 955 597 986 q 726 876 682 924 l 647 806 q 543 888 601 858 q 419 918 485 918 q 319 899 368 918 q 238 842 269 880 q 206 750 206 804 q 238 657 206 694 q 319 598 271 620 q 451 548 367 576 q 605 488 547 517 q 705 408 664 460 q 746 276 746 357 q 704 125 746 192 q 586 22 663 59 q 411 -15 510 -15 q 76 157 219 -15 l 150 232 m 556 1367 l 375 1082 l 276 1082 l 399 1367 l 556 1367 z "},"Ṥ":{"ha":833,"x_min":76,"x_max":746,"o":"m 150 232 q 280 126 214 164 q 404 88 345 88 q 520 106 468 88 q 603 165 572 125 q 635 264 635 204 q 605 353 635 319 q 532 408 576 388 q 409 452 488 427 q 335 476 355 469 q 156 577 222 516 q 89 742 89 638 q 135 897 89 834 q 258 991 182 960 q 421 1021 333 1021 q 544 1003 490 1021 q 640 955 597 986 q 726 876 682 924 l 647 806 q 543 888 601 858 q 419 918 485 918 q 319 899 368 918 q 238 842 269 880 q 206 750 206 804 q 238 657 206 694 q 319 598 271 620 q 451 548 367 576 q 605 488 547 517 q 705 408 664 460 q 746 276 746 357 q 704 125 746 192 q 586 22 663 59 q 411 -15 510 -15 q 76 157 219 -15 l 150 232 m 556 1367 l 375 1082 l 276 1082 l 399 1367 l 556 1367 m 417 1424 q 351 1448 375 1424 q 328 1514 328 1472 q 351 1579 328 1556 q 417 1603 375 1603 q 482 1579 458 1603 q 506 1514 506 1556 q 482 1448 506 1472 q 417 1424 458 1424 z "},"Ꞌ":{"ha":833,"x_min":378,"x_max":528,"o":"m 489 396 l 408 396 l 378 979 l 528 979 l 489 396 z "},"Š":{"ha":833,"x_min":76,"x_max":746,"o":"m 150 232 q 280 126 214 164 q 404 88 345 88 q 520 106 468 88 q 603 165 572 125 q 635 264 635 204 q 605 353 635 319 q 532 408 576 388 q 409 452 488 427 q 335 476 355 469 q 156 577 222 516 q 89 742 89 638 q 135 897 89 834 q 258 991 182 960 q 421 1021 333 1021 q 544 1003 490 1021 q 640 955 597 986 q 726 876 682 924 l 647 806 q 543 888 601 858 q 419 918 485 918 q 319 899 368 918 q 238 842 269 880 q 206 750 206 804 q 238 657 206 694 q 319 598 271 620 q 451 548 367 576 q 605 488 547 517 q 705 408 664 460 q 746 276 746 357 q 704 125 746 192 q 586 22 663 59 q 411 -15 510 -15 q 76 157 219 -15 l 150 232 m 481 1093 l 356 1093 l 218 1296 l 301 1296 l 418 1158 l 532 1296 l 615 1296 l 481 1093 z "},"Ṧ":{"ha":833,"x_min":76,"x_max":746,"o":"m 150 232 q 280 126 214 164 q 404 88 345 88 q 520 106 468 88 q 603 165 572 125 q 635 264 635 204 q 605 353 635 319 q 532 408 576 388 q 409 452 488 427 q 335 476 355 469 q 156 577 222 516 q 89 742 89 638 q 135 897 89 834 q 258 991 182 960 q 421 1021 333 1021 q 544 1003 490 1021 q 640 955 597 986 q 726 876 682 924 l 647 806 q 543 888 601 858 q 419 918 485 918 q 319 899 368 918 q 238 842 269 880 q 206 750 206 804 q 238 657 206 694 q 319 598 271 620 q 451 548 367 576 q 605 488 547 517 q 705 408 664 460 q 746 276 746 357 q 704 125 746 192 q 586 22 663 59 q 411 -15 510 -15 q 76 157 219 -15 l 150 232 m 481 1093 l 356 1093 l 218 1296 l 301 1296 l 418 1158 l 532 1296 l 615 1296 l 481 1093 m 421 1414 q 356 1438 379 1414 q 332 1504 332 1463 q 356 1569 332 1546 q 421 1593 379 1593 q 486 1569 463 1593 q 510 1504 510 1546 q 486 1438 510 1463 q 421 1414 463 1414 z "},"Ş":{"ha":833,"x_min":76,"x_max":746,"o":"m 746 276 q 715 145 746 204 q 628 47 685 86 q 497 -8 572 7 l 472 -72 l 489 -72 q 568 -93 539 -72 q 597 -165 597 -113 q 575 -228 597 -203 q 520 -265 553 -253 q 453 -276 487 -276 q 376 -267 417 -276 q 300 -243 335 -258 l 321 -189 q 444 -222 390 -222 q 492 -211 474 -222 q 511 -176 511 -200 q 495 -142 511 -151 q 451 -132 480 -132 l 397 -132 l 397 -96 l 431 -15 q 411 -15 424 -15 q 76 157 219 -15 l 150 232 q 280 126 214 164 q 404 88 345 88 q 520 106 468 88 q 603 165 572 125 q 635 264 635 204 q 605 353 635 319 q 532 408 576 388 q 409 452 488 427 q 335 476 355 469 q 156 577 222 516 q 89 742 89 638 q 135 897 89 834 q 258 991 182 960 q 421 1021 333 1021 q 544 1003 490 1021 q 640 955 597 986 q 726 876 682 924 l 647 806 q 543 888 601 858 q 419 918 485 918 q 319 899 368 918 q 238 842 269 880 q 206 750 206 804 q 238 657 206 694 q 319 598 271 620 q 451 548 367 576 q 605 488 547 517 q 705 408 664 460 q 746 276 746 357 z "},"Ŝ":{"ha":833,"x_min":76,"x_max":746,"o":"m 150 232 q 280 126 214 164 q 404 88 345 88 q 520 106 468 88 q 603 165 572 125 q 635 264 635 204 q 605 353 635 319 q 532 408 576 388 q 409 452 488 427 q 335 476 355 469 q 156 577 222 516 q 89 742 89 638 q 135 897 89 834 q 258 991 182 960 q 421 1021 333 1021 q 544 1003 490 1021 q 640 955 597 986 q 726 876 682 924 l 647 806 q 543 888 601 858 q 419 918 485 918 q 319 899 368 918 q 238 842 269 880 q 206 750 206 804 q 238 657 206 694 q 319 598 271 620 q 451 548 367 576 q 605 488 547 517 q 705 408 664 460 q 746 276 746 357 q 704 125 746 192 q 586 22 663 59 q 411 -15 510 -15 q 76 157 219 -15 l 150 232 m 244 1113 l 113 1113 l 338 1367 l 497 1367 l 721 1113 l 590 1113 l 417 1294 l 244 1113 z "},"Ș":{"ha":833,"x_min":76,"x_max":746,"o":"m 150 232 q 280 126 214 164 q 404 88 345 88 q 520 106 468 88 q 603 165 572 125 q 635 264 635 204 q 605 353 635 319 q 532 408 576 388 q 409 452 488 427 q 335 476 355 469 q 156 577 222 516 q 89 742 89 638 q 135 897 89 834 q 258 991 182 960 q 421 1021 333 1021 q 544 1003 490 1021 q 640 955 597 986 q 726 876 682 924 l 647 806 q 543 888 601 858 q 419 918 485 918 q 319 899 368 918 q 238 842 269 880 q 206 750 206 804 q 238 657 206 694 q 319 598 271 620 q 451 548 367 576 q 605 488 547 517 q 705 408 664 460 q 746 276 746 357 q 704 125 746 192 q 586 22 663 59 q 411 -15 510 -15 q 76 157 219 -15 l 150 232 m 337 -286 q 376 -277 357 -284 q 402 -265 396 -271 q 419 -250 413 -257 q 424 -230 424 -244 q 419 -206 424 -216 q 400 -188 413 -196 q 374 -170 383 -177 q 357 -149 365 -162 q 349 -117 349 -135 q 355 -74 349 -89 q 376 -51 361 -58 q 420 -44 392 -44 q 479 -61 463 -44 q 495 -119 495 -78 q 485 -224 495 -189 q 470 -260 477 -246 q 452 -284 463 -274 q 394 -317 433 -303 q 361 -326 379 -322 q 337 -329 344 -329 l 337 -286 z "},"Ṡ":{"ha":833,"x_min":76,"x_max":746,"o":"m 150 232 q 280 126 214 164 q 404 88 345 88 q 520 106 468 88 q 603 165 572 125 q 635 264 635 204 q 605 353 635 319 q 532 408 576 388 q 409 452 488 427 q 335 476 355 469 q 156 577 222 516 q 89 742 89 638 q 135 897 89 834 q 258 991 182 960 q 421 1021 333 1021 q 544 1003 490 1021 q 640 955 597 986 q 726 876 682 924 l 647 806 q 543 888 601 858 q 419 918 485 918 q 319 899 368 918 q 238 842 269 880 q 206 750 206 804 q 238 657 206 694 q 319 598 271 620 q 451 548 367 576 q 605 488 547 517 q 705 408 664 460 q 746 276 746 357 q 704 125 746 192 q 586 22 663 59 q 411 -15 510 -15 q 76 157 219 -15 l 150 232 m 417 1103 q 351 1127 375 1103 q 328 1193 328 1151 q 351 1258 328 1235 q 417 1282 375 1282 q 482 1258 458 1282 q 506 1193 506 1235 q 482 1127 506 1151 q 417 1103 458 1103 z "},"Ṣ":{"ha":833,"x_min":76,"x_max":746,"o":"m 150 232 q 280 126 214 164 q 404 88 345 88 q 520 106 468 88 q 603 165 572 125 q 635 264 635 204 q 605 353 635 319 q 532 408 576 388 q 409 452 488 427 q 335 476 355 469 q 156 577 222 516 q 89 742 89 638 q 135 897 89 834 q 258 991 182 960 q 421 1021 333 1021 q 544 1003 490 1021 q 640 955 597 986 q 726 876 682 924 l 647 806 q 543 888 601 858 q 419 918 485 918 q 319 899 368 918 q 238 842 269 880 q 206 750 206 804 q 238 657 206 694 q 319 598 271 620 q 451 548 367 576 q 605 488 547 517 q 705 408 664 460 q 746 276 746 357 q 704 125 746 192 q 586 22 663 59 q 411 -15 510 -15 q 76 157 219 -15 l 150 232 m 417 -193 q 361 -173 382 -193 q 341 -117 341 -152 q 361 -61 341 -82 q 417 -41 382 -41 q 473 -61 452 -41 q 493 -117 493 -82 q 473 -173 493 -152 q 417 -193 452 -193 z "},"Ṩ":{"ha":833,"x_min":81,"x_max":750,"o":"m 154 232 q 284 126 218 164 q 408 88 349 88 q 524 106 472 88 q 608 165 576 125 q 639 264 639 204 q 609 353 639 319 q 536 408 580 388 q 413 452 492 427 q 339 476 359 469 q 160 577 226 516 q 93 742 93 638 q 140 897 93 834 q 262 991 186 960 q 425 1021 338 1021 q 548 1003 494 1021 q 644 955 601 986 q 731 876 686 924 l 651 806 q 547 888 605 858 q 424 918 489 918 q 323 899 372 918 q 242 842 274 880 q 210 750 210 804 q 242 657 210 694 q 323 598 275 620 q 455 548 372 576 q 609 488 551 517 q 709 408 668 460 q 750 276 750 357 q 708 125 750 192 q 591 22 667 59 q 415 -15 515 -15 q 81 157 223 -15 l 154 232 m 422 -193 q 366 -173 386 -193 q 345 -117 345 -152 q 366 -61 345 -82 q 422 -41 386 -41 q 477 -61 456 -41 q 497 -117 497 -82 q 477 -173 497 -152 q 422 -193 456 -193 m 421 1103 q 356 1127 379 1103 q 332 1193 332 1151 q 356 1258 332 1235 q 421 1282 379 1282 q 486 1258 463 1282 q 510 1193 510 1235 q 486 1127 510 1151 q 421 1103 463 1103 z "},"ẞ":{"ha":833,"x_min":101,"x_max":733,"o":"m 511 -12 q 367 41 418 -12 q 321 188 317 94 l 439 188 q 456 111 436 138 q 515 85 476 85 q 563 97 541 85 q 598 132 585 110 q 611 179 611 153 q 598 224 611 205 q 565 257 585 244 q 512 290 546 271 q 441 334 468 314 q 395 386 415 353 q 376 467 376 419 q 381 511 376 490 q 403 572 385 532 q 461 685 422 612 l 592 917 l 218 917 l 218 0 l 101 0 l 101 925 q 123 987 101 966 q 185 1008 144 1008 l 657 1007 q 708 990 690 1007 q 726 942 726 974 q 617 740 726 927 q 585 685 590 694 q 527 572 544 608 q 505 517 510 536 q 500 478 500 499 q 511 444 500 459 q 539 418 522 430 q 585 390 555 407 q 661 341 631 364 q 712 281 690 319 q 733 190 733 244 q 705 86 733 132 q 626 14 676 40 q 511 -12 575 -12 z "},"Ꞩ":{"ha":833,"x_min":76,"x_max":781,"o":"m 576 516 q 726 425 672 479 q 781 276 781 370 q 739 125 781 192 q 621 22 697 59 q 446 -15 545 -15 q 111 157 253 -15 l 185 232 q 314 126 249 164 q 439 88 380 88 q 555 106 503 88 q 638 165 607 125 q 669 264 669 204 q 642 351 669 317 q 572 405 615 385 q 458 447 528 425 l 76 224 l 76 357 l 316 497 q 175 593 227 535 q 124 742 124 651 q 170 897 124 834 q 292 991 217 960 q 456 1021 368 1021 q 578 1003 525 1021 q 674 955 632 986 q 761 876 717 924 l 682 806 q 577 888 635 858 q 454 918 519 918 q 353 899 403 918 q 272 842 304 880 q 240 750 240 804 q 265 667 240 701 q 332 610 290 633 q 433 566 373 588 l 754 754 l 754 621 l 576 516 z "},"Ȿ":{"ha":833,"x_min":111,"x_max":781,"o":"m 781 276 q 739 125 781 192 q 621 22 697 59 q 446 -15 545 -15 q 392 -12 422 -15 q 433 -59 411 -40 q 472 -83 456 -77 q 583 -111 523 -103 q 696 -119 643 -119 l 696 -211 q 558 -204 624 -211 q 436 -174 491 -197 q 369 -130 397 -158 q 308 -56 342 -102 q 247 18 273 -8 q 183 58 222 44 l 194 74 q 111 157 152 108 l 185 232 q 314 126 249 164 q 439 88 380 88 q 555 106 503 88 q 638 165 607 125 q 669 264 669 204 q 640 353 669 319 q 566 408 610 388 q 444 452 522 427 q 369 476 390 469 q 190 577 257 516 q 124 742 124 638 q 170 897 124 834 q 292 991 217 960 q 456 1021 368 1021 q 578 1003 525 1021 q 674 955 632 986 q 761 876 717 924 l 682 806 q 577 888 635 858 q 454 918 519 918 q 353 899 403 918 q 272 842 304 880 q 240 750 240 804 q 273 657 240 694 q 354 598 306 620 q 485 548 402 576 q 640 488 581 517 q 740 408 699 460 q 781 276 781 357 z "},"Ə":{"ha":833,"x_min":33,"x_max":800,"o":"m 382 1014 q 600 951 506 1014 q 748 774 695 888 q 800 513 800 660 q 747 245 800 363 q 602 61 694 127 q 397 -6 510 -6 q 206 58 288 -6 q 79 246 124 122 q 33 549 33 371 l 650 549 q 582 790 650 708 q 383 872 513 872 q 230 842 300 872 q 115 778 159 813 l 44 897 q 131 953 76 926 q 251 997 185 981 q 382 1014 317 1014 m 168 413 q 198 268 168 331 q 281 170 228 205 q 400 136 333 136 q 523 171 467 136 q 614 268 580 206 q 647 413 647 331 l 168 413 z "},"T":{"ha":833,"x_min":63,"x_max":769,"o":"m 474 0 l 358 0 l 358 901 l 63 901 l 63 1007 l 769 1007 l 769 901 l 474 901 l 474 0 z "},"Ｔ":{"ha":833,"x_min":63,"x_max":769,"o":"m 474 0 l 358 0 l 358 901 l 63 901 l 63 1007 l 769 1007 l 769 901 l 474 901 l 474 0 z "},"Ŧ":{"ha":833,"x_min":63,"x_max":769,"o":"m 769 1007 l 769 901 l 474 901 l 474 578 l 726 578 l 726 439 l 474 439 l 474 0 l 358 0 l 358 439 l 169 439 l 169 578 l 358 578 l 358 901 l 63 901 l 63 1007 l 769 1007 z "},"Ť":{"ha":833,"x_min":63,"x_max":769,"o":"m 474 0 l 358 0 l 358 901 l 63 901 l 63 1007 l 769 1007 l 769 901 l 474 901 l 474 0 m 517 1094 l 386 1094 l 251 1299 l 335 1299 l 451 1175 l 568 1299 l 651 1299 l 517 1094 z "},"Ţ":{"ha":833,"x_min":63,"x_max":769,"o":"m 769 901 l 474 901 l 474 28 l 480 28 l 474 12 l 474 0 l 469 0 l 442 -72 l 458 -72 q 538 -93 508 -72 q 567 -165 567 -113 q 545 -228 567 -203 q 490 -265 523 -253 q 422 -276 456 -276 q 346 -267 387 -276 q 269 -243 305 -258 l 290 -189 q 414 -222 359 -222 q 462 -211 443 -222 q 481 -176 481 -200 q 465 -142 481 -151 q 421 -132 449 -132 l 367 -132 l 367 -96 l 406 0 l 358 0 l 358 901 l 63 901 l 63 1007 l 769 1007 l 769 901 z "},"Ṱ":{"ha":833,"x_min":63,"x_max":769,"o":"m 474 0 l 358 0 l 358 901 l 63 901 l 63 1007 l 769 1007 l 769 901 l 474 901 l 474 0 m 301 -260 l 218 -260 l 356 -65 l 481 -65 l 615 -260 l 532 -260 l 417 -122 l 301 -260 z "},"Ț":{"ha":833,"x_min":63,"x_max":769,"o":"m 474 0 l 358 0 l 358 901 l 63 901 l 63 1007 l 769 1007 l 769 901 l 474 901 l 474 0 m 337 -289 q 376 -280 357 -287 q 402 -268 396 -274 q 419 -253 413 -260 q 424 -233 424 -247 q 419 -209 424 -219 q 400 -191 413 -199 q 374 -173 383 -180 q 357 -152 365 -165 q 349 -119 349 -138 q 355 -76 349 -92 q 376 -54 361 -61 q 420 -47 392 -47 q 479 -64 463 -47 q 495 -122 495 -81 q 485 -226 495 -192 q 470 -262 477 -249 q 452 -287 463 -276 q 394 -320 433 -306 q 361 -328 379 -325 q 337 -332 344 -332 l 337 -289 z "},"Ⱦ":{"ha":833,"x_min":63,"x_max":769,"o":"m 769 1007 l 769 901 l 620 901 l 474 499 l 474 0 l 358 0 l 358 182 l 225 -185 l 97 -185 l 358 533 l 358 901 l 63 901 l 63 1007 l 531 1007 l 585 1156 l 713 1156 l 658 1007 l 769 1007 m 474 901 l 474 850 l 492 901 l 474 901 z "},"Ṫ":{"ha":833,"x_min":63,"x_max":769,"o":"m 474 0 l 358 0 l 358 901 l 63 901 l 63 1007 l 769 1007 l 769 901 l 474 901 l 474 0 m 417 1100 q 351 1124 375 1100 q 328 1190 328 1149 q 351 1256 328 1232 q 417 1279 375 1279 q 482 1256 458 1279 q 506 1190 506 1232 q 482 1124 506 1149 q 417 1100 458 1100 z "},"Ṭ":{"ha":833,"x_min":63,"x_max":769,"o":"m 474 0 l 358 0 l 358 901 l 63 901 l 63 1007 l 769 1007 l 769 901 l 474 901 l 474 0 m 417 -196 q 361 -175 382 -196 q 341 -119 341 -155 q 361 -64 341 -85 q 417 -44 382 -44 q 473 -64 452 -44 q 493 -119 493 -85 q 473 -175 493 -155 q 417 -196 452 -196 z "},"Ƭ":{"ha":833,"x_min":-47,"x_max":769,"o":"m 769 901 l 478 901 l 478 0 l 354 0 l 354 901 l 135 901 q 85 870 100 901 q 69 768 69 840 l -47 768 q -30 901 -47 849 q 28 980 -12 953 q 139 1007 69 1007 l 769 1007 l 769 901 z "},"Ꝥ":{"ha":833,"x_min":34,"x_max":738,"o":"m 392 824 q 643 759 549 824 q 738 535 738 694 q 642 310 738 378 q 397 243 547 243 l 221 243 l 221 0 l 97 0 l 97 860 l 34 860 l 34 962 l 97 962 l 97 1007 l 221 1007 l 221 962 l 404 962 l 404 860 l 221 860 l 221 824 l 392 824 m 346 344 q 488 357 433 344 q 575 411 542 369 q 608 536 608 453 q 578 652 608 611 q 499 709 549 694 q 381 724 450 724 l 221 724 l 221 344 l 346 344 z "},"Ꝧ":{"ha":833,"x_min":33,"x_max":738,"o":"m 221 243 l 221 176 l 403 176 l 403 74 l 221 74 l 221 0 l 97 0 l 97 74 l 33 74 l 33 176 l 97 176 l 97 1007 l 221 1007 l 221 824 l 392 824 q 643 759 549 824 q 738 535 738 694 q 642 310 738 378 q 397 243 547 243 l 221 243 m 221 724 l 221 344 l 346 344 q 488 357 433 344 q 575 411 542 369 q 608 536 608 453 q 578 652 608 611 q 499 709 549 694 q 381 724 450 724 l 221 724 z "},"Ꞇ":{"ha":833,"x_min":17,"x_max":838,"o":"m 838 260 q 745 123 801 182 q 617 32 688 65 q 467 0 545 0 q 251 68 351 0 q 92 252 151 136 q 32 506 32 369 q 75 724 32 620 q 192 899 119 827 l 17 899 l 17 1008 l 832 1008 l 832 899 l 380 899 q 266 819 316 879 q 188 676 216 759 q 160 506 160 592 q 200 317 160 402 q 310 183 240 232 q 467 133 381 133 q 601 166 538 133 q 707 260 663 199 l 838 260 z "},"Ṯ":{"ha":833,"x_min":63,"x_max":769,"o":"m 474 0 l 358 0 l 358 901 l 63 901 l 63 1007 l 769 1007 l 769 901 l 474 901 l 474 0 m 674 -190 l 158 -190 l 158 -78 l 674 -78 l 674 -190 z "},"Ƽ":{"ha":833,"x_min":147,"x_max":761,"o":"m 444 -12 q 294 15 362 -12 q 187 100 227 42 q 147 246 147 158 l 269 246 q 318 127 269 167 q 443 88 367 88 q 550 121 506 88 q 616 212 594 155 q 638 338 638 269 q 617 455 638 401 q 557 539 597 508 q 457 571 516 571 q 345 531 394 571 q 282 424 297 492 l 160 424 l 232 1007 l 733 1007 l 733 900 l 343 900 l 300 594 q 378 659 335 640 q 479 679 420 679 q 631 634 567 679 q 728 510 694 588 q 761 335 761 431 q 721 154 761 233 q 609 31 681 75 q 444 -12 538 -12 z "},"Ƅ":{"ha":833,"x_min":35,"x_max":801,"o":"m 250 0 l 250 872 l 35 872 l 35 967 l 378 967 l 378 569 l 521 569 q 718 515 635 569 q 801 296 801 460 q 749 113 801 178 q 610 24 697 47 q 406 0 524 0 l 250 0 m 383 103 l 444 103 q 558 114 513 103 q 630 166 602 126 q 658 289 658 207 q 632 407 658 368 q 563 458 605 447 q 454 469 520 469 l 383 469 l 383 103 z "},"Ƨ":{"ha":833,"x_min":88,"x_max":757,"o":"m 757 157 q 422 -15 615 -15 q 247 22 323 -15 q 129 125 171 59 q 88 276 88 192 q 128 408 88 357 q 228 488 169 460 q 383 548 287 517 q 514 598 466 576 q 595 657 563 620 q 628 750 628 694 q 596 842 628 804 q 515 899 564 880 q 414 918 465 918 q 291 888 349 918 q 186 806 233 858 l 107 876 q 194 955 151 924 q 290 1003 236 986 q 413 1021 343 1021 q 576 991 500 1021 q 698 897 651 960 q 744 742 744 834 q 678 577 744 638 q 499 476 611 516 q 424 452 478 469 q 302 408 346 427 q 228 353 258 388 q 199 264 199 319 q 230 165 199 204 q 313 106 261 125 q 429 88 365 88 q 554 126 488 88 q 683 232 619 164 l 757 157 z "},"Ꜫ":{"ha":833,"x_min":122,"x_max":719,"o":"m 719 88 q 593 17 659 35 q 447 0 526 0 q 284 37 359 0 q 166 137 210 74 q 122 274 122 200 q 165 418 122 348 q 280 531 208 488 q 164 615 206 562 q 122 740 122 667 q 166 877 122 814 q 284 977 210 940 q 447 1014 359 1014 q 577 998 514 1014 q 717 940 640 981 l 656 858 q 551 905 599 895 q 447 915 503 915 q 356 893 397 915 q 292 832 315 872 q 268 740 268 792 q 447 600 268 600 l 569 600 l 569 481 l 447 481 q 357 451 399 481 q 292 374 316 422 q 268 274 268 326 q 292 182 268 222 q 356 120 315 142 q 447 99 397 99 q 569 110 506 99 q 668 153 631 122 l 719 88 z "},"Ʈ":{"ha":833,"x_min":63,"x_max":769,"o":"m 478 901 l 478 -49 q 656 -172 478 -172 l 656 -279 q 433 -230 511 -279 q 354 -64 354 -181 l 354 901 l 63 901 l 63 1007 l 769 1007 l 769 901 l 478 901 z "},"Ʇ":{"ha":833,"x_min":63,"x_max":769,"o":"m 358 106 l 358 1007 l 474 1007 l 474 106 l 769 106 l 769 0 l 63 0 l 63 106 l 358 106 z "},"Ꜩ":{"ha":833,"x_min":13,"x_max":900,"o":"m 822 281 q 883 195 865 241 q 900 97 900 149 q 849 -80 900 -6 q 716 -190 799 -153 q 536 -226 633 -226 q 456 -216 494 -226 q 371 -186 417 -206 q 418 -97 399 -136 q 569 -139 498 -139 q 663 -117 619 -139 q 736 -51 708 -95 q 764 58 764 -6 q 735 167 764 122 q 660 236 706 213 q 569 260 615 260 q 510 253 536 260 q 458 231 484 246 l 406 279 l 667 599 l 367 599 l 367 0 l 251 0 l 251 904 l 13 904 l 13 1007 l 606 1007 l 606 904 l 367 904 l 367 694 l 840 694 l 840 639 q 582 357 761 547 q 722 336 663 352 q 822 281 780 319 z "},"U":{"ha":833,"x_min":81,"x_max":751,"o":"m 417 -12 q 222 26 294 -12 q 115 157 149 65 q 81 411 81 249 l 81 1010 l 199 1010 l 199 411 q 220 216 199 285 q 291 117 242 146 q 424 88 339 88 q 545 120 500 88 q 610 223 590 153 q 631 411 631 294 l 631 1010 l 751 1010 l 751 411 q 723 178 751 269 q 622 37 695 87 q 417 -12 549 -12 z "},"Ｕ":{"ha":833,"x_min":81,"x_max":751,"o":"m 417 -12 q 222 26 294 -12 q 115 157 149 65 q 81 411 81 249 l 81 1010 l 199 1010 l 199 411 q 220 216 199 285 q 291 117 242 146 q 424 88 339 88 q 545 120 500 88 q 610 223 590 153 q 631 411 631 294 l 631 1010 l 751 1010 l 751 411 q 723 178 751 269 q 622 37 695 87 q 417 -12 549 -12 z "},"Ú":{"ha":833,"x_min":81,"x_max":751,"o":"m 417 -12 q 222 26 294 -12 q 115 157 149 65 q 81 411 81 249 l 81 1010 l 199 1010 l 199 411 q 220 216 199 285 q 291 117 242 146 q 424 88 339 88 q 545 120 500 88 q 610 223 590 153 q 631 411 631 294 l 631 1010 l 751 1010 l 751 411 q 723 178 751 269 q 622 37 695 87 q 417 -12 549 -12 m 556 1367 l 375 1082 l 276 1082 l 399 1367 l 556 1367 z "},"Ʉ":{"ha":833,"x_min":81,"x_max":751,"o":"m 631 1010 l 751 1010 l 751 411 q 723 178 751 269 q 622 37 695 87 q 417 -12 549 -12 q 222 26 294 -12 q 115 157 149 65 q 81 411 81 249 l 81 1010 l 199 1010 l 199 678 l 631 678 l 631 1010 m 424 88 q 545 120 500 88 q 610 223 590 153 q 631 411 631 294 l 631 539 l 199 539 l 199 411 q 220 216 199 285 q 291 117 242 146 q 424 88 339 88 z "},"Ŭ":{"ha":833,"x_min":81,"x_max":751,"o":"m 417 -12 q 222 26 294 -12 q 115 157 149 65 q 81 411 81 249 l 81 1010 l 199 1010 l 199 411 q 220 216 199 285 q 291 117 242 146 q 424 88 339 88 q 545 120 500 88 q 610 223 590 153 q 631 411 631 294 l 631 1010 l 751 1010 l 751 411 q 723 178 751 269 q 622 37 695 87 q 417 -12 549 -12 m 415 1075 q 303 1094 353 1075 q 225 1152 253 1113 q 196 1249 196 1191 l 288 1249 q 308 1196 288 1218 q 359 1164 328 1174 q 418 1153 389 1153 q 481 1163 450 1153 q 531 1195 511 1174 q 551 1249 551 1217 l 639 1249 q 609 1152 639 1191 q 528 1094 579 1113 q 415 1075 478 1075 z "},"Ǔ":{"ha":833,"x_min":81,"x_max":751,"o":"m 417 -12 q 222 26 294 -12 q 115 157 149 65 q 81 411 81 249 l 81 1010 l 199 1010 l 199 411 q 220 216 199 285 q 291 117 242 146 q 424 88 339 88 q 545 120 500 88 q 610 223 590 153 q 631 411 631 294 l 631 1010 l 751 1010 l 751 411 q 723 178 751 269 q 622 37 695 87 q 417 -12 549 -12 m 481 1093 l 356 1093 l 218 1296 l 301 1296 l 418 1158 l 532 1296 l 615 1296 l 481 1093 z "},"Û":{"ha":833,"x_min":81,"x_max":751,"o":"m 417 -12 q 222 26 294 -12 q 115 157 149 65 q 81 411 81 249 l 81 1010 l 199 1010 l 199 411 q 220 216 199 285 q 291 117 242 146 q 424 88 339 88 q 545 120 500 88 q 610 223 590 153 q 631 411 631 294 l 631 1010 l 751 1010 l 751 411 q 723 178 751 269 q 622 37 695 87 q 417 -12 549 -12 m 244 1113 l 113 1113 l 338 1367 l 497 1367 l 721 1113 l 590 1113 l 417 1294 l 244 1113 z "},"Ṷ":{"ha":833,"x_min":81,"x_max":751,"o":"m 417 -12 q 222 26 294 -12 q 115 157 149 65 q 81 411 81 249 l 81 1010 l 199 1010 l 199 411 q 220 216 199 285 q 291 117 242 146 q 424 88 339 88 q 545 120 500 88 q 610 223 590 153 q 631 411 631 294 l 631 1010 l 751 1010 l 751 411 q 723 178 751 269 q 622 37 695 87 q 417 -12 549 -12 m 301 -260 l 218 -260 l 356 -65 l 481 -65 l 615 -260 l 532 -260 l 417 -122 l 301 -260 z "},"Ȕ":{"ha":833,"x_min":121,"x_max":792,"o":"m 457 -12 q 262 26 334 -12 q 155 157 190 65 q 121 411 121 249 l 121 1010 l 239 1010 l 239 411 q 261 216 239 285 q 331 117 283 146 q 464 88 379 88 q 585 120 540 88 q 650 223 630 153 q 671 411 671 294 l 671 1010 l 792 1010 l 792 411 q 764 178 792 269 q 663 37 735 87 q 457 -12 590 -12 m 521 1097 l 426 1097 l 193 1367 l 356 1367 l 521 1097 m 744 1097 l 650 1097 l 417 1367 l 578 1367 l 744 1097 z "},"Ü":{"ha":833,"x_min":81,"x_max":751,"o":"m 417 -12 q 222 26 294 -12 q 115 157 149 65 q 81 411 81 249 l 81 1010 l 199 1010 l 199 411 q 220 216 199 285 q 291 117 242 146 q 424 88 339 88 q 545 120 500 88 q 610 223 590 153 q 631 411 631 294 l 631 1010 l 751 1010 l 751 411 q 723 178 751 269 q 622 37 695 87 q 417 -12 549 -12 m 244 1121 q 179 1144 202 1121 q 156 1208 156 1168 q 179 1273 156 1249 q 244 1297 202 1297 q 309 1273 285 1297 q 332 1208 332 1249 q 309 1144 332 1168 q 244 1121 285 1121 m 600 1121 q 533 1145 558 1121 q 508 1210 508 1169 q 533 1274 508 1251 q 600 1297 558 1297 q 665 1274 642 1297 q 689 1210 689 1251 q 665 1145 689 1169 q 600 1121 642 1121 z "},"Ǘ":{"ha":833,"x_min":81,"x_max":751,"o":"m 417 -12 q 222 26 294 -12 q 115 157 149 65 q 81 411 81 249 l 81 1010 l 199 1010 l 199 411 q 220 216 199 285 q 291 117 242 146 q 424 88 339 88 q 545 120 500 88 q 610 223 590 153 q 631 411 631 294 l 631 1010 l 751 1010 l 751 411 q 723 178 751 269 q 622 37 695 87 q 417 -12 549 -12 m 244 1121 q 179 1144 202 1121 q 156 1208 156 1168 q 179 1273 156 1249 q 244 1297 202 1297 q 309 1273 285 1297 q 332 1208 332 1249 q 309 1144 332 1168 q 244 1121 285 1121 m 600 1121 q 533 1145 558 1121 q 508 1210 508 1169 q 533 1274 508 1251 q 600 1297 558 1297 q 665 1274 642 1297 q 689 1210 689 1251 q 665 1145 689 1169 q 600 1121 642 1121 m 556 1622 l 375 1338 l 276 1338 l 399 1622 l 556 1622 z "},"Ṳ":{"ha":833,"x_min":81,"x_max":751,"o":"m 417 -12 q 222 26 294 -12 q 115 157 149 65 q 81 411 81 249 l 81 1010 l 199 1010 l 199 411 q 220 216 199 285 q 291 117 242 146 q 424 88 339 88 q 545 120 500 88 q 610 223 590 153 q 631 411 631 294 l 631 1010 l 751 1010 l 751 411 q 723 178 751 269 q 622 37 695 87 q 417 -12 549 -12 m 239 -246 q 173 -222 197 -246 q 150 -158 150 -199 q 173 -93 150 -117 q 239 -69 197 -69 q 303 -93 280 -69 q 326 -158 326 -117 q 303 -222 326 -199 q 239 -246 280 -246 m 594 -246 q 527 -222 552 -246 q 503 -157 503 -198 q 527 -93 503 -116 q 594 -69 552 -69 q 660 -93 636 -69 q 683 -157 683 -116 q 660 -222 683 -198 q 594 -246 636 -246 z "},"Ǚ":{"ha":833,"x_min":81,"x_max":751,"o":"m 417 -12 q 222 26 294 -12 q 115 157 149 65 q 81 411 81 249 l 81 1010 l 199 1010 l 199 411 q 220 216 199 285 q 291 117 242 146 q 424 88 339 88 q 545 120 500 88 q 610 223 590 153 q 631 411 631 294 l 631 1010 l 751 1010 l 751 411 q 723 178 751 269 q 622 37 695 87 q 417 -12 549 -12 m 244 1121 q 179 1144 202 1121 q 156 1208 156 1168 q 179 1273 156 1249 q 244 1297 202 1297 q 309 1273 285 1297 q 332 1208 332 1249 q 309 1144 332 1168 q 244 1121 285 1121 m 600 1121 q 533 1145 558 1121 q 508 1210 508 1169 q 533 1274 508 1251 q 600 1297 558 1297 q 665 1274 642 1297 q 689 1210 689 1251 q 665 1145 689 1169 q 600 1121 642 1121 m 481 1365 l 356 1365 l 218 1568 l 301 1568 l 418 1431 l 532 1568 l 615 1568 l 481 1365 z "},"Ǜ":{"ha":833,"x_min":81,"x_max":751,"o":"m 417 -12 q 222 26 294 -12 q 115 157 149 65 q 81 411 81 249 l 81 1010 l 199 1010 l 199 411 q 220 216 199 285 q 291 117 242 146 q 424 88 339 88 q 545 120 500 88 q 610 223 590 153 q 631 411 631 294 l 631 1010 l 751 1010 l 751 411 q 723 178 751 269 q 622 37 695 87 q 417 -12 549 -12 m 244 1121 q 179 1144 202 1121 q 156 1208 156 1168 q 179 1273 156 1249 q 244 1297 202 1297 q 309 1273 285 1297 q 332 1208 332 1249 q 309 1144 332 1168 q 244 1121 285 1121 m 600 1121 q 533 1145 558 1121 q 508 1210 508 1169 q 533 1274 508 1251 q 600 1297 558 1297 q 665 1274 642 1297 q 689 1210 689 1251 q 665 1145 689 1169 q 600 1121 642 1121 m 486 1299 l 383 1299 l 193 1583 l 357 1583 l 486 1299 z "},"Ǖ":{"ha":833,"x_min":81,"x_max":751,"o":"m 417 -12 q 222 26 294 -12 q 115 157 149 65 q 81 411 81 249 l 81 1010 l 199 1010 l 199 411 q 220 216 199 285 q 291 117 242 146 q 424 88 339 88 q 545 120 500 88 q 610 223 590 153 q 631 411 631 294 l 631 1010 l 751 1010 l 751 411 q 723 178 751 269 q 622 37 695 87 q 417 -12 549 -12 m 244 1121 q 179 1144 202 1121 q 156 1208 156 1168 q 179 1273 156 1249 q 244 1297 202 1297 q 309 1273 285 1297 q 332 1208 332 1249 q 309 1144 332 1168 q 244 1121 285 1121 m 600 1121 q 533 1145 558 1121 q 508 1210 508 1169 q 533 1274 508 1251 q 600 1297 558 1297 q 665 1274 642 1297 q 689 1210 689 1251 q 665 1145 689 1169 q 600 1121 642 1121 m 675 1476 l 160 1476 l 160 1589 l 675 1589 l 675 1476 z "},"Ụ":{"ha":833,"x_min":81,"x_max":751,"o":"m 417 -12 q 222 26 294 -12 q 115 157 149 65 q 81 411 81 249 l 81 1010 l 199 1010 l 199 411 q 220 216 199 285 q 291 117 242 146 q 424 88 339 88 q 545 120 500 88 q 610 223 590 153 q 631 411 631 294 l 631 1010 l 751 1010 l 751 411 q 723 178 751 269 q 622 37 695 87 q 417 -12 549 -12 m 417 -196 q 361 -175 382 -196 q 341 -119 341 -155 q 361 -64 341 -85 q 417 -44 382 -44 q 473 -64 452 -44 q 493 -119 493 -85 q 473 -175 493 -155 q 417 -196 452 -196 z "},"Ù":{"ha":833,"x_min":81,"x_max":751,"o":"m 417 -12 q 222 26 294 -12 q 115 157 149 65 q 81 411 81 249 l 81 1010 l 199 1010 l 199 411 q 220 216 199 285 q 291 117 242 146 q 424 88 339 88 q 545 120 500 88 q 610 223 590 153 q 631 411 631 294 l 631 1010 l 751 1010 l 751 411 q 723 178 751 269 q 622 37 695 87 q 417 -12 549 -12 m 556 1082 l 453 1082 l 263 1367 l 426 1367 l 556 1082 z "},"Ủ":{"ha":833,"x_min":81,"x_max":751,"o":"m 417 -12 q 222 26 294 -12 q 115 157 149 65 q 81 411 81 249 l 81 1010 l 199 1010 l 199 411 q 220 216 199 285 q 291 117 242 146 q 424 88 339 88 q 545 120 500 88 q 610 223 590 153 q 631 411 631 294 l 631 1010 l 751 1010 l 751 411 q 723 178 751 269 q 622 37 695 87 q 417 -12 549 -12 m 389 1132 q 433 1151 415 1134 q 451 1189 451 1168 q 438 1223 451 1209 q 404 1236 424 1236 q 368 1233 380 1236 q 331 1217 356 1229 l 331 1281 q 366 1295 349 1291 q 407 1300 383 1300 q 454 1289 428 1300 q 500 1256 481 1278 q 519 1199 519 1233 q 491 1116 519 1150 q 410 1069 463 1082 l 389 1132 z "},"Ư":{"ha":833,"x_min":81,"x_max":1006,"o":"m 417 -12 q 222 26 294 -12 q 115 157 149 65 q 81 411 81 249 l 81 1010 l 199 1010 l 199 411 q 220 216 199 285 q 291 117 242 146 q 424 88 339 88 q 545 120 500 88 q 610 223 590 153 q 631 411 631 294 l 631 1010 l 751 1010 l 751 411 q 723 178 751 269 q 622 37 695 87 q 417 -12 549 -12 m 874 935 l 751 935 l 751 1010 l 878 1008 q 900 1020 891 1008 q 910 1057 910 1031 l 910 1135 l 1006 1135 l 1006 1047 q 997 976 1006 1000 q 970 943 989 952 q 918 935 952 935 l 874 935 z "},"Ứ":{"ha":833,"x_min":69,"x_max":1026,"o":"m 398 1410 l 560 1410 l 374 1116 l 272 1116 l 398 1410 m 926 1173 l 1026 1173 l 1026 1083 q 1017 1009 1026 1034 q 989 975 1008 984 q 935 966 970 966 l 890 966 l 763 966 l 763 425 q 734 184 763 278 q 630 38 706 90 q 417 -13 553 -13 q 215 27 290 -13 q 105 162 140 67 q 69 425 69 257 l 69 1044 l 192 1044 l 192 425 q 214 223 192 295 q 287 120 237 151 q 424 90 337 90 q 549 124 503 90 q 617 231 596 158 q 638 425 638 303 l 638 1044 l 763 1044 l 894 1042 q 917 1054 907 1042 q 926 1092 926 1066 l 926 1173 z "},"Ự":{"ha":833,"x_min":118,"x_max":1074,"o":"m 975 1173 l 1074 1173 l 1074 1083 q 1066 1009 1074 1034 q 1038 975 1057 984 q 984 966 1019 966 l 938 966 l 812 966 l 812 425 q 783 184 812 278 q 678 38 754 90 q 465 -13 602 -13 q 264 27 339 -13 q 153 162 189 67 q 118 425 118 257 l 118 1044 l 240 1044 l 240 425 q 263 223 240 295 q 335 120 285 151 q 473 90 385 90 q 598 124 551 90 q 666 231 644 158 q 687 425 687 303 l 687 1044 l 812 1044 l 942 1042 q 965 1054 956 1042 q 975 1092 975 1066 l 975 1173 m 466 -45 q 524 -66 503 -45 q 544 -124 544 -87 q 524 -181 544 -160 q 466 -202 503 -202 q 409 -181 430 -202 q 388 -124 388 -160 q 409 -66 388 -87 q 466 -45 430 -45 z "},"Ừ":{"ha":833,"x_min":118,"x_max":1074,"o":"m 476 1410 l 609 1116 l 503 1116 l 306 1410 l 476 1410 m 975 1173 l 1074 1173 l 1074 1083 q 1066 1009 1074 1034 q 1038 975 1057 984 q 984 966 1019 966 l 938 966 l 812 966 l 812 425 q 783 184 812 278 q 678 38 754 90 q 465 -13 602 -13 q 264 27 339 -13 q 153 162 189 67 q 118 425 118 257 l 118 1044 l 240 1044 l 240 425 q 263 223 240 295 q 335 120 285 151 q 473 90 385 90 q 598 124 551 90 q 666 231 644 158 q 687 425 687 303 l 687 1044 l 812 1044 l 942 1042 q 965 1054 956 1042 q 975 1092 975 1066 l 975 1173 z "},"Ử":{"ha":833,"x_min":118,"x_max":1074,"o":"m 501 1226 q 487 1261 501 1247 q 453 1275 473 1275 q 415 1272 427 1275 q 376 1255 403 1268 l 376 1321 q 413 1336 395 1332 q 456 1341 430 1341 q 504 1330 476 1341 q 551 1295 531 1319 q 572 1236 572 1272 q 542 1151 572 1186 q 458 1103 513 1116 l 437 1167 q 483 1187 464 1169 q 501 1226 501 1204 m 975 1173 l 1074 1173 l 1074 1083 q 1066 1009 1074 1034 q 1038 975 1057 984 q 984 966 1019 966 l 938 966 l 812 966 l 812 425 q 783 184 812 278 q 678 38 754 90 q 465 -13 602 -13 q 264 27 339 -13 q 153 162 189 67 q 118 425 118 257 l 118 1044 l 240 1044 l 240 425 q 263 223 240 295 q 335 120 285 151 q 473 90 385 90 q 598 124 551 90 q 666 231 644 158 q 687 425 687 303 l 687 1044 l 812 1044 l 942 1042 q 965 1054 956 1042 q 975 1092 975 1066 l 975 1173 z "},"Ữ":{"ha":833,"x_min":118,"x_max":1074,"o":"m 360 1240 q 318 1224 338 1240 q 269 1173 299 1209 l 199 1247 q 280 1315 234 1290 q 369 1340 325 1340 q 432 1328 403 1340 q 490 1295 460 1316 q 525 1275 513 1282 q 551 1261 542 1265 q 572 1258 559 1258 q 600 1265 588 1258 q 633 1290 612 1272 q 665 1317 644 1300 l 724 1244 q 647 1180 691 1203 q 562 1156 603 1156 q 505 1166 533 1156 q 441 1201 478 1176 q 392 1231 408 1223 q 360 1240 376 1240 m 975 1173 l 1074 1173 l 1074 1083 q 1066 1009 1074 1034 q 1038 975 1057 984 q 984 966 1019 966 l 938 966 l 812 966 l 812 425 q 783 184 812 278 q 678 38 754 90 q 465 -13 602 -13 q 264 27 339 -13 q 153 162 189 67 q 118 425 118 257 l 118 1044 l 240 1044 l 240 425 q 263 223 240 295 q 335 120 285 151 q 473 90 385 90 q 598 124 551 90 q 666 231 644 158 q 687 425 687 303 l 687 1044 l 812 1044 l 942 1042 q 965 1054 956 1042 q 975 1092 975 1066 l 975 1173 z "},"Ű":{"ha":833,"x_min":81,"x_max":751,"o":"m 417 -12 q 222 26 294 -12 q 115 157 149 65 q 81 411 81 249 l 81 1010 l 199 1010 l 199 411 q 220 216 199 285 q 291 117 242 146 q 424 88 339 88 q 545 120 500 88 q 610 223 590 153 q 631 411 631 294 l 631 1010 l 751 1010 l 751 411 q 723 178 751 269 q 622 37 695 87 q 417 -12 549 -12 m 286 1128 l 200 1128 l 331 1329 l 474 1329 l 286 1128 m 544 1128 l 457 1128 l 589 1329 l 731 1329 l 544 1128 z "},"Ȗ":{"ha":833,"x_min":81,"x_max":751,"o":"m 417 -12 q 222 26 294 -12 q 115 157 149 65 q 81 411 81 249 l 81 1010 l 199 1010 l 199 411 q 220 216 199 285 q 291 117 242 146 q 424 88 339 88 q 545 120 500 88 q 610 223 590 153 q 631 411 631 294 l 631 1010 l 751 1010 l 751 411 q 723 178 751 269 q 622 37 695 87 q 417 -12 549 -12 m 417 1310 q 530 1291 479 1310 q 610 1233 581 1272 q 640 1136 640 1194 l 553 1136 q 533 1189 553 1167 q 482 1222 513 1211 q 419 1232 451 1232 q 360 1221 390 1232 q 309 1189 330 1210 q 289 1136 289 1167 l 197 1136 q 226 1233 197 1194 q 305 1291 255 1272 q 417 1310 354 1310 z "},"Ū":{"ha":833,"x_min":81,"x_max":751,"o":"m 417 -12 q 222 26 294 -12 q 115 157 149 65 q 81 411 81 249 l 81 1010 l 199 1010 l 199 411 q 220 216 199 285 q 291 117 242 146 q 424 88 339 88 q 545 120 500 88 q 610 223 590 153 q 631 411 631 294 l 631 1010 l 751 1010 l 751 411 q 723 178 751 269 q 622 37 695 87 q 417 -12 549 -12 m 675 1140 l 160 1140 l 160 1253 l 675 1253 l 675 1140 z "},"Ṻ":{"ha":833,"x_min":64,"x_max":735,"o":"m 213 1238 q 141 1263 167 1238 q 115 1333 115 1289 q 141 1403 115 1377 q 213 1430 167 1430 q 283 1403 258 1430 q 308 1333 308 1377 q 283 1263 308 1289 q 213 1238 258 1238 m 601 1238 q 527 1264 554 1238 q 501 1334 501 1290 q 527 1404 501 1378 q 601 1430 554 1430 q 672 1404 646 1430 q 697 1334 697 1378 q 672 1264 697 1290 q 601 1238 646 1238 m 681 1069 l 119 1069 l 119 1192 l 681 1192 l 681 1069 m 400 -12 q 205 26 277 -12 q 98 157 133 65 q 64 411 64 249 l 64 1010 l 182 1010 l 182 411 q 204 216 182 285 q 274 117 226 146 q 407 88 322 88 q 528 120 483 88 q 593 223 573 153 q 614 411 614 294 l 614 1010 l 735 1010 l 735 411 q 707 178 735 269 q 606 37 678 87 q 400 -12 533 -12 z "},"Ų":{"ha":833,"x_min":81,"x_max":751,"o":"m 631 1010 l 751 1010 l 751 411 q 733 214 751 295 q 669 77 715 132 q 541 1 623 23 l 526 -7 l 511 -17 q 494 -28 508 -19 q 472 -51 481 -37 q 463 -83 463 -65 q 476 -120 463 -107 q 511 -133 489 -133 q 555 -127 531 -133 q 596 -112 579 -120 l 596 -200 q 541 -216 572 -211 q 467 -221 510 -221 q 405 -206 438 -221 q 350 -165 372 -191 q 328 -110 328 -140 q 335 -64 328 -83 q 352 -34 343 -44 q 374 -11 360 -24 q 205 37 268 -5 q 111 168 141 78 q 81 411 81 258 l 81 1010 l 199 1010 l 199 411 q 220 216 199 285 q 291 117 242 146 q 424 88 339 88 q 545 120 500 88 q 610 223 590 153 q 631 411 631 294 l 631 1010 z "},"Ʊ":{"ha":833,"x_min":46,"x_max":788,"o":"m 736 1007 l 736 889 l 571 889 l 571 869 q 674 781 624 841 q 756 632 724 722 q 788 432 788 542 q 742 199 788 299 q 612 45 696 99 q 417 -10 528 -10 q 215 43 299 -10 q 89 194 132 95 q 46 432 46 294 q 78 636 46 547 q 159 782 110 725 q 263 868 208 840 l 263 889 l 97 889 l 97 1007 l 376 1007 l 376 825 q 268 750 313 812 q 201 602 224 688 q 179 432 179 516 q 206 276 179 355 q 286 144 232 197 q 418 92 340 92 q 551 143 497 92 q 630 273 604 194 q 656 432 656 351 q 634 606 656 521 q 568 751 613 691 q 457 825 524 812 l 457 1007 l 736 1007 z "},"Ů":{"ha":833,"x_min":81,"x_max":751,"o":"m 417 -12 q 222 26 294 -12 q 115 157 149 65 q 81 411 81 249 l 81 1010 l 199 1010 l 199 411 q 220 216 199 285 q 291 117 242 146 q 424 88 339 88 q 545 120 500 88 q 610 223 590 153 q 631 411 631 294 l 631 1010 l 751 1010 l 751 411 q 723 178 751 269 q 622 37 695 87 q 417 -12 549 -12 m 415 1093 q 336 1112 372 1093 q 281 1164 301 1131 q 261 1238 261 1197 q 281 1312 261 1278 q 336 1365 301 1346 q 415 1385 372 1385 q 495 1365 459 1385 q 551 1312 531 1346 q 572 1238 572 1278 q 552 1164 572 1197 q 495 1112 531 1131 q 415 1093 459 1093 m 415 1157 q 473 1181 449 1157 q 496 1240 496 1205 q 473 1299 496 1276 q 415 1322 450 1322 q 360 1299 382 1322 q 339 1240 339 1276 q 360 1181 339 1205 q 415 1157 382 1157 z "},"Ũ":{"ha":833,"x_min":81,"x_max":751,"o":"m 417 -12 q 222 26 294 -12 q 115 157 149 65 q 81 411 81 249 l 81 1010 l 199 1010 l 199 411 q 220 216 199 285 q 291 117 242 146 q 424 88 339 88 q 545 120 500 88 q 610 223 590 153 q 631 411 631 294 l 631 1010 l 751 1010 l 751 411 q 723 178 751 269 q 622 37 695 87 q 417 -12 549 -12 m 510 1121 q 456 1131 482 1121 q 393 1164 429 1141 q 346 1193 362 1185 q 315 1201 331 1201 q 274 1187 293 1201 q 226 1138 256 1172 l 158 1208 q 236 1275 192 1251 q 324 1299 281 1299 q 384 1287 356 1299 q 440 1256 411 1276 l 474 1237 q 498 1223 489 1227 q 519 1219 507 1219 q 547 1226 535 1219 q 580 1251 559 1233 q 610 1276 594 1265 l 667 1206 q 592 1143 635 1166 q 510 1121 550 1121 z "},"Ṹ":{"ha":833,"x_min":81,"x_max":751,"o":"m 417 -12 q 222 26 294 -12 q 115 157 149 65 q 81 411 81 249 l 81 1010 l 199 1010 l 199 411 q 220 216 199 285 q 291 117 242 146 q 424 88 339 88 q 545 120 500 88 q 610 223 590 153 q 631 411 631 294 l 631 1010 l 751 1010 l 751 411 q 723 178 751 269 q 622 37 695 87 q 417 -12 549 -12 m 506 1012 q 451 1022 478 1012 q 389 1055 425 1032 q 342 1084 358 1076 q 311 1092 326 1092 q 270 1078 289 1092 q 222 1028 251 1063 l 154 1099 q 232 1166 188 1142 q 319 1190 276 1190 q 380 1178 352 1190 q 436 1147 407 1167 l 469 1128 q 494 1114 485 1118 q 515 1110 503 1110 q 543 1117 531 1110 q 576 1142 555 1124 q 606 1167 590 1156 l 663 1097 q 588 1034 631 1057 q 506 1012 546 1012 m 553 1529 l 372 1244 l 274 1244 l 396 1529 l 553 1529 z "},"Ṵ":{"ha":833,"x_min":81,"x_max":751,"o":"m 417 -12 q 222 26 294 -12 q 115 157 149 65 q 81 411 81 249 l 81 1010 l 199 1010 l 199 411 q 220 216 199 285 q 291 117 242 146 q 424 88 339 88 q 545 120 500 88 q 610 223 590 153 q 631 411 631 294 l 631 1010 l 751 1010 l 751 411 q 723 178 751 269 q 622 37 695 87 q 417 -12 549 -12 m 526 -232 q 473 -221 501 -232 q 408 -189 445 -210 q 361 -164 376 -169 q 332 -158 347 -158 q 290 -171 309 -158 q 243 -218 271 -184 l 183 -132 q 340 -49 251 -49 q 389 -57 369 -49 q 442 -83 410 -65 l 458 -92 q 507 -117 494 -112 q 536 -122 519 -122 q 565 -115 553 -122 q 603 -88 578 -108 l 628 -69 l 681 -146 q 609 -209 649 -187 q 526 -232 568 -232 z "},"V":{"ha":833,"x_min":64,"x_max":768,"o":"m 479 0 l 349 0 l 64 1007 l 178 1007 l 418 132 l 651 1007 l 768 1007 l 479 0 z "},"Ỽ":{"ha":833,"x_min":108,"x_max":688,"o":"m 419 0 q 271 60 343 0 q 153 225 199 121 q 108 451 108 328 q 152 692 108 581 q 267 869 197 803 q 414 935 338 935 q 582 913 526 935 q 639 853 639 892 q 618 814 639 828 q 572 799 598 799 q 535 809 547 799 q 510 841 522 819 q 490 870 499 859 q 463 888 481 881 q 417 896 445 896 q 334 834 371 896 q 276 670 297 772 q 256 451 256 568 q 281 185 256 274 q 340 70 306 95 q 417 44 374 44 q 494 72 459 44 q 551 148 530 99 q 572 256 572 196 q 552 367 572 316 q 497 447 532 417 q 421 476 463 476 q 388 482 397 476 q 378 500 378 487 q 396 517 378 513 q 450 522 414 522 q 580 482 526 522 q 660 378 633 441 q 688 251 688 316 q 652 114 688 170 q 555 28 616 57 q 419 0 494 0 z "},"Ｖ":{"ha":833,"x_min":64,"x_max":768,"o":"m 479 0 l 349 0 l 64 1007 l 178 1007 l 418 132 l 651 1007 l 768 1007 l 479 0 z "},"Ɣ":{"ha":833,"x_min":82,"x_max":750,"o":"m 461 463 l 560 272 q 582 189 582 228 q 540 78 582 122 q 415 35 498 35 q 316 57 358 35 q 253 117 275 79 q 232 200 232 155 q 250 272 232 238 l 355 463 l 82 976 l 196 976 l 410 563 l 636 976 l 750 976 l 461 463 m 414 121 q 469 139 449 121 q 490 188 490 156 q 486 209 490 194 q 476 235 483 223 l 407 365 l 333 235 q 326 214 329 227 q 324 188 324 201 q 350 139 324 157 q 414 121 376 121 z "},"Ṿ":{"ha":833,"x_min":64,"x_max":768,"o":"m 479 0 l 349 0 l 64 1007 l 178 1007 l 418 132 l 651 1007 l 768 1007 l 479 0 m 417 -196 q 361 -175 382 -196 q 341 -119 341 -155 q 361 -64 341 -85 q 417 -44 382 -44 q 473 -64 452 -44 q 493 -119 493 -85 q 473 -175 493 -155 q 417 -196 452 -196 z "},"Ʋ":{"ha":833,"x_min":53,"x_max":779,"o":"m 364 -12 q 154 62 223 -12 q 69 225 85 137 q 53 407 53 313 l 53 1010 l 175 1010 l 175 432 q 185 274 175 339 q 236 160 194 209 q 367 111 278 111 q 614 338 549 111 q 644 579 644 444 q 628 757 644 681 q 583 872 612 833 q 493 919 547 919 q 411 897 456 919 l 411 1013 q 540 1038 483 1038 q 639 1015 597 1038 q 708 951 681 992 q 765 787 750 887 q 779 600 779 688 q 768 446 779 522 q 738 306 758 371 q 597 69 690 150 q 364 -12 503 -12 z "},"Ṽ":{"ha":833,"x_min":64,"x_max":768,"o":"m 479 0 l 349 0 l 64 1007 l 178 1007 l 418 132 l 651 1007 l 768 1007 l 479 0 m 510 1118 q 456 1128 482 1118 q 393 1161 429 1138 q 346 1190 362 1182 q 315 1199 331 1199 q 274 1184 293 1199 q 226 1135 256 1169 l 158 1206 q 236 1272 192 1248 q 324 1296 281 1296 q 384 1284 356 1296 q 440 1253 411 1273 l 474 1234 q 498 1220 489 1224 q 519 1217 507 1217 q 547 1224 535 1217 q 580 1249 559 1231 q 610 1274 594 1262 l 667 1203 q 592 1141 635 1163 q 510 1118 550 1118 z "},"Ʌ":{"ha":833,"x_min":64,"x_max":768,"o":"m 64 0 l 349 1007 l 479 1007 l 768 0 l 651 0 l 418 875 l 178 0 l 64 0 z "},"W":{"ha":833,"x_min":72,"x_max":760,"o":"m 324 0 l 156 0 l 72 1007 l 190 1007 l 239 157 l 258 156 l 367 771 l 468 771 l 575 156 l 594 157 l 640 1007 l 760 1007 l 674 0 l 500 0 l 424 482 l 422 518 l 413 518 l 410 482 l 324 0 z "},"Ｗ":{"ha":833,"x_min":72,"x_max":760,"o":"m 324 0 l 156 0 l 72 1007 l 190 1007 l 239 157 l 258 156 l 367 771 l 468 771 l 575 156 l 594 157 l 640 1007 l 760 1007 l 674 0 l 500 0 l 424 482 l 422 518 l 413 518 l 410 482 l 324 0 z "},"Ẃ":{"ha":833,"x_min":72,"x_max":760,"o":"m 324 0 l 156 0 l 72 1007 l 190 1007 l 239 157 l 258 156 l 367 771 l 468 771 l 575 156 l 594 157 l 640 1007 l 760 1007 l 674 0 l 500 0 l 424 482 l 422 518 l 413 518 l 410 482 l 324 0 m 556 1364 l 375 1079 l 276 1079 l 399 1364 l 556 1364 z "},"Ŵ":{"ha":833,"x_min":72,"x_max":760,"o":"m 324 0 l 156 0 l 72 1007 l 190 1007 l 239 157 l 258 156 l 367 771 l 468 771 l 575 156 l 594 157 l 640 1007 l 760 1007 l 674 0 l 500 0 l 424 482 l 422 518 l 413 518 l 410 482 l 324 0 m 244 1110 l 113 1110 l 338 1364 l 497 1364 l 721 1110 l 590 1110 l 417 1292 l 244 1110 z "},"Ẅ":{"ha":833,"x_min":72,"x_max":760,"o":"m 324 0 l 156 0 l 72 1007 l 190 1007 l 239 157 l 258 156 l 367 771 l 468 771 l 575 156 l 594 157 l 640 1007 l 760 1007 l 674 0 l 500 0 l 424 482 l 422 518 l 413 518 l 410 482 l 324 0 m 244 1118 q 179 1142 202 1118 q 156 1206 156 1165 q 179 1270 156 1247 q 244 1294 202 1294 q 309 1270 285 1294 q 332 1206 332 1247 q 309 1142 332 1165 q 244 1118 285 1118 m 600 1118 q 533 1142 558 1118 q 508 1207 508 1166 q 533 1271 508 1248 q 600 1294 558 1294 q 665 1271 642 1294 q 689 1207 689 1248 q 665 1142 689 1166 q 600 1118 642 1118 z "},"Ẇ":{"ha":833,"x_min":72,"x_max":760,"o":"m 324 0 l 156 0 l 72 1007 l 190 1007 l 239 157 l 258 156 l 367 771 l 468 771 l 575 156 l 594 157 l 640 1007 l 760 1007 l 674 0 l 500 0 l 424 482 l 422 518 l 413 518 l 410 482 l 324 0 m 417 1100 q 351 1124 375 1100 q 328 1190 328 1149 q 351 1256 328 1232 q 417 1279 375 1279 q 482 1256 458 1279 q 506 1190 506 1232 q 482 1124 506 1149 q 417 1100 458 1100 z "},"Ẉ":{"ha":833,"x_min":72,"x_max":760,"o":"m 324 0 l 156 0 l 72 1007 l 190 1007 l 239 157 l 258 156 l 367 771 l 468 771 l 575 156 l 594 157 l 640 1007 l 760 1007 l 674 0 l 500 0 l 424 482 l 422 518 l 413 518 l 410 482 l 324 0 m 417 -196 q 361 -175 382 -196 q 341 -119 341 -155 q 361 -64 341 -85 q 417 -44 382 -44 q 473 -64 452 -44 q 493 -119 493 -85 q 473 -175 493 -155 q 417 -196 452 -196 z "},"Ẁ":{"ha":833,"x_min":72,"x_max":760,"o":"m 324 0 l 156 0 l 72 1007 l 190 1007 l 239 157 l 258 156 l 367 771 l 468 771 l 575 156 l 594 157 l 640 1007 l 760 1007 l 674 0 l 500 0 l 424 482 l 422 518 l 413 518 l 410 482 l 324 0 m 556 1079 l 453 1079 l 263 1364 l 426 1364 l 556 1079 z "},"Ƿ":{"ha":833,"x_min":110,"x_max":747,"o":"m 114 799 q 110 958 114 879 l 218 960 l 222 875 q 315 948 257 917 q 456 979 374 979 q 588 951 519 979 q 701 865 656 922 q 747 728 747 808 q 696 574 747 642 q 552 444 645 507 q 256 261 458 381 l 226 244 l 226 0 l 114 0 l 114 799 m 231 375 q 409 465 315 407 q 569 591 504 524 q 635 714 635 658 q 580 843 635 800 q 439 886 526 886 q 347 862 397 886 q 261 794 297 838 q 226 694 226 751 q 227 595 226 652 q 228 510 228 539 q 231 375 231 435 z "},"X":{"ha":833,"x_min":67,"x_max":768,"o":"m 194 0 l 67 0 l 349 522 l 81 1007 l 217 1007 l 411 628 l 613 1007 l 742 1007 l 478 538 l 768 0 l 638 0 l 415 432 l 194 0 z "},"Ｘ":{"ha":833,"x_min":67,"x_max":768,"o":"m 194 0 l 67 0 l 349 522 l 81 1007 l 217 1007 l 411 628 l 613 1007 l 742 1007 l 478 538 l 768 0 l 638 0 l 415 432 l 194 0 z "},"Ẍ":{"ha":833,"x_min":67,"x_max":768,"o":"m 194 0 l 67 0 l 349 522 l 81 1007 l 217 1007 l 411 628 l 613 1007 l 742 1007 l 478 538 l 768 0 l 638 0 l 415 432 l 194 0 m 244 1118 q 179 1142 202 1118 q 156 1206 156 1165 q 179 1270 156 1247 q 244 1294 202 1294 q 309 1270 285 1294 q 332 1206 332 1247 q 309 1142 332 1165 q 244 1118 285 1118 m 600 1118 q 533 1142 558 1118 q 508 1207 508 1166 q 533 1271 508 1248 q 600 1294 558 1294 q 665 1271 642 1294 q 689 1207 689 1248 q 665 1142 689 1166 q 600 1118 642 1118 z "},"Ẋ":{"ha":833,"x_min":67,"x_max":768,"o":"m 194 0 l 67 0 l 349 522 l 81 1007 l 217 1007 l 411 628 l 613 1007 l 742 1007 l 478 538 l 768 0 l 638 0 l 415 432 l 194 0 m 417 1100 q 351 1124 375 1100 q 328 1190 328 1149 q 351 1256 328 1232 q 417 1279 375 1279 q 482 1256 458 1279 q 506 1190 506 1232 q 482 1124 506 1149 q 417 1100 458 1100 z "},"Y":{"ha":833,"x_min":74,"x_max":758,"o":"m 478 0 l 356 0 l 356 421 l 74 1007 l 203 1007 l 421 531 l 635 1007 l 758 1007 l 478 421 l 478 0 z "},"Ｙ":{"ha":833,"x_min":74,"x_max":758,"o":"m 478 0 l 356 0 l 356 421 l 74 1007 l 203 1007 l 421 531 l 635 1007 l 758 1007 l 478 421 l 478 0 z "},"Ý":{"ha":833,"x_min":74,"x_max":758,"o":"m 478 0 l 356 0 l 356 421 l 74 1007 l 203 1007 l 421 531 l 635 1007 l 758 1007 l 478 421 l 478 0 m 556 1364 l 375 1079 l 276 1079 l 399 1364 l 556 1364 z "},"Ŷ":{"ha":833,"x_min":74,"x_max":758,"o":"m 478 0 l 356 0 l 356 421 l 74 1007 l 203 1007 l 421 531 l 635 1007 l 758 1007 l 478 421 l 478 0 m 244 1110 l 113 1110 l 338 1364 l 497 1364 l 721 1110 l 590 1110 l 417 1292 l 244 1110 z "},"Ÿ":{"ha":833,"x_min":74,"x_max":758,"o":"m 244 1118 q 179 1142 202 1118 q 156 1206 156 1165 q 179 1270 156 1247 q 244 1294 202 1294 q 309 1270 285 1294 q 332 1206 332 1247 q 309 1142 332 1165 q 244 1118 285 1118 m 600 1118 q 533 1142 558 1118 q 508 1207 508 1166 q 533 1271 508 1248 q 600 1294 558 1294 q 665 1271 642 1294 q 689 1207 689 1248 q 665 1142 689 1166 q 600 1118 642 1118 m 478 0 l 356 0 l 356 421 l 74 1007 l 203 1007 l 421 531 l 635 1007 l 758 1007 l 478 421 l 478 0 z "},"Ẏ":{"ha":833,"x_min":74,"x_max":758,"o":"m 478 0 l 356 0 l 356 421 l 74 1007 l 203 1007 l 421 531 l 635 1007 l 758 1007 l 478 421 l 478 0 m 417 1100 q 351 1124 375 1100 q 328 1190 328 1149 q 351 1256 328 1232 q 417 1279 375 1279 q 482 1256 458 1279 q 506 1190 506 1232 q 482 1124 506 1149 q 417 1100 458 1100 z "},"Ỵ":{"ha":833,"x_min":74,"x_max":758,"o":"m 478 0 l 356 0 l 356 421 l 74 1007 l 203 1007 l 421 531 l 635 1007 l 758 1007 l 478 421 l 478 0 m 417 -196 q 361 -175 382 -196 q 341 -119 341 -155 q 361 -64 341 -85 q 417 -44 382 -44 q 473 -64 452 -44 q 493 -119 493 -85 q 473 -175 493 -155 q 417 -196 452 -196 z "},"Ỳ":{"ha":833,"x_min":74,"x_max":758,"o":"m 478 0 l 356 0 l 356 421 l 74 1007 l 203 1007 l 421 531 l 635 1007 l 758 1007 l 478 421 l 478 0 m 556 1079 l 453 1079 l 263 1364 l 426 1364 l 556 1079 z "},"Ƴ":{"ha":833,"x_min":51,"x_max":781,"o":"m 718 1035 q 781 1025 746 1035 l 781 931 q 715 940 744 940 q 669 916 688 940 q 643 872 651 892 q 632 848 634 852 q 551 649 634 851 q 456 421 468 448 l 456 0 l 333 0 l 333 421 l 51 1007 l 181 1007 l 399 531 q 508 806 440 628 q 539 883 536 878 q 568 942 553 917 q 601 989 582 967 q 650 1024 624 1013 q 718 1035 676 1035 z "},"Ỷ":{"ha":833,"x_min":74,"x_max":758,"o":"m 478 0 l 356 0 l 356 421 l 74 1007 l 203 1007 l 421 531 l 635 1007 l 758 1007 l 478 421 l 478 0 m 389 1129 q 433 1148 415 1131 q 451 1186 451 1165 q 438 1220 451 1206 q 404 1233 424 1233 q 368 1230 380 1233 q 331 1214 356 1226 l 331 1278 q 366 1293 349 1288 q 407 1297 383 1297 q 454 1286 428 1297 q 500 1253 481 1276 q 519 1196 519 1231 q 491 1113 519 1147 q 410 1067 463 1079 l 389 1129 z "},"Ỿ":{"ha":833,"x_min":64,"x_max":731,"o":"m 471 422 l 471 194 l 722 194 l 722 108 l 471 108 l 471 6 q 448 -100 471 -54 q 378 -171 424 -145 q 264 -197 331 -197 q 153 -168 198 -197 q 86 -94 108 -140 q 64 1 64 -49 q 117 140 64 85 q 307 194 171 194 l 358 194 l 358 428 l 99 1010 l 219 1010 l 417 535 l 617 1011 l 731 1011 l 471 422 m 358 108 l 263 108 q 191 82 218 108 q 164 7 164 56 q 178 -51 164 -26 q 215 -89 192 -76 q 264 -103 238 -103 q 332 -72 306 -103 q 358 7 358 -42 l 358 108 z "},"Ȳ":{"ha":833,"x_min":74,"x_max":758,"o":"m 478 0 l 356 0 l 356 421 l 74 1007 l 203 1007 l 421 531 l 635 1007 l 758 1007 l 478 421 l 478 0 m 675 1140 l 160 1140 l 160 1253 l 675 1253 l 675 1140 z "},"Ʀ":{"ha":833,"x_min":115,"x_max":779,"o":"m 779 -149 l 638 -149 l 367 386 l 235 386 l 235 -1 l 115 -1 l 115 1049 l 235 1049 l 235 892 l 388 892 q 525 864 459 892 q 632 780 590 837 q 674 640 674 723 q 626 490 674 550 q 500 405 578 431 l 779 -149 m 235 786 l 235 496 l 344 496 q 454 506 410 496 q 525 549 498 517 q 551 642 551 581 q 371 786 551 786 l 235 786 z "},"Ɏ":{"ha":833,"x_min":74,"x_max":758,"o":"m 635 1007 l 758 1007 l 685 853 l 738 853 l 738 714 l 618 714 l 478 421 l 478 0 l 356 0 l 356 421 l 215 714 l 96 714 l 96 853 l 148 853 l 74 1007 l 203 1007 l 274 853 l 565 853 l 635 1007 m 337 714 l 421 531 l 503 714 l 337 714 z "},"Ỹ":{"ha":833,"x_min":74,"x_max":758,"o":"m 478 0 l 356 0 l 356 421 l 74 1007 l 203 1007 l 421 531 l 635 1007 l 758 1007 l 478 421 l 478 0 m 510 1118 q 456 1128 482 1118 q 393 1161 429 1138 q 346 1190 362 1182 q 315 1199 331 1199 q 274 1184 293 1199 q 226 1135 256 1169 l 158 1206 q 236 1272 192 1248 q 324 1296 281 1296 q 384 1284 356 1296 q 440 1253 411 1273 l 474 1234 q 498 1220 489 1224 q 519 1217 507 1217 q 547 1224 535 1217 q 580 1249 559 1231 q 610 1274 594 1262 l 667 1203 q 592 1141 635 1163 q 510 1118 550 1118 z "},"Z":{"ha":833,"x_min":72,"x_max":768,"o":"m 768 0 l 72 0 l 72 115 l 615 904 l 114 904 l 114 1007 l 747 1007 l 747 899 l 208 101 l 768 101 l 768 0 z "},"Ｚ":{"ha":833,"x_min":72,"x_max":768,"o":"m 768 0 l 72 0 l 72 115 l 615 904 l 114 904 l 114 1007 l 747 1007 l 747 899 l 208 101 l 768 101 l 768 0 z "},"Ź":{"ha":833,"x_min":72,"x_max":768,"o":"m 768 0 l 72 0 l 72 115 l 615 904 l 114 904 l 114 1007 l 747 1007 l 747 899 l 208 101 l 768 101 l 768 0 m 556 1364 l 375 1079 l 276 1079 l 399 1364 l 556 1364 z "},"Ž":{"ha":833,"x_min":72,"x_max":768,"o":"m 768 0 l 72 0 l 72 115 l 615 904 l 114 904 l 114 1007 l 747 1007 l 747 899 l 208 101 l 768 101 l 768 0 m 517 1094 l 386 1094 l 251 1299 l 335 1299 l 451 1175 l 568 1299 l 651 1299 l 517 1094 z "},"Ẑ":{"ha":833,"x_min":72,"x_max":768,"o":"m 768 0 l 72 0 l 72 115 l 615 904 l 114 904 l 114 1007 l 747 1007 l 747 899 l 208 101 l 768 101 l 768 0 m 244 1110 l 113 1110 l 338 1364 l 497 1364 l 721 1110 l 590 1110 l 417 1292 l 244 1110 z "},"Ż":{"ha":833,"x_min":72,"x_max":768,"o":"m 768 0 l 72 0 l 72 115 l 615 904 l 114 904 l 114 1007 l 747 1007 l 747 899 l 208 101 l 768 101 l 768 0 m 417 1090 q 351 1115 375 1090 q 328 1181 328 1139 q 351 1246 328 1222 q 417 1269 375 1269 q 482 1246 458 1269 q 506 1181 506 1222 q 482 1115 506 1139 q 417 1090 458 1090 z "},"Ẓ":{"ha":833,"x_min":72,"x_max":768,"o":"m 768 0 l 72 0 l 72 115 l 615 904 l 114 904 l 114 1007 l 747 1007 l 747 899 l 208 101 l 768 101 l 768 0 m 417 -196 q 361 -175 382 -196 q 341 -119 341 -155 q 361 -64 341 -85 q 417 -44 382 -44 q 473 -64 452 -44 q 493 -119 493 -85 q 473 -175 493 -155 q 417 -196 452 -196 z "},"Ȥ":{"ha":833,"x_min":72,"x_max":768,"o":"m 208 101 l 768 101 l 768 0 q 750 -129 767 -78 q 691 -205 732 -179 q 582 -231 651 -231 l 478 -231 l 478 -132 l 586 -132 q 635 -100 619 -132 q 651 0 650 -68 l 72 0 l 72 115 l 615 904 l 114 904 l 114 1007 l 747 1007 l 747 899 l 208 101 z "},"Ẕ":{"ha":833,"x_min":72,"x_max":768,"o":"m 768 0 l 72 0 l 72 115 l 615 904 l 114 904 l 114 1007 l 747 1007 l 747 899 l 208 101 l 768 101 l 768 0 m 674 -190 l 158 -190 l 158 -78 l 674 -78 l 674 -190 z "},"Ƶ":{"ha":833,"x_min":72,"x_max":768,"o":"m 446 453 l 208 101 l 768 101 l 768 0 l 72 0 l 72 115 l 305 453 l 172 453 l 172 592 l 400 592 l 615 904 l 114 904 l 114 1007 l 747 1007 l 747 899 l 540 592 l 729 592 l 729 453 l 446 453 z "},"Ɀ":{"ha":833,"x_min":78,"x_max":753,"o":"m 78 0 l 78 111 l 621 903 l 118 903 l 118 1006 l 753 1006 l 753 883 l 243 101 l 275 101 q 332 81 304 101 q 384 31 360 60 q 442 -45 408 3 q 504 -125 481 -99 q 549 -150 527 -150 q 607 -139 583 -150 q 648 -109 631 -127 q 685 -62 665 -91 l 751 -132 q 686 -208 717 -181 q 622 -246 655 -235 q 546 -257 590 -257 q 482 -240 511 -257 q 429 -198 452 -223 q 374 -131 406 -173 q 315 -62 340 -87 q 259 -18 291 -36 q 189 0 228 0 l 78 0 z "},"ᴁ":{"ha":833,"x_min":51,"x_max":768,"o":"m 144 0 l 51 0 l 300 694 l 750 694 l 750 622 l 538 622 l 538 406 l 731 406 l 731 325 l 538 325 l 538 72 l 768 72 l 768 2 l 446 2 l 446 195 l 224 195 l 144 0 m 365 622 l 247 281 l 446 281 l 446 622 l 365 622 z "},"ᴀ":{"ha":833,"x_min":99,"x_max":736,"o":"m 215 0 l 99 0 l 351 694 l 479 694 l 736 0 l 613 0 l 547 187 l 278 187 l 215 0 m 417 597 l 304 266 l 522 266 l 419 597 l 417 597 z "},"ᴃ":{"ha":833,"x_min":56,"x_max":814,"o":"m 814 399 l 814 273 l 704 273 q 724 190 724 237 q 646 44 724 94 q 418 -6 567 -6 l 168 -6 l 168 273 l 56 273 l 56 399 l 168 399 l 168 669 l 431 669 q 613 621 550 669 q 676 485 676 572 q 673 436 676 457 q 662 399 669 415 l 814 399 m 319 556 l 319 399 l 469 399 q 522 425 505 406 q 538 478 538 445 q 510 537 538 518 q 420 556 481 556 l 319 556 m 567 192 q 556 242 567 223 q 520 273 545 262 l 319 273 l 319 103 l 392 103 q 487 109 451 103 q 545 133 523 114 q 567 192 567 152 z "},"ʙ":{"ha":833,"x_min":131,"x_max":706,"o":"m 131 0 l 131 806 l 401 806 q 536 786 475 806 q 635 720 597 766 q 674 601 674 674 q 633 483 674 526 q 515 419 593 439 q 656 358 606 403 q 706 222 706 312 q 617 50 706 99 q 392 0 528 0 l 131 0 m 378 458 q 502 484 451 458 q 553 589 553 510 q 509 682 553 655 q 393 710 465 710 l 246 710 l 246 458 l 378 458 m 363 93 q 472 101 426 93 q 551 139 518 109 q 585 231 585 169 q 531 340 585 311 q 392 369 478 369 l 246 369 l 246 93 l 363 93 z "},"ᴄ":{"ha":833,"x_min":164,"x_max":757,"o":"m 494 -24 q 247 66 329 -24 q 164 331 164 156 q 203 530 164 447 q 319 656 243 613 q 501 699 394 699 q 652 673 583 699 q 757 592 722 647 l 679 551 q 593 601 637 588 q 499 615 550 615 q 338 541 387 615 q 289 334 289 468 q 335 130 289 200 q 494 60 381 60 q 603 78 557 60 q 681 133 649 95 l 757 85 q 649 2 718 29 q 494 -24 581 -24 z "},"ᴅ":{"ha":833,"x_min":151,"x_max":731,"o":"m 151 0 l 151 694 l 325 694 q 545 665 457 694 q 682 560 633 635 q 731 352 731 485 q 684 141 731 218 q 548 32 638 64 q 315 0 458 0 l 151 0 m 324 81 q 480 103 418 81 q 575 185 542 126 q 608 351 608 244 q 577 507 608 449 q 485 589 545 565 q 336 613 426 613 l 269 613 l 269 81 l 324 81 z "},"ᴇ":{"ha":833,"x_min":143,"x_max":690,"o":"m 690 0 l 143 0 l 143 694 l 674 694 l 674 610 l 261 610 l 261 397 l 657 397 l 657 315 l 261 315 l 261 81 l 690 81 l 690 0 z "},"ⱻ":{"ha":833,"x_min":143,"x_max":690,"o":"m 690 694 l 690 0 l 143 0 l 143 81 l 572 81 l 572 315 l 176 315 l 176 397 l 572 397 l 572 610 l 160 610 l 160 694 l 690 694 z "},"ᴆ":{"ha":833,"x_min":139,"x_max":693,"o":"m 360 694 q 551 658 478 694 q 659 545 624 622 q 693 344 693 469 q 658 138 693 216 q 549 23 624 60 q 351 -14 474 -14 l 210 -14 l 210 307 l 139 307 l 139 399 l 210 399 l 210 694 l 360 694 m 358 72 q 481 98 436 72 q 547 183 526 124 q 567 344 567 242 q 546 498 567 440 q 482 582 526 556 q 368 608 439 608 l 335 608 l 335 399 l 390 399 l 390 307 l 335 307 l 335 72 l 358 72 z "},"ᴣ":{"ha":833,"x_min":179,"x_max":639,"o":"m 435 460 q 546 402 500 441 q 616 309 592 363 q 639 194 639 256 q 604 91 639 137 q 509 19 569 45 q 375 -7 449 -7 q 259 15 312 -7 q 179 74 206 37 l 275 149 q 321 95 295 112 q 383 78 347 78 q 469 112 436 78 q 501 200 501 146 q 477 295 501 251 q 404 365 453 339 q 286 388 356 391 l 286 465 l 468 611 l 179 611 l 179 694 l 624 694 l 624 619 l 435 460 z "},"ꜰ":{"ha":833,"x_min":198,"x_max":669,"o":"m 300 0 l 198 0 l 198 692 l 669 692 l 669 608 l 300 608 l 300 396 l 651 396 l 651 314 l 300 314 l 300 0 z "},"ɢ":{"ha":833,"x_min":142,"x_max":690,"o":"m 447 3 q 216 106 290 3 q 142 383 142 208 q 176 576 142 490 q 278 712 210 662 q 444 762 347 762 q 674 627 628 762 l 597 590 q 553 643 575 624 q 506 668 532 661 q 442 676 480 676 q 295 593 338 676 q 253 386 253 511 q 268 235 253 299 q 327 131 284 171 q 451 91 371 91 q 598 112 538 91 l 598 315 l 442 315 l 442 403 l 690 403 l 690 44 q 447 3 551 3 z "},"ʛ":{"ha":833,"x_min":121,"x_max":767,"o":"m 121 346 q 153 523 121 444 q 251 648 185 602 q 411 694 316 694 q 533 674 490 694 l 533 735 q 550 786 533 763 q 594 823 567 810 q 651 836 622 836 q 709 823 683 836 q 751 786 736 809 q 767 735 767 763 l 767 715 l 692 715 l 692 735 q 680 760 692 749 q 651 772 667 772 q 622 762 633 772 q 610 735 610 752 l 610 596 l 533 596 q 485 618 515 613 q 406 624 454 624 q 263 546 304 624 q 221 351 221 469 q 236 206 221 267 q 294 106 251 144 q 414 68 337 68 q 490 73 451 68 q 561 89 528 78 l 561 289 l 411 289 l 411 358 l 646 358 l 646 39 q 527 11 588 22 q 413 0 467 0 q 190 93 260 0 q 121 346 121 185 z "},"ʜ":{"ha":833,"x_min":144,"x_max":669,"o":"m 261 1 l 144 1 l 144 807 l 261 807 l 261 461 l 551 461 l 551 807 l 669 807 l 669 1 l 551 1 l 551 364 l 261 364 l 261 1 z "},"ɪ":{"ha":833,"x_min":309,"x_max":523,"o":"m 523 0 l 309 0 l 309 103 l 360 103 l 360 661 l 309 661 l 309 764 l 523 764 l 523 661 l 475 661 l 475 103 l 523 103 l 523 0 z "},"ᴊ":{"ha":833,"x_min":238,"x_max":692,"o":"m 453 -11 q 340 14 388 -11 q 265 84 291 38 q 238 194 238 131 l 340 194 q 369 102 340 134 q 456 69 399 69 q 559 108 525 69 q 592 213 592 147 l 592 610 l 292 610 l 292 694 l 692 694 l 692 208 q 632 44 692 99 q 453 -11 572 -11 z "},"ᴋ":{"ha":833,"x_min":203,"x_max":722,"o":"m 408 385 l 722 0 l 597 0 l 303 367 l 303 0 l 203 0 l 203 697 l 303 697 l 303 386 l 567 697 l 689 697 l 408 385 z "},"ʟ":{"ha":833,"x_min":163,"x_max":690,"o":"m 690 0 l 163 0 l 163 764 l 283 764 l 283 108 l 690 108 l 690 0 z "},"ᴌ":{"ha":833,"x_min":40,"x_max":703,"o":"m 322 380 l 322 83 l 703 83 l 703 0 l 220 0 l 220 322 l 89 246 l 40 329 l 220 433 l 220 694 l 322 694 l 322 491 l 469 576 l 518 493 l 322 380 z "},"ᴍ":{"ha":833,"x_min":188,"x_max":712,"o":"m 450 292 l 548 694 l 712 694 l 712 6 l 610 6 l 610 566 l 605 549 l 599 532 l 492 163 l 408 163 l 302 532 l 296 549 l 288 566 l 288 6 l 188 6 l 188 694 l 351 694 l 450 292 z "},"ꟺ":{"ha":833,"x_min":115,"x_max":719,"o":"m 689 617 l 689 72 l 719 72 l 719 -18 l 115 -18 l 115 72 l 146 72 l 146 617 l 125 617 l 125 694 l 253 694 l 253 72 l 367 72 l 367 617 l 347 617 l 347 694 l 488 694 l 488 617 l 468 617 l 468 72 l 582 72 l 582 694 l 710 694 l 710 617 l 689 617 z "},"ᴎ":{"ha":833,"x_min":147,"x_max":615,"o":"m 615 694 l 615 0 l 513 0 l 513 567 l 290 0 l 147 0 l 147 694 l 256 694 l 256 141 l 469 694 l 615 694 z "},"ɴ":{"ha":833,"x_min":156,"x_max":699,"o":"m 274 0 l 156 0 l 156 806 l 325 806 l 572 164 l 572 806 l 699 806 l 699 0 l 532 0 l 274 657 l 274 0 z "}}}
